<?xml version="1.0" encoding="utf-8"?>
<!-- Generator: Adobe Illustrator 21.1.0, SVG Export Plug-In . SVG Version: 6.00 Build 0)  -->
<svg version="1.1" id="图层_1" xmlns="http://www.w3.org/2000/svg" xmlns:xlink="http://www.w3.org/1999/xlink" x="0px" y="0px"
	 width="64px" height="64px" viewBox="0 0 64 64" style="enable-background:new 0 0 64 64;" xml:space="preserve">
<style type="text/css">
	.st0{fill:none;stroke:#ED2B2B;stroke-linecap:round;stroke-linejoin:round;stroke-miterlimit:10;}
</style>
<g>
	<path class="st0" d="M52.1,13H11.9c-2.9,0-5.2,2.3-5.2,5.2v12.6c0,2.9,2.3,5.2,5.2,5.2h16.6l3.4,4.7l3.4-4.7h16.6
		c2.9,0,5.2-2.3,5.2-5.2V18.2C57.3,15.3,54.9,13,52.1,13z"/>
	<g>
		<path class="st0" d="M37.1,47.3c0,1.5-0.7,2.8-1.7,3.7"/>
		<path class="st0" d="M37.1,47.3c0-1.5-0.7-2.8-1.7-3.7"/>
		<path class="st0" d="M27.3,47.3c0,1.5,0.7,2.8,1.7,3.7"/>
		<path class="st0" d="M27.3,47.3c0-1.5,0.7-2.8,1.7-3.7"/>
		<path class="st0" d="M10,47.3c0-1.6-1.3-2.9-2.9-2.9c-1.6,0-2.9,1.3-2.9,2.9c0,1.6,1.3,2.9,2.9,2.9C8.7,50.2,10,48.9,10,47.3"/>
		<path class="st0" d="M33.6,47.3c0-0.8-0.6-1.4-1.4-1.4c-0.8,0-1.4,0.6-1.4,1.4c0,0.8,0.6,1.4,1.4,1.4C33,48.7,33.6,48,33.6,47.3"
			/>
		<line class="st0" x1="26.9" y1="47.3" x2="10" y2="47.3"/>
		<g>
			<path class="st0" d="M54,47.3c0,1.6,1.3,2.9,2.9,2.9c1.6,0,2.9-1.3,2.9-2.9c0-1.6-1.3-2.9-2.9-2.9C55.3,44.4,54,45.7,54,47.3"/>
			<line class="st0" x1="37.1" y1="47.3" x2="54" y2="47.3"/>
		</g>
	</g>
	<g>
		<polyline class="st0" points="13.8,17.7 19.1,31.4 24.3,17.7 		"/>
		<path class="st0" d="M28.6,31V17.7h3.5c2.1,0,3.7,1.7,3.7,3.7v0c0,2.1-1.7,3.7-3.7,3.7h-3.5"/>
		<polyline class="st0" points="41.1,31 41.1,17.4 47.8,31 47.8,17.7 		"/>
	</g>
</g>
</svg>
