<?xml version="1.0" encoding="utf-8"?>
<!-- Generator: Adobe Illustrator 21.1.0, SVG Export Plug-In . SVG Version: 6.00 Build 0)  -->
<svg version="1.1" id="图层_1" xmlns="http://www.w3.org/2000/svg" xmlns:xlink="http://www.w3.org/1999/xlink" x="0px" y="0px"
	 width="96px" height="96px" viewBox="0 0 96 96" style="enable-background:new 0 0 96 96;" xml:space="preserve">
<style type="text/css">
	.st0{opacity:0.2;fill:#ED2B2B;}
	.st1{fill:#ED2B2B;}
	.st2{fill:#FFFFFF;}
</style>
<g>
	<path class="st0" d="M32.5,68.8V46.5v-4.1H18.2c-1.3,0-2.4,1.1-2.4,2.4v24c0,4.6,3.7,8.4,8.4,8.4h0C28.7,77.1,32.5,73.4,32.5,68.8z
		"/>
	<path class="st1" d="M77,18.9H35.7c-1.8,0-3.2,1.4-3.2,3.2v20.2v4.1v22.3v0.7v-0.7c0,4.6-3.7,8.4-8.4,8.4h49.1c3.9,0,7-3.1,7-7v-48
		C80.2,20.3,78.8,18.9,77,18.9z M38.7,46.4h14.1c0.3,0,0.5,0.2,0.5,0.5s-0.2,0.5-0.5,0.5H38.7c-0.3,0-0.5-0.2-0.5-0.5
		S38.4,46.4,38.7,46.4z M38.1,41.7c0-0.3,0.2-0.5,0.5-0.5h14.1c0.3,0,0.5,0.2,0.5,0.5c0,0.3-0.2,0.5-0.5,0.5H38.7
		C38.4,42.3,38.1,42,38.1,41.7z M38.7,51.6h14.1c0.3,0,0.5,0.2,0.5,0.5s-0.2,0.5-0.5,0.5H38.7c-0.3,0-0.5-0.2-0.5-0.5
		S38.4,51.6,38.7,51.6z M74,68.3H38.7c-0.3,0-0.5-0.2-0.5-0.5c0-0.3,0.2-0.5,0.5-0.5H74c0.3,0,0.5,0.2,0.5,0.5
		C74.6,68.1,74.3,68.3,74,68.3z M74,63.1H38.7c-0.3,0-0.5-0.2-0.5-0.5c0-0.3,0.2-0.5,0.5-0.5H74c0.3,0,0.5,0.2,0.5,0.5
		C74.6,62.9,74.3,63.1,74,63.1z M74.6,57.4c0,0.3-0.2,0.5-0.5,0.5H38.7c-0.3,0-0.5-0.2-0.5-0.5v0c0-0.3,0.2-0.5,0.5-0.5H74
		C74.3,56.9,74.6,57.1,74.6,57.4L74.6,57.4z M74.6,51.6c0,0.6-0.5,1.1-1.1,1.1H60.6c-0.6,0-1.1-0.5-1.1-1.1v-9.2
		c0-0.6,0.5-1.1,1.1-1.1h12.9c0.6,0,1.1,0.5,1.1,1.1V51.6z M74.6,34.3c0,0.6-0.5,1.1-1.1,1.1H39.3c-0.6,0-1.1-0.5-1.1-1.1v-8.8
		c0-0.6,0.5-1.1,1.1-1.1h34.2c0.6,0,1.1,0.5,1.1,1.1V34.3z"/>
	<path class="st2" d="M73.4,24.4H39.3c-0.6,0-1.1,0.5-1.1,1.1v8.8c0,0.6,0.5,1.1,1.1,1.1h34.2c0.6,0,1.1-0.5,1.1-1.1v-8.8
		C74.6,24.9,74,24.4,73.4,24.4z"/>
	<path class="st2" d="M73.4,41.2H60.6c-0.6,0-1.1,0.5-1.1,1.1v9.2c0,0.6,0.5,1.1,1.1,1.1h12.9c0.6,0,1.1-0.5,1.1-1.1v-9.2
		C74.6,41.7,74,41.2,73.4,41.2z"/>
	<path class="st2" d="M38.7,42.3h14.1c0.3,0,0.5-0.2,0.5-0.5c0-0.3-0.2-0.5-0.5-0.5H38.7c-0.3,0-0.5,0.2-0.5,0.5
		C38.1,42,38.4,42.3,38.7,42.3z"/>
	<path class="st2" d="M38.7,47.5h14.1c0.3,0,0.5-0.2,0.5-0.5s-0.2-0.5-0.5-0.5H38.7c-0.3,0-0.5,0.2-0.5,0.5S38.4,47.5,38.7,47.5z"/>
	<path class="st2" d="M38.7,52.7h14.1c0.3,0,0.5-0.2,0.5-0.5s-0.2-0.5-0.5-0.5H38.7c-0.3,0-0.5,0.2-0.5,0.5S38.4,52.7,38.7,52.7z"/>
	<path class="st2" d="M74,56.9H38.7c-0.3,0-0.5,0.2-0.5,0.5v0c0,0.3,0.2,0.5,0.5,0.5H74c0.3,0,0.5-0.2,0.5-0.5v0
		C74.6,57.1,74.3,56.9,74,56.9z"/>
	<path class="st2" d="M74,62.1H38.7c-0.3,0-0.5,0.2-0.5,0.5c0,0.3,0.2,0.5,0.5,0.5H74c0.3,0,0.5-0.2,0.5-0.5
		C74.6,62.3,74.3,62.1,74,62.1z"/>
	<path class="st2" d="M74,67.3H38.7c-0.3,0-0.5,0.2-0.5,0.5c0,0.3,0.2,0.5,0.5,0.5H74c0.3,0,0.5-0.2,0.5-0.5
		C74.6,67.5,74.3,67.3,74,67.3z"/>
</g>
</svg>
