<?xml version="1.0" encoding="utf-8"?>
<!-- Generator: Adobe Illustrator 21.1.0, SVG Export Plug-In . SVG Version: 6.00 Build 0)  -->
<svg version="1.1" id="图层_1" xmlns="http://www.w3.org/2000/svg" xmlns:xlink="http://www.w3.org/1999/xlink" x="0px" y="0px"
	 width="96px" height="96px" viewBox="0 0 96 96" style="enable-background:new 0 0 96 96;" xml:space="preserve">
<style type="text/css">
	.st0{opacity:0.2;}
	.st1{fill:#ED2B2B;}
	.st2{fill:#FFFFFF;}
</style>
<g>
	<g>
		<g class="st0">
			<path class="st1" d="M79,29.8v-6.3c0-4.7-3.8-8.5-8.5-8.5H30.6c4.7,0,8.5,3.8,8.5,8.5v6.3c0,1.6,1.3,2.9,2.9,2.9h34.1
				C77.7,32.7,79,31.4,79,29.8z"/>
		</g>
		<g>
			<path class="st1" d="M39.2,29.8v-6.3c0-4.7-3.8-8.5-8.5-8.5s-8.5,3.8-8.5,8.5v39.7c0,3.7,2.4,6.9,5.7,8.1v9.2
				c0,1.9,2.2,3,3.7,1.8L45,71.7h16.6c4.7,0,8.5-3.8,8.5-8.5V32.7H42.1C40.5,32.7,39.2,31.4,39.2,29.8z"/>
		</g>
	</g>
	<g>
		<circle class="st2" cx="37.2" cy="59.2" r="3.5"/>
		<path class="st2" d="M50,62.7c0-9-7.3-16.3-16.3-16.3v5.4c6,0,10.9,4.9,10.9,10.9H50z"/>
		<path class="st2" d="M33.7,43.2c10.8,0,19.6,8.8,19.6,19.6h5.3c0-13.7-11.1-24.9-24.9-24.9V43.2z"/>
	</g>
</g>
</svg>
