<?xml version="1.0" encoding="utf-8"?>
<!-- Generator: Adobe Illustrator 21.1.0, SVG Export Plug-In . SVG Version: 6.00 Build 0)  -->
<svg version="1.1" id="图层_1" xmlns="http://www.w3.org/2000/svg" xmlns:xlink="http://www.w3.org/1999/xlink" x="0px" y="0px"
	 width="64px" height="64px" viewBox="0 0 64 64" style="enable-background:new 0 0 64 64;" xml:space="preserve">
<style type="text/css">
	.st0{fill:none;stroke:#ED2B2B;stroke-linecap:round;stroke-linejoin:round;stroke-miterlimit:10;}
</style>
<g>
	<g>
		<circle class="st0" cx="32" cy="21.3" r="9.9"/>
		<path class="st0" d="M12.5,50.7c0-10.8,8.7-19.5,19.5-19.5s19.5,8.7,19.5,19.5"/>
	</g>
	<path class="st0" d="M32,5L32,5c14.8,0,27,12.1,27,27v0c0,14.8-12.1,27-27,27h0C17.2,59,5,46.8,5,32v0C5,17.2,17.2,5,32,5z"/>
</g>
<path class="st0" d="M43.9,51.4H20.1c-1.1,0-1.9-0.9-1.9-1.9v-2.5c0-1.1,0.9-1.9,1.9-1.9h23.9c1.1,0,1.9,0.9,1.9,1.9v2.5
	C45.9,50.5,45,51.4,43.9,51.4z"/>
<g>
	<line class="st0" x1="21.7" y1="48.2" x2="23.1" y2="48.2"/>
	<line class="st0" x1="25.1" y1="48.2" x2="26.6" y2="48.2"/>
	<line class="st0" x1="28.6" y1="48.2" x2="30.1" y2="48.2"/>
	<line class="st0" x1="32.1" y1="48.2" x2="33.5" y2="48.2"/>
</g>
</svg>
