<?xml version="1.0" encoding="utf-8"?>
<!-- Generator: Adobe Illustrator 21.1.0, SVG Export Plug-In . SVG Version: 6.00 Build 0)  -->
<svg version="1.1" id="图层_1" xmlns="http://www.w3.org/2000/svg" xmlns:xlink="http://www.w3.org/1999/xlink" x="0px" y="0px"
	 width="64px" height="64px" viewBox="0 0 64 64" style="enable-background:new 0 0 64 64;" xml:space="preserve">
<style type="text/css">
	.st0{fill:none;stroke:#ED2B2B;stroke-linecap:round;stroke-linejoin:round;stroke-miterlimit:10;}
</style>
<g>
	<path class="st0" d="M40.5,52.4h-3.1c-1.1,0-1.9-0.9-1.9-1.9v-37c0-1.1,0.9-1.9,1.9-1.9h3.1c1.1,0,1.9,0.9,1.9,1.9v37
		C42.4,51.6,41.6,52.4,40.5,52.4z"/>
	<path class="st0" d="M42.4,18.4H56c1.9,0,3.5,1.6,3.5,3.5v0c0,1.9-1.6,3.5-3.5,3.5H42.4"/>
	<path class="st0" d="M42.4,39.1H56c1.9,0,3.5,1.6,3.5,3.5v0c0,1.9-1.6,3.5-3.5,3.5H42.4"/>
	<path class="st0" d="M35.4,49.3H32c-9.3,0-16.9-7.6-16.9-16.9v0c0-9.3,7.6-16.9,16.9-16.9h3.4"/>
	<polyline class="st0" points="15.3,35.7 4.5,35.7 4.5,29 15.3,29 	"/>
</g>
</svg>
