<?xml version="1.0" encoding="utf-8"?>
<!-- Generator: Adobe Illustrator 21.1.0, SVG Export Plug-In . SVG Version: 6.00 Build 0)  -->
<svg version="1.1" id="图层_1" xmlns="http://www.w3.org/2000/svg" xmlns:xlink="http://www.w3.org/1999/xlink" x="0px" y="0px"
	 width="96px" height="96px" viewBox="0 0 96 96" style="enable-background:new 0 0 96 96;" xml:space="preserve">
<style type="text/css">
	.st0{opacity:0.2;fill:#ED2B2B;enable-background:new    ;}
	.st1{fill:#ED2B2B;}
</style>
<g>
	<path class="st0" d="M80.1,63.9V43h-2.6v20.9c-1.8,0.6-3.1,2.2-3.1,4.2v12.1h8.8V68.1C83.2,66.2,81.9,64.5,80.1,63.9z"/>
	<path class="st1" d="M46.9,25.9L10.6,40.3c-0.8,0.3-0.8,1.4,0,1.7l36.3,14.4c0.7,0.3,1.6,0.3,2.3,0L85.4,42c0.8-0.3,0.8-1.4,0-1.7
		L49.1,25.9C48.4,25.6,47.6,25.6,46.9,25.9z"/>
	<g>
		<path class="st1" d="M46.9,62.1l-19.9-7.9v8.4c0,5.3,9.4,9.6,21.1,9.6s21.1-4.3,21.1-9.6v-8.4l-19.9,7.9
			C48.4,62.4,47.6,62.4,46.9,62.1z"/>
	</g>
</g>
</svg>
