<?xml version="1.0" encoding="utf-8"?>
<!-- Generator: Adobe Illustrator 21.1.0, SVG Export Plug-In . SVG Version: 6.00 Build 0)  -->
<svg version="1.1" id="图层_1" xmlns="http://www.w3.org/2000/svg" xmlns:xlink="http://www.w3.org/1999/xlink" x="0px" y="0px"
	 width="90.5px" height="30px" viewBox="0 0 90.5 30" style="enable-background:new 0 0 90.5 30;" xml:space="preserve">
<style type="text/css">
	.st0{fill:#009DEC;}
	.st1{fill:#FFFFFF;}
	.st2{enable-background:new    ;}
</style>
<path class="st0" d="M75.5,30H15C6.7,30,0,23.3,0,15l0,0C0,6.7,6.7,0,15,0h60.5c8.3,0,15,6.7,15,15l0,0C90.5,23.3,83.8,30,75.5,30z"
	/>
<circle class="st1" cx="15" cy="15" r="10.4"/>
<path class="st1" d="M15,2.5C8.1,2.5,2.5,8.1,2.5,15S8.1,27.5,15,27.5S27.5,21.9,27.5,15S21.9,2.5,15,2.5z"/>
<g class="st2">
	<path class="st1" d="M43.2,10.6h-4v11.2H37V10.6h-3.9V8.9h10.1V10.6z"/>
	<path class="st1" d="M52.6,18.9L52.6,18.9l1.5-6.7h2.2l-2.6,9.6h-1.8l-2-6.4h-0.1l-2,6.4H46l-2.6-9.6h2.2l1.4,6.7H47l2-6.7h1.6
		L52.6,18.9z"/>
	<path class="st1" d="M61.8,22c-1.4,0-2.5-0.4-3.3-1.3c-0.8-0.9-1.2-2-1.2-3.4v-0.4c0-1.4,0.4-2.6,1.2-3.5c0.8-0.9,1.8-1.4,3.1-1.4
		c1.3,0,2.3,0.4,2.9,1.2c0.7,0.8,1,1.9,1,3.2v1.2h-5.9l0,0c0,0.8,0.2,1.4,0.6,1.9c0.4,0.5,1,0.7,1.8,0.7c0.6,0,1.1-0.1,1.5-0.2
		c0.4-0.1,0.8-0.3,1.2-0.6l0.7,1.4c-0.4,0.3-0.9,0.6-1.5,0.8C63.3,21.9,62.6,22,61.8,22z M61.6,13.7c-0.6,0-1,0.2-1.3,0.6
		c-0.3,0.4-0.5,0.9-0.6,1.6l0,0h3.8v-0.2c0-0.6-0.1-1.1-0.4-1.5C62.7,13.9,62.2,13.7,61.6,13.7z"/>
	<path class="st1" d="M71.3,22c-1.4,0-2.5-0.4-3.3-1.3c-0.8-0.9-1.2-2-1.2-3.4v-0.4c0-1.4,0.4-2.6,1.2-3.5c0.8-0.9,1.8-1.4,3.1-1.4
		c1.3,0,2.3,0.4,2.9,1.2c0.7,0.8,1,1.9,1,3.2v1.2h-5.9l0,0c0,0.8,0.2,1.4,0.6,1.9c0.4,0.5,1,0.7,1.8,0.7c0.6,0,1.1-0.1,1.5-0.2
		c0.4-0.1,0.8-0.3,1.2-0.6l0.7,1.4c-0.4,0.3-0.9,0.6-1.5,0.8C72.8,21.9,72.1,22,71.3,22z M71.1,13.7c-0.6,0-1,0.2-1.3,0.6
		c-0.3,0.4-0.5,0.9-0.6,1.6l0,0h3.8v-0.2c0-0.6-0.1-1.1-0.4-1.5C72.2,13.9,71.7,13.7,71.1,13.7z"/>
	<path class="st1" d="M79.5,9.9v2.3h1.7v1.6h-1.7v5.3c0,0.4,0.1,0.7,0.3,0.8c0.2,0.2,0.4,0.3,0.7,0.3c0.1,0,0.2,0,0.3,0
		c0.1,0,0.2,0,0.3-0.1l0.2,1.6c-0.2,0.1-0.4,0.2-0.7,0.2C80.5,22,80.2,22,79.9,22c-0.8,0-1.4-0.2-1.9-0.7c-0.5-0.5-0.7-1.2-0.7-2.2
		v-5.3h-1.5v-1.6h1.5V9.9H79.5z"/>
</g>
<path class="st0" d="M21.6,11.6c0,0.1,0,0.3,0,0.4c0,4.5-3.5,9.8-9.8,9.8l0,0l0,0c-1.9,0-3.8-0.6-5.3-1.5c0.3,0,0.5,0,0.8,0
	c1.6,0,3.1-0.6,4.3-1.5c-1.5,0-2.8-1-3.2-2.4c0.2,0,0.4,0.1,0.6,0.1c0.3,0,0.6,0,0.9-0.1c-1.6-0.3-2.8-1.7-2.8-3.4l0,0
	c0.5,0.3,1,0.4,1.6,0.4c-0.9-0.6-1.5-1.7-1.5-2.9c0.1-0.6,0.3-1.2,0.6-1.7c1.7,2.1,4.2,3.5,7.1,3.6c-0.1-0.2-0.1-0.5-0.1-0.8
	c0-1.9,1.5-3.4,3.4-3.4c1,0,1.9,0.4,2.5,1.1c0.8-0.2,1.5-0.4,2.2-0.8c-0.3,0.8-0.8,1.5-1.5,1.9c0.7-0.1,1.4-0.3,2-0.5
	C23,10.5,22.4,11.1,21.6,11.6z"/>
</svg>
