<?xml version="1.0" encoding="utf-8"?>
<!-- Generator: Adobe Illustrator 21.1.0, SVG Export Plug-In . SVG Version: 6.00 Build 0)  -->
<svg version="1.1" id="图层_1" xmlns="http://www.w3.org/2000/svg" xmlns:xlink="http://www.w3.org/1999/xlink" x="0px" y="0px"
	 width="96px" height="96px" viewBox="0 0 96 96" style="enable-background:new 0 0 96 96;" xml:space="preserve">
<style type="text/css">
	.st0{opacity:0.2;fill:#ED2B2B;enable-background:new    ;}
	.st1{fill:#ED2B2B;}
	.st2{fill:#FFFFFF;}
</style>
<g>
	<path class="st0" d="M55.4,51.1c-0.8,0.3-1.3,1.1-1.3,2v11.6c0,3.6,1,7.2,3,10.4c2.1,3.2,7.3,6.9,10.9,9.3c0.7,0.5,1.7,0.5,2.4,0
		c3.6-2.4,8.6-6,10.9-9.2c0.1-0.1,0.1-0.2,0.1-0.2c1.8-3.1,3-6.7,3-10.3V53.1c0-0.9-0.5-1.6-1.3-2l-12.9-5.7c-0.6-0.2-1.2-0.2-1.7,0
		L55.4,51.1z"/>
	<g>
		<g>
			<g>
				<path class="st1" d="M54.1,53.1c0-0.9,0.5-1.6,1.3-2l9.5-4.1v-8.3c0-2.2-1.8-4.1-4.1-4.1H15.7c-2.2,0-4.1,1.8-4.1,4.1v30.5
					c0,2.2,1.8,4.1,4.1,4.1h40.4c-1.3-2.7-2-5.6-2-8.5V53.1z"/>
			</g>
			<g>
				<g>
					<path class="st1" d="M52.8,37.6c-1.4,0-2.5-1.1-2.5-2.5v-7.5c0-6.8-5.3-12.1-12.1-12.1c-6.7,0-12.1,5.4-12.1,12.1v7.5
						c0,1.4-1.1,2.5-2.5,2.5s-2.5-1.1-2.5-2.5v-7.5c0-9.4,7.7-17.1,17.1-17.1s17.1,7.7,17.1,17.1v7.5C55.3,36.4,54.2,37.6,52.8,37.6
						z"/>
				</g>
			</g>
			<path class="st2" d="M43.8,52.3c0-3-2.5-5.5-5.5-5.5s-5.5,2.5-5.5,5.5c0,2,1,3.8,2.6,4.6v4.2c0,1.7,1.4,2.9,2.9,2.9l0,0
				c1.7,0,2.9-1.4,2.9-2.9v-4.2C42.8,56,43.8,54.1,43.8,52.3z"/>
		</g>
	</g>
	<g>
		<path class="st1" d="M67.5,69.6C67.5,69.6,67.5,69.6,67.5,69.6c-0.4,0-0.8-0.2-1.1-0.5l-4-4.3c-0.5-0.6-0.5-1.5,0.1-2
			c0.6-0.5,1.5-0.5,2,0.1l3,3.2l8-8.2c0.6-0.6,1.5-0.6,2,0c0.6,0.6,0.6,1.5,0,2l-9.1,9.2C68.3,69.4,67.9,69.6,67.5,69.6z"/>
	</g>
</g>
</svg>
