<?xml version="1.0" encoding="utf-8"?>
<!-- Generator: Adobe Illustrator 21.1.0, SVG Export Plug-In . SVG Version: 6.00 Build 0)  -->
<svg version="1.1" id="图层_1" xmlns="http://www.w3.org/2000/svg" xmlns:xlink="http://www.w3.org/1999/xlink" x="0px" y="0px"
	 width="64px" height="64px" viewBox="0 0 64 64" style="enable-background:new 0 0 64 64;" xml:space="preserve">
<style type="text/css">
	.st0{fill:none;stroke:#ED2B2B;stroke-linecap:round;stroke-linejoin:round;stroke-miterlimit:10;}
</style>
<g>
	<path class="st0" d="M32,5.8c-14.7,0-26.8,12-26.8,26.8c0,11.9,7.7,21.9,18.2,25.4c1.3,0.2,1.8-0.5,1.8-1.3c0-0.7,0-2.3,0-4.5
		c-7.5,1.7-9-3.5-9-3.5c-1.2-3-3-3.8-3-3.8c-2.5-1.7,0.2-1.7,0.2-1.7c2.7,0.2,4.2,2.7,4.2,2.7c2.3,4,6.2,2.8,7.9,2.2
		c0.2-1.7,1-2.8,1.7-3.5c-6-0.7-12.2-3-12.2-13.2c0-2.8,1-5.4,2.7-7.2c-0.3-0.7-1.2-3.3,0.3-7c0,0,2.2-0.7,7.4,2.7
		c2.2-0.7,4.3-0.8,6.7-0.8s4.5,0.3,6.7,0.8C43.9,16.2,46,17,46,17c1.5,3.7,0.5,6.4,0.3,7c1.7,1.8,2.7,4.2,2.7,7.2
		c0,10.2-6.2,12.5-12.2,13.2c1,0.8,1.8,2.5,1.8,5c0,3.5,0,6.5,0,7.4c0,0.7,0.5,1.5,1.8,1.3c10.5-3.7,18.2-13.7,18.2-25.6
		C58.8,17.9,46.7,5.8,32,5.8z"/>
</g>
</svg>
