<?xml version="1.0" encoding="utf-8"?>
<!-- Generator: Adobe Illustrator 21.1.0, SVG Export Plug-In . SVG Version: 6.00 Build 0)  -->
<svg version="1.1" id="图层_1" xmlns="http://www.w3.org/2000/svg" xmlns:xlink="http://www.w3.org/1999/xlink" x="0px" y="0px"
	 width="64px" height="64px" viewBox="0 0 64 64" style="enable-background:new 0 0 64 64;" xml:space="preserve">
<style type="text/css">
	.st0{fill:none;stroke:#ED2B2B;stroke-linecap:round;stroke-linejoin:round;stroke-miterlimit:10;}
</style>
<g>
	<g>
		<path class="st0" d="M18.3,37.1H9.7c-0.7,0-1.3,0.6-1.3,1.3v15.9c0,0.7,0.6,1.3,1.3,1.3h15.9c0.7,0,1.3-0.6,1.3-1.3v-8.5"/>
		<path class="st0" d="M21,34.2V9.7c0-0.7,0.6-1.3,1.3-1.3h32c0.7,0,1.3,0.6,1.3,1.3v32c0,0.7-0.6,1.3-1.3,1.3H29.8"/>
	</g>
	<g>
		<path class="st0" d="M38.9,13.8h10c0.7,0,1.3,0.6,1.3,1.3v10"/>
	</g>
	<line class="st0" x1="49.5" y1="14.5" x2="14.7" y2="49.3"/>
</g>
</svg>
