<?xml version="1.0" encoding="utf-8"?>
<!-- Generator: Adobe Illustrator 21.1.0, SVG Export Plug-In . SVG Version: 6.00 Build 0)  -->
<svg version="1.1" id="图层_1" xmlns="http://www.w3.org/2000/svg" xmlns:xlink="http://www.w3.org/1999/xlink" x="0px" y="0px"
	 width="96px" height="96px" viewBox="0 0 96 96" style="enable-background:new 0 0 96 96;" xml:space="preserve">
<style type="text/css">
	.st0{fill:#ED2B2B;}
	.st1{opacity:0.2;fill:#ED2B2B;}
	.st2{opacity:0.2;}
</style>
<g>
	<g>
		<path class="st0" d="M63.9,24.2c-13.1,0-23.8,10.6-23.8,23.8c0,13.1,10.6,23.8,23.8,23.8S87.7,61.1,87.7,48
			C87.7,34.9,77,24.2,63.9,24.2z M63.9,56c-4.4,0-8-3.6-8-8c0-4.4,3.6-8,8-8s8,3.6,8,8C71.9,52.4,68.3,56,63.9,56z"/>
		<path class="st1" d="M63.9,40c-4.4,0-8,3.6-8,8c0,4.4,3.6,8,8,8s8-3.6,8-8C71.9,43.6,68.3,40,63.9,40z M63.9,52.1
			c-2.3,0-4.1-1.8-4.1-4.1c0-2.3,1.8-4.1,4.1-4.1S68,45.7,68,48C68,50.3,66.2,52.1,63.9,52.1z"/>
	</g>
	<g class="st2">
		<path class="st0" d="M35.1,35.7H11.2c-1.6,0-2.9-1.3-2.9-2.9v-1.6c0-1.6,1.3-2.9,2.9-2.9h23.9c1.6,0,2.9,1.3,2.9,2.9v1.6
			C38,34.4,36.7,35.7,35.1,35.7z"/>
		<path class="st0" d="M35.1,67.7H11.2c-1.6,0-2.9-1.3-2.9-2.9v-1.6c0-1.6,1.3-2.9,2.9-2.9h23.9c1.6,0,2.9,1.3,2.9,2.9v1.6
			C38,66.4,36.7,67.7,35.1,67.7z"/>
	</g>
	<g>
		<path class="st0" d="M46.3,54.4V41.6l-12.3,1.1l-7.1-7h-8l7.7,7.6l-2.5,0.2c-2.3,0.2-4.1,2.1-4.1,4.5v0c0,2.3,1.8,4.3,4.1,4.5
			l2.5,0.2L19,60.3h8l7.1-7L46.3,54.4z"/>
	</g>
</g>
</svg>
