<svg width="63" height="62" xmlns="http://www.w3.org/2000/svg" xmlns:xlink="http://www.w3.org/1999/xlink" xml:space="preserve" overflow="hidden"><defs><clipPath id="clip0"><rect x="62" y="720" width="63" height="62"/></clipPath><clipPath id="clip1"><rect x="63" y="721" width="62" height="61"/></clipPath><clipPath id="clip2"><rect x="63" y="721" width="62" height="61"/></clipPath><clipPath id="clip3"><rect x="63" y="721" width="62" height="61"/></clipPath></defs><g clip-path="url(#clip0)" transform="translate(-62 -720)"><g clip-path="url(#clip1)"><g clip-path="url(#clip2)"><g clip-path="url(#clip3)"><path d="M54.2684 48.3037 45.3363 39.3564C43.9689 37.9865 41.6598 38.0271 39.948 39.3564L37.3034 36.7118C44.2099 29.2519 43.7612 17.6056 36.3012 10.6991 28.8412 3.79271 17.1949 4.24141 10.2885 11.7014 3.38207 19.1613 3.83077 30.8076 11.2907 37.7141 18.3879 44.2846 29.3596 44.2421 36.4056 37.6167L39.0489 40.2606C38.483 40.9715 38.1352 41.8312 38.0475 42.7356 37.9292 43.8021 38.2953 44.8654 39.0451 45.6331L47.974 54.5772C48.6528 55.2438 49.5708 55.61 50.522 55.5939 51.7718 55.5722 52.9626 55.0587 53.8363 54.1648 54.6458 53.3763 55.1512 52.3276 55.2635 51.2031 55.3827 50.1364 55.0176 49.0724 54.2684 48.3037ZM11.7044 12.0145C15.6734 8.03497 21.3413 6.25423 26.873 7.24883 29.2567 7.65919 31.5216 8.58639 33.5087 9.96524 38.1925 13.1648 40.9911 18.4735 40.9844 24.1458L34.3125 24.1458C34.1271 24.1458 33.951 24.2268 33.8302 24.3676L30.8107 27.8903C30.8089 27.8933 30.8049 27.8942 30.802 27.8924 30.8011 27.8919 30.8004 27.8912 30.7999 27.8903L28.5721 19.534C28.4817 19.1949 28.1335 18.9934 27.7944 19.0839 27.5975 19.1364 27.4377 19.2801 27.3649 19.4704L22.7206 31.4798C22.7195 31.4831 22.7159 31.485 22.7126 31.4839 22.7107 31.4832 22.7092 31.4817 22.7085 31.4798L19.6871 15.1344C19.6232 14.7893 19.2917 14.5614 18.9466 14.6253 18.7192 14.6674 18.5326 14.8298 18.4595 15.0492L15.4273 24.1458 6.68713 24.1458C6.67918 19.5956 8.48478 15.2299 11.7044 12.0145ZM14.3414 38.4478C9.92883 35.5131 7.1222 30.7021 6.73923 25.4167L15.8854 25.4167C16.159 25.4167 16.4019 25.2416 16.4884 24.982L18.8782 17.8126C18.8793 17.8093 18.8829 17.8075 18.8862 17.8086 18.8881 17.8092 18.8897 17.8107 18.8903 17.8126L21.8717 33.9357C21.9233 34.2154 22.1546 34.4267 22.4378 34.4529 22.4575 34.4529 22.4772 34.4529 22.4969 34.4529 22.7592 34.4528 22.9945 34.2915 23.0891 34.0469L27.8401 21.7618C27.8412 21.7584 27.8448 21.7566 27.8482 21.7577 27.8501 21.7583 27.8516 21.7598 27.8522 21.7618L29.8856 29.3868C29.9762 29.7258 30.3244 29.9272 30.6635 29.8366 30.7873 29.8035 30.8982 29.7338 30.9816 29.6365L34.6048 25.4167 40.9323 25.4167C40.2395 34.8629 32.0201 41.959 22.5739 41.2662 21.9891 41.2233 21.4069 41.1505 20.8296 41.0479 18.5062 40.6536 16.294 39.7671 14.3414 38.4478ZM52.9416 53.2625C51.7032 54.4971 49.8789 54.6846 48.875 53.6794L39.9442 44.7333C39.462 44.2294 39.2308 43.5361 39.3139 42.8436 39.3998 42.018 39.7742 41.2492 40.3712 40.6724 41.609 39.4371 43.4333 39.2497 44.4379 40.2556L53.3693 49.2016C53.8512 49.7057 54.0825 50.3988 53.9996 51.0913 53.9135 51.917 53.5388 52.6858 52.9416 53.2625Z" fill="#FFFFFF" fill-rule="nonzero" fill-opacity="1" transform="matrix(-1.01639 0 0 1 125 721)"/></g></g></g></g></svg>