<?xml version="1.0" encoding="utf-8"?>
<!-- Generator: Adobe Illustrator 21.1.0, SVG Export Plug-In . SVG Version: 6.00 Build 0)  -->
<svg version="1.1" id="图层_1" xmlns="http://www.w3.org/2000/svg" xmlns:xlink="http://www.w3.org/1999/xlink" x="0px" y="0px"
	 width="64px" height="64px" viewBox="0 0 64 64" style="enable-background:new 0 0 64 64;" xml:space="preserve">
<style type="text/css">
	.st0{fill:none;stroke:#ED2B2B;stroke-linecap:round;stroke-linejoin:round;stroke-miterlimit:10;}
</style>
<g>
	<g>
		<g>
			<g>
				<path class="st0" d="M19.6,20.8c0-7.4,6.5-13.4,14.3-12.2C40,9.5,44.3,15,44.3,21.1l0,6"/>
			</g>
			<path class="st0" d="M36.1,40.2c0-2.4-2.1-4.3-4.6-4c-1.9,0.3-3.3,2-3.4,3.9c0,1.5,0.7,2.8,1.9,3.5v3.1c0,1.3,1.1,2.1,2.1,2.1
				l0,0c1.3,0,2.1-1.1,2.1-2.1v-3.1C35.3,43,36.1,41.6,36.1,40.2z"/>
			<path class="st0" d="M48.2,55.6H15.8c-1.8,0-3.3-1.5-3.3-3.3V30.5c0-1.8,1.5-3.3,3.3-3.3h32.3c1.8,0,3.3,1.5,3.3,3.3v21.7
				C51.5,54.1,50,55.6,48.2,55.6z"/>
		</g>
	</g>
</g>
</svg>
