<svg width="70" height="70" xmlns="http://www.w3.org/2000/svg" xmlns:xlink="http://www.w3.org/1999/xlink" xml:space="preserve" overflow="hidden"><defs><clipPath id="clip0"><rect x="320" y="704" width="70" height="70"/></clipPath></defs><g clip-path="url(#clip0)" transform="translate(-320 -704)"><path d="M331.665 714.208 330.207 714.208 330.207 763.792 379.768 763.792 379.768 762.333 331.665 762.333 331.665 714.208Z" fill="#F1F1F1" fill-rule="nonzero" fill-opacity="1"/><path d="M344.792 757.97 344.792 729.525 336.042 729.525 336.042 757.97ZM337.5 730.984 343.333 730.984 343.333 756.512 337.5 756.512Z" fill="#F1F1F1" fill-rule="nonzero" fill-opacity="1"/><path d="M356.458 757.97 356.458 714.208 347.708 714.208 347.708 757.97ZM349.167 715.667 355 715.667 355 756.512 349.167 756.512Z" fill="#F1F1F1" fill-rule="nonzero" fill-opacity="1"/><path d="M368.125 757.97 368.125 729.525 359.375 729.525 359.375 757.97ZM360.833 730.984 366.667 730.984 366.667 756.512 360.833 756.512Z" fill="#F1F1F1" fill-rule="nonzero" fill-opacity="1"/><path d="M371.042 757.97 379.792 757.97 379.792 741.925 371.042 741.925ZM372.5 743.383 378.333 743.383 378.333 756.512 372.5 756.512Z" fill="#F1F1F1" fill-rule="nonzero" fill-opacity="1"/></g></svg>