<?xml version="1.0" encoding="utf-8"?>
<!-- Generator: Adobe Illustrator 21.1.0, SVG Export Plug-In . SVG Version: 6.00 Build 0)  -->
<svg version="1.1" id="图层_1" xmlns="http://www.w3.org/2000/svg" xmlns:xlink="http://www.w3.org/1999/xlink" x="0px" y="0px"
	 width="96px" height="96px" viewBox="0 0 96 96" style="enable-background:new 0 0 96 96;" xml:space="preserve">
<style type="text/css">
	.st0{fill:#ED2B2B;}
	.st1{fill:#FFFFFF;}
	.st2{opacity:0.2;fill:#FFFFFF;enable-background:new    ;}
	.st3{opacity:0.2;fill:#ED2B2B;enable-background:new    ;}
</style>
<g>
	<g>
		<path class="st0" d="M67.1,62.4c0-3,2.4-5.4,5.4-5.4c1.2,0,2.3,0.4,3.2,1.1c0.8-2.6,1.2-5.3,1.2-8.1c0-0.1,0-0.2,0-0.3v-0.1
			c0-0.7-0.5-1.3-1.3-1.4c-2-0.1-3.8-1.3-4.7-3.2c-0.2-0.4-0.4-0.6-0.9-0.7c-0.4-0.1-0.8,0-1.2,0.3c-0.9,0.6-2,1-3.2,1
			c-1,0-1.9-0.3-2.7-0.7c-1.9-1.1-2.9-3.1-2.7-5.2c0-0.4-0.1-0.8-0.4-1.1c-0.4-0.4-0.6-0.4-1.1-0.4c-0.2,0-0.4,0-0.4,0
			c-1.9,0-3.7-1.1-4.7-2.7c-1.1-1.9-1-4.2,0.3-5.9c0.3-0.4,0.4-0.7,0.3-1.2c-0.1-0.4-0.4-0.7-0.7-0.9c-1.9-0.9-3.1-2.7-3.2-4.7
			c0-0.7-0.6-1.3-1.4-1.3h-0.1c-0.1,0-0.2,0-0.3,0c-9.4,0-17.7,4.6-22.9,11.6c0.3-0.1,0.5-0.1,0.8-0.1c2.3,0,4.2,1.9,4.2,4.2
			s-1.9,4.2-4.2,4.2c-1.9,0-3.4-1.2-4-2.8c-1.5,3.5-2.4,7.3-2.4,11.3c0,15.6,12.7,28.6,28.3,28.6c9,0,17.1-4.3,22.3-10.9
			C68.6,66.9,67.1,64.8,67.1,62.4z M37.4,64.5c-2,0-3.7-1.7-3.7-3.7c0-2,1.7-3.7,3.7-3.7s3.7,1.7,3.7,3.7
			C41.1,62.8,39.4,64.5,37.4,64.5z M53.7,64.2c-3.9,0-7.1-3.2-7.1-7.1s3.2-7.1,7.1-7.1s7.1,3.2,7.1,7.1S57.6,64.2,53.7,64.2z"/>
		<circle class="st1" cx="41.8" cy="40.7" r="4.4"/>
		<path class="st2" d="M72.5,57c-3,0-5.4,2.4-5.4,5.4c0,2.4,1.5,4.3,3.6,5.1c2.2-2.7,3.9-5.9,4.9-9.5C74.8,57.5,73.7,57,72.5,57z"/>
		<path class="st1" d="M26.5,41.4c2.3,0,4.2-1.9,4.2-4.2c0-2.3-1.9-4.2-4.2-4.2c-0.3,0-0.5,0-0.8,0.1c-1.2,1.7-2.3,3.5-3.2,5.5
			C23,40.2,24.6,41.4,26.5,41.4z"/>
	</g>
	<circle class="st3" cx="60.8" cy="27.4" r="2.8"/>
	<circle class="st3" cx="73.1" cy="32.6" r="4.6"/>
	<circle class="st3" cx="69" cy="19.6" r="1.9"/>
</g>
</svg>
