<?xml version="1.0" encoding="utf-8"?>
<!-- Generator: Adobe Illustrator 21.1.0, SVG Export Plug-In . SVG Version: 6.00 Build 0)  -->
<svg version="1.1" id="图层_1" xmlns="http://www.w3.org/2000/svg" xmlns:xlink="http://www.w3.org/1999/xlink" x="0px" y="0px"
	 width="64px" height="64px" viewBox="0 0 64 64" style="enable-background:new 0 0 64 64;" xml:space="preserve">
<style type="text/css">
	.st0{fill:none;stroke:#ED2B2B;stroke-linecap:round;stroke-linejoin:round;stroke-miterlimit:10;}
</style>
<g>
	<path class="st0" d="M54.7,7.3c-2.8,0-5.2,2-5.7,4.7c-0.5-2.7-2.9-4.7-5.7-4.7h-5.3v7.3c0,3.2,2.6,5.8,5.8,5.8h0.6v1.9
		c0,3-2.5,5.5-5.5,5.5H11.8c-4.3,0-7.7,3.5-7.7,7.7v6.7c0,4.3,3.5,7.7,7.7,7.7h16.1c0.7,3.8,4,6.7,7.9,6.7h0.7V50
		c9.2-0.1,16.6-7.6,16.6-16.8V20.4h1c3.2,0,5.8-2.6,5.8-5.8V7.3H54.7z"/>
	<circle class="st0" cx="25.3" cy="42" r="1.8"/>
</g>
</svg>
