<?xml version="1.0" encoding="utf-8"?>
<!-- Generator: Adobe Illustrator 21.1.0, SVG Export Plug-In . SVG Version: 6.00 Build 0)  -->
<svg version="1.1" id="图层_1" xmlns="http://www.w3.org/2000/svg" xmlns:xlink="http://www.w3.org/1999/xlink" x="0px" y="0px"
	 width="64px" height="64px" viewBox="0 0 64 64" style="enable-background:new 0 0 64 64;" xml:space="preserve">
<style type="text/css">
	.st0{fill:none;stroke:#FFFFFF;stroke-linecap:round;stroke-linejoin:round;stroke-miterlimit:10;}
	.st1{fill:none;stroke:#FFFFFF;stroke-miterlimit:10;}
</style>
<g>
	<g>
		<circle class="st0" cx="10.6" cy="19.6" r="3.7"/>
		<circle class="st0" cx="53.4" cy="19.6" r="3.7"/>
		<circle class="st0" cx="10.6" cy="44.4" r="3.7"/>
		<circle class="st0" cx="53.4" cy="44.4" r="3.7"/>
		<circle class="st0" cx="32" cy="7.3" r="3.7"/>
		<circle class="st0" cx="32" cy="32" r="3.7"/>
		<circle class="st0" cx="32" cy="56.7" r="3.7"/>
	</g>
	<g>
		<line class="st1" x1="32" y1="44.4" x2="14.3" y2="44.4"/>
		<line class="st1" x1="42.7" y1="25.8" x2="51.5" y2="41.2"/>
		<line class="st1" x1="33.9" y1="10.5" x2="42.7" y2="25.8"/>
		<line class="st1" x1="32" y1="44.4" x2="49.7" y2="44.4"/>
		<line class="st1" x1="21.3" y1="25.8" x2="12.4" y2="41.2"/>
		<line class="st1" x1="21.3" y1="25.8" x2="30.1" y2="10.5"/>
		<line class="st1" x1="35.2" y1="9.2" x2="50.2" y2="17.8"/>
		<line class="st1" x1="13.8" y1="17.8" x2="28.8" y2="9.2"/>
		<line class="st1" x1="53.4" y1="23.4" x2="53.4" y2="40.7"/>
		<line class="st1" x1="35.2" y1="54.8" x2="50.2" y2="46.2"/>
		<line class="st1" x1="13.8" y1="46.2" x2="28.8" y2="54.8"/>
		<line class="st1" x1="10.6" y1="23.4" x2="10.6" y2="40.7"/>
		<line class="st1" x1="50.2" y1="21.5" x2="42.7" y2="25.8"/>
		<line class="st1" x1="28.8" y1="33.9" x2="13.8" y2="42.5"/>
		<line class="st1" x1="42.7" y1="25.8" x2="35.2" y2="30.2"/>
		<line class="st1" x1="35.2" y1="33.9" x2="50.2" y2="42.5"/>
		<line class="st1" x1="21.3" y1="25.8" x2="28.8" y2="30.2"/>
		<line class="st1" x1="21.3" y1="25.8" x2="13.8" y2="21.5"/>
		<line class="st1" x1="32" y1="44.4" x2="32" y2="35.7"/>
		<line class="st1" x1="32" y1="44.4" x2="32" y2="53"/>
		<line class="st1" x1="32" y1="11" x2="32" y2="28.3"/>
	</g>
</g>
</svg>
