<?xml version="1.0" encoding="utf-8"?>
<!-- Generator: Adobe Illustrator 21.1.0, SVG Export Plug-In . SVG Version: 6.00 Build 0)  -->
<svg version="1.1" id="图层_1" xmlns="http://www.w3.org/2000/svg" xmlns:xlink="http://www.w3.org/1999/xlink" x="0px" y="0px"
	 width="64px" height="64px" viewBox="0 0 64 64" style="enable-background:new 0 0 64 64;" xml:space="preserve">
<style type="text/css">
	.st0{fill:none;stroke:#FF1E1E;stroke-linecap:round;stroke-linejoin:round;stroke-miterlimit:10;}
</style>
<g>
	<g>
		<polygon class="st0" points="45.2,28.1 45.2,12.9 32,5.2 18.8,12.9 18.8,28.1 32,35.8 		"/>
		<polyline class="st0" points="18.8,12.9 32,20.5 45.2,12.9 		"/>
		<line class="st0" x1="32.1" y1="20.3" x2="32.1" y2="35.3"/>
	</g>
	<g>
		<g>
			<polyline class="st0" points="18.8,28.1 5.6,35.8 5.6,51 18.8,58.8 32,51 32,35.8 			"/>
			<polyline class="st0" points="5.6,35.8 18.8,43.4 32,35.8 			"/>
			<line class="st0" x1="18.9" y1="43.3" x2="18.9" y2="58.2"/>
		</g>
		<g>
			<path class="st0" d="M31.8,35.8"/>
			<polyline class="st0" points="31.8,51 45.1,58.8 58.4,51 58.4,35.8 45.1,28.1 			"/>
			<polyline class="st0" points="31.8,35.8 45.1,43.4 58.4,35.8 			"/>
			<line class="st0" x1="45.2" y1="43.3" x2="45.2" y2="58.2"/>
		</g>
	</g>
</g>
</svg>
