<svg width="70" height="71" xmlns="http://www.w3.org/2000/svg" xmlns:xlink="http://www.w3.org/1999/xlink" xml:space="preserve" overflow="hidden"><defs><clipPath id="clip0"><rect x="192" y="846" width="70" height="71"/></clipPath><clipPath id="clip1"><rect x="192" y="847" width="70" height="70"/></clipPath><clipPath id="clip2"><rect x="192" y="847" width="70" height="70"/></clipPath><clipPath id="clip3"><rect x="192" y="847" width="70" height="70"/></clipPath></defs><g clip-path="url(#clip0)" transform="translate(-192 -846)"><g clip-path="url(#clip1)"><g clip-path="url(#clip2)"><g clip-path="url(#clip3)"><path d="M253.25 903.146 232.833 903.146 232.833 900.229 227.729 900.229 227.729 893.667 247.417 893.667C249.027 893.667 250.333 892.361 250.333 890.75L250.333 883.458C250.331 882.618 249.963 881.819 249.326 881.271 249.963 880.722 250.331 879.924 250.333 879.083L250.333 871.792C250.331 870.951 249.963 870.153 249.326 869.604 249.963 869.056 250.331 868.257 250.333 867.417L250.333 860.125C250.333 858.514 249.027 857.208 247.417 857.208L206.583 857.208C204.973 857.208 203.667 858.514 203.667 860.125L203.667 867.417C203.669 868.257 204.037 869.056 204.674 869.604 204.037 870.153 203.669 870.951 203.667 871.792L203.667 879.083C203.669 879.924 204.037 880.722 204.674 881.271 204.037 881.819 203.669 882.618 203.667 883.458L203.667 890.75C203.667 892.361 204.973 893.667 206.583 893.667L226.271 893.667 226.271 900.229 221.167 900.229 221.167 903.146 200.75 903.146 200.75 904.604 221.167 904.604 221.167 907.521 232.833 907.521 232.833 904.604 253.25 904.604ZM205.125 867.417 205.125 860.125C205.125 859.32 205.778 858.667 206.583 858.667L247.417 858.667C248.222 858.667 248.875 859.32 248.875 860.125L248.875 867.417C248.875 868.222 248.222 868.875 247.417 868.875L206.583 868.875C205.778 868.875 205.125 868.222 205.125 867.417ZM205.125 879.083 205.125 871.792C205.125 870.986 205.778 870.333 206.583 870.333L247.417 870.333C248.222 870.333 248.875 870.986 248.875 871.792L248.875 879.083C248.875 879.889 248.222 880.542 247.417 880.542L206.583 880.542C205.778 880.542 205.125 879.889 205.125 879.083ZM205.125 890.75 205.125 883.458C205.125 882.653 205.778 882 206.583 882L247.417 882C248.222 882 248.875 882.653 248.875 883.458L248.875 890.75C248.875 891.555 248.222 892.208 247.417 892.208L206.583 892.208C205.778 892.208 205.125 891.555 205.125 890.75ZM231.375 906.062 222.625 906.062 222.625 901.688 231.375 901.688Z" fill="#FFFFFF" fill-rule="nonzero" fill-opacity="1"/><path d="M212.417 863.771C212.417 864.576 211.764 865.229 210.958 865.229 210.153 865.229 209.5 864.576 209.5 863.771 209.5 862.965 210.153 862.312 210.958 862.312 211.764 862.312 212.417 862.965 212.417 863.771Z" fill="#FFFFFF" fill-rule="nonzero" fill-opacity="1"/><path d="M219.708 863.771C219.708 864.576 219.055 865.229 218.25 865.229 217.445 865.229 216.792 864.576 216.792 863.771 216.792 862.965 217.445 862.312 218.25 862.312 219.055 862.312 219.708 862.965 219.708 863.771Z" fill="#FFFFFF" fill-rule="nonzero" fill-opacity="1"/><path d="M227 863.771C227 864.576 226.347 865.229 225.542 865.229 224.736 865.229 224.083 864.576 224.083 863.771 224.083 862.965 224.736 862.312 225.542 862.312 226.347 862.312 227 862.965 227 863.771Z" fill="#FFFFFF" fill-rule="nonzero" fill-opacity="1"/><path d="M212.417 875.438C212.417 876.243 211.764 876.896 210.958 876.896 210.153 876.896 209.5 876.243 209.5 875.438 209.5 874.632 210.153 873.979 210.958 873.979 211.764 873.979 212.417 874.632 212.417 875.438Z" fill="#FFFFFF" fill-rule="nonzero" fill-opacity="1"/><path d="M219.708 875.438C219.708 876.243 219.055 876.896 218.25 876.896 217.445 876.896 216.792 876.243 216.792 875.438 216.792 874.632 217.445 873.979 218.25 873.979 219.055 873.979 219.708 874.632 219.708 875.438Z" fill="#FFFFFF" fill-rule="nonzero" fill-opacity="1"/><path d="M227 875.438C227 876.243 226.347 876.896 225.542 876.896 224.736 876.896 224.083 876.243 224.083 875.438 224.083 874.632 224.736 873.979 225.542 873.979 226.347 873.979 227 874.632 227 875.438Z" fill="#FFFFFF" fill-rule="nonzero" fill-opacity="1"/><path d="M212.417 887.104C212.417 887.91 211.764 888.562 210.958 888.562 210.153 888.562 209.5 887.91 209.5 887.104 209.5 886.299 210.153 885.646 210.958 885.646 211.764 885.646 212.417 886.299 212.417 887.104Z" fill="#FFFFFF" fill-rule="nonzero" fill-opacity="1"/><path d="M219.708 887.104C219.708 887.91 219.055 888.562 218.25 888.562 217.445 888.562 216.792 887.91 216.792 887.104 216.792 886.299 217.445 885.646 218.25 885.646 219.055 885.646 219.708 886.299 219.708 887.104Z" fill="#FFFFFF" fill-rule="nonzero" fill-opacity="1"/><path d="M227 887.104C227 887.91 226.347 888.562 225.542 888.562 224.736 888.562 224.083 887.91 224.083 887.104 224.083 886.299 224.736 885.646 225.542 885.646 226.347 885.646 227 886.299 227 887.104Z" fill="#FFFFFF" fill-rule="nonzero" fill-opacity="1"/></g></g></g></g></svg>