<?xml version="1.0" encoding="utf-8"?>
<!-- Generator: Adobe Illustrator 21.1.0, SVG Export Plug-In . SVG Version: 6.00 Build 0)  -->
<svg version="1.1" id="图层_1" xmlns="http://www.w3.org/2000/svg" xmlns:xlink="http://www.w3.org/1999/xlink" x="0px" y="0px"
	 width="30px" height="30px" viewBox="0 0 30 30" style="enable-background:new 0 0 30 30;" xml:space="preserve">
<style type="text/css">
	.st0{fill:#0A66C2;}
	.st1{fill:#FFFFFF;}
</style>
<g>
	<circle class="st0" cx="15" cy="15" r="14.3"/>
</g>
<path class="st1" d="M10.7,22.2H7.3V12h3.4V22.2z M9,10.6L9,10.6c-1.2,0-1.9-0.8-1.9-1.8C7.1,7.8,7.8,7,9,7s1.9,0.8,1.9,1.8
	C10.9,9.8,10.2,10.6,9,10.6z M22.9,22.2h-3.4v-5.5c0-1.4-0.5-2.3-1.7-2.3c-0.9,0-1.5,0.6-1.7,1.2C16,15.9,16,16.2,16,16.5v5.7h-3.4
	c0,0,0-9.3,0-10.2H16v1.4c0.5-0.7,1.3-1.7,3.1-1.7c2.2,0,3.9,1.5,3.9,4.6V22.2z"/>
</svg>
