<svg width="63" height="62" xmlns="http://www.w3.org/2000/svg" xmlns:xlink="http://www.w3.org/1999/xlink" xml:space="preserve" overflow="hidden"><defs><clipPath id="clip0"><rect x="457" y="708" width="63" height="62"/></clipPath><clipPath id="clip1"><rect x="458" y="709" width="61" height="61"/></clipPath><clipPath id="clip2"><rect x="458" y="709" width="61" height="61"/></clipPath><clipPath id="clip3"><rect x="458" y="709" width="61" height="61"/></clipPath></defs><g clip-path="url(#clip0)" transform="translate(-457 -708)"><g clip-path="url(#clip1)"><g clip-path="url(#clip2)"><g clip-path="url(#clip3)"><path d="M503.75 714.083 473.25 714.083C471.848 714.088 470.713 715.223 470.708 716.625L470.708 762.375C470.713 763.777 471.848 764.912 473.25 764.917L503.75 764.917C505.152 764.912 506.287 763.777 506.292 762.375L506.292 716.625C506.287 715.223 505.152 714.088 503.75 714.083ZM505.021 762.375C505.021 763.077 504.452 763.646 503.75 763.646L473.25 763.646C472.548 763.646 471.979 763.077 471.979 762.375L471.979 716.625C471.979 715.923 472.548 715.354 473.25 715.354L503.75 715.354C504.452 715.354 505.021 715.923 505.021 716.625Z" fill="#F1F1F1" fill-rule="nonzero" fill-opacity="1"/><path d="M477.062 731.24 499.938 731.24 499.938 719.802 477.062 719.802ZM478.333 721.073 498.667 721.073 498.667 729.969 478.333 729.969Z" fill="#F1F1F1" fill-rule="nonzero" fill-opacity="1"/><path d="M477.698 735.688 480.24 735.688 480.24 738.229 477.698 738.229Z" fill="#F1F1F1" fill-rule="nonzero" fill-opacity="1"/><path d="M484.052 735.688 486.594 735.688 486.594 738.229 484.052 738.229Z" fill="#F1F1F1" fill-rule="nonzero" fill-opacity="1"/><path d="M490.406 735.688 492.948 735.688 492.948 738.229 490.406 738.229Z" fill="#F1F1F1" fill-rule="nonzero" fill-opacity="1"/><path d="M496.76 735.688 499.302 735.688 499.302 738.229 496.76 738.229Z" fill="#F1F1F1" fill-rule="nonzero" fill-opacity="1"/><path d="M477.698 742.042 480.24 742.042 480.24 744.583 477.698 744.583Z" fill="#F1F1F1" fill-rule="nonzero" fill-opacity="1"/><path d="M484.052 742.042 486.594 742.042 486.594 744.583 484.052 744.583Z" fill="#F1F1F1" fill-rule="nonzero" fill-opacity="1"/><path d="M490.406 742.042 492.948 742.042 492.948 744.583 490.406 744.583Z" fill="#F1F1F1" fill-rule="nonzero" fill-opacity="1"/><path d="M496.76 742.042 499.302 742.042 499.302 744.583 496.76 744.583Z" fill="#F1F1F1" fill-rule="nonzero" fill-opacity="1"/><path d="M477.698 748.396 480.24 748.396 480.24 750.938 477.698 750.938Z" fill="#F1F1F1" fill-rule="nonzero" fill-opacity="1"/><path d="M484.052 748.396 486.594 748.396 486.594 750.938 484.052 750.938Z" fill="#F1F1F1" fill-rule="nonzero" fill-opacity="1"/><path d="M490.406 748.396 492.948 748.396 492.948 750.938 490.406 750.938Z" fill="#F1F1F1" fill-rule="nonzero" fill-opacity="1"/><path d="M496.76 748.396 499.302 748.396 499.302 750.938 496.76 750.938Z" fill="#F1F1F1" fill-rule="nonzero" fill-opacity="1"/><path d="M477.698 754.75 486.594 754.75 486.594 757.292 477.698 757.292Z" fill="#F1F1F1" fill-rule="nonzero" fill-opacity="1"/><path d="M490.406 754.75 492.948 754.75 492.948 757.292 490.406 757.292Z" fill="#F1F1F1" fill-rule="nonzero" fill-opacity="1"/><path d="M496.76 754.75 499.302 754.75 499.302 757.292 496.76 757.292Z" fill="#F1F1F1" fill-rule="nonzero" fill-opacity="1"/></g></g></g></g></svg>