<?xml version="1.0" encoding="UTF-8" standalone="no"?>
<!DOCTYPE svg PUBLIC "-//W3C//DTD SVG 1.1//EN" "http://www.w3.org/Graphics/SVG/1.1/DTD/svg11.dtd">
<svg xmlns:xl="http://www.w3.org/1999/xlink" xmlns:dc="http://purl.org/dc/elements/1.1/" version="1.1" xmlns="http://www.w3.org/2000/svg" viewBox="-1441.6378 -425.19685 64 64" width="64" height="64">
  <defs/>
  <g id="Icons_custom" stroke-opacity="1" stroke-dasharray="none" stroke="none" fill-opacity="1" fill="none">
    <title>Icons custom</title>
    <g id="Icons_custom_Layer_1">
      <title>Layer 1</title>
      <g id="Graphic_21"/>
      <g id="Graphic_22">
        <path d="M -1421.752 -407.92323 C -1421.752 -408.9541 -1420.9226 -409.78346 -1419.8917 -409.78346 L -1412.102 -409.78346 C -1411.4044 -409.78346 -1410.7688 -409.3959 -1410.451 -408.77583 L -1402.4675 -393.37463 C -1402.3125 -393.07234 -1401.9327 -392.94832 -1401.6304 -393.1111 C -1401.3281 -393.27387 -1401.2041 -393.6459 -1401.3669 -393.9482 L -1409.3426 -409.3494 C -1409.8775 -410.3803 -1410.9393 -411.0236 -1412.102 -411.0236 L -1419.8917 -411.0236 C -1421.6047 -411.0236 -1422.9921 -409.6362 -1422.9921 -407.92323 L -1422.9921 -401.10236 C -1422.9921 -400.7613 -1422.713 -400.4823 -1422.372 -400.4823 C -1422.031 -400.4823 -1421.752 -400.7613 -1421.752 -401.10236 Z M -1425.4724 -384.9803 C -1422.0478 -384.9803 -1419.2716 -382.20413 -1419.2716 -378.77953 C -1419.2716 -375.35493 -1422.0478 -372.57874 -1425.4724 -372.57874 C -1428.897 -372.57874 -1431.6732 -375.35493 -1431.6732 -378.77953 C -1431.6732 -382.20413 -1428.897 -384.9803 -1425.4724 -384.9803 Z M -1425.4724 -371.3386 C -1421.3644 -371.3386 -1418.0315 -374.6715 -1418.0315 -378.77953 L -1413.0709 -378.77953 C -1413.0709 -374.6715 -1409.738 -371.3386 -1405.6299 -371.3386 C -1401.5219 -371.3386 -1398.189 -374.6715 -1398.189 -378.77953 C -1398.189 -380.9808 -1399.1501 -382.96506 -1400.6693 -384.32923 L -1400.6693 -388.0807 C -1400.6693 -389.79367 -1402.0567 -391.1811 -1403.7697 -391.1811 L -1412.4508 -391.1811 L -1420.566 -397.66867 C -1421.3334 -398.281 -1422.2945 -398.62204 -1423.2789 -398.62204 L -1427.9527 -398.62204 C -1430.6888 -398.62204 -1432.9134 -396.3975 -1432.9134 -393.6614 L -1432.9134 -380.0197 L -1432.9134 -378.77953 C -1432.9134 -374.6715 -1429.5805 -371.3386 -1425.4724 -371.3386 Z M -1425.4724 -386.22047 C -1428.0613 -386.22047 -1430.34 -384.9028 -1431.6732 -382.8953 L -1431.6732 -393.6614 C -1431.6732 -395.71543 -1430.0068 -397.3819 -1427.9527 -397.3819 L -1423.2712 -397.3819 C -1422.5658 -397.3819 -1421.8837 -397.1416 -1421.3334 -396.6998 L -1413.2259 -390.21223 C -1413.0089 -390.03395 -1412.7298 -389.94094 -1412.4508 -389.94094 L -1403.7697 -389.94094 C -1402.7388 -389.94094 -1401.9094 -389.1116 -1401.9094 -388.0807 L -1401.9094 -385.22834 C -1403.0023 -385.86392 -1404.2735 -386.22047 -1405.6299 -386.22047 C -1409.3194 -386.22047 -1412.381 -383.53863 -1412.9701 -380.0197 L -1418.1323 -380.0197 C -1418.7213 -383.53863 -1421.783 -386.22047 -1425.4724 -386.22047 Z M -1405.6299 -384.9803 C -1402.2053 -384.9803 -1399.4291 -382.20413 -1399.4291 -378.77953 C -1399.4291 -375.35493 -1402.2053 -372.57874 -1405.6299 -372.57874 C -1409.0545 -372.57874 -1411.8307 -375.35493 -1411.8307 -378.77953 C -1411.8307 -382.20413 -1409.0545 -384.9803 -1405.6299 -384.9803 Z M -1394.4685 -410.40354 C -1394.4685 -410.7446 -1394.7475 -411.0236 -1395.0886 -411.0236 C -1395.4296 -411.0236 -1395.7087 -410.7446 -1395.7087 -410.40354 L -1395.7087 -376.9193 C -1395.7087 -376.57825 -1395.4296 -376.2992 -1395.0886 -376.2992 L -1383.9272 -376.2992 C -1383.5861 -376.2992 -1383.307 -376.57825 -1383.307 -376.9193 C -1383.307 -377.26033 -1383.5861 -377.53937 -1383.9272 -377.53937 L -1394.4685 -377.53937 Z" fill="white"/>
      </g>
    </g>
  </g>
</svg>
