<?xml version="1.0" encoding="utf-8"?>
<!-- Generator: Adobe Illustrator 21.1.0, SVG Export Plug-In . SVG Version: 6.00 Build 0)  -->
<svg version="1.1" id="图层_1" xmlns="http://www.w3.org/2000/svg" xmlns:xlink="http://www.w3.org/1999/xlink" x="0px" y="0px"
	 width="100px" height="100px" viewBox="0 0 100 100" style="enable-background:new 0 0 100 100;" xml:space="preserve">
<style type="text/css">
	.st0{fill:#FF1E1E;}
	.st1{clip-path:url(#SVGID_2_);}
	.st2{fill:#FFFFFF;}
</style>
<g>
	<rect class="st0" width="100" height="100"/>
	<g>
		<defs>
			<rect id="SVGID_1_" width="100" height="100"/>
		</defs>
		<clipPath id="SVGID_2_">
			<use xlink:href="#SVGID_1_"  style="overflow:visible;"/>
		</clipPath>
		<g class="st1">
			<path class="st2" d="M16.7,63.3c0.4,0.4,0.9,0.7,1.4,0.9c0.5,0.2,1.1,0.3,1.7,0.3s1.2-0.1,1.7-0.3c0.5-0.2,1-0.5,1.4-0.9
				c0.4-0.4,0.7-0.9,0.9-1.4c0.2-0.5,0.3-1.1,0.3-1.7s-0.1-1.2-0.3-1.7c-0.2-0.5-0.5-1-0.9-1.4c-0.4-0.4-0.9-0.7-1.4-0.9
				c-0.5-0.2-1.1-0.3-1.7-0.3s-1.2,0.1-1.7,0.3c-0.5,0.2-1,0.5-1.4,0.9c-0.4,0.4-0.7,0.9-1,1.4c-0.2,0.5-0.3,1.1-0.3,1.7
				s0.1,1.2,0.3,1.7C16,62.4,16.3,62.9,16.7,63.3z"/>
			<path class="st2" d="M98.6,81.4c-0.6-0.2-1.2-0.4-1.8-0.4s-1.3,0.1-1.8,0.4c-0.6,0.2-1.1,0.6-1.5,1c-0.4,0.4-0.8,0.9-1,1.5
				c-0.1,0.2-0.2,0.5-0.2,0.7V68.3h-7.7v2.4c-1.6-2.1-3.8-3.1-6.6-3.1c-1.5,0-3,0.3-4.3,0.9c-1.3,0.6-2.5,1.4-3.5,2.4
				c-1,1-1.8,2.3-2.3,3.7c-0.5,1.2-0.8,2.6-0.8,4c-0.1-0.1-0.1-0.1-0.2-0.2c-1-1.1-2.6-1.8-4.7-2.3c-0.8-0.2-1.4-0.3-1.8-0.4
				c-0.5-0.1-0.8-0.2-1.1-0.4c-0.2-0.1-0.4-0.3-0.5-0.4c-0.1-0.2-0.1-0.4-0.1-0.6c0-0.5,0.2-0.9,0.7-1.1c0.4-0.3,1-0.4,1.7-0.4
				c1.3,0,2.7,0.4,4.1,1.1l2.6-5c-2.2-0.9-4.6-1.4-7-1.4c-1.5,0-2.8,0.2-4,0.5c-1.2,0.4-2.2,0.9-3.1,1.6c-0.8,0.7-1.5,1.5-1.9,2.5
				c-0.4,1-0.7,2.1-0.7,3.3c0,1.7,0.5,3,1.4,3.9c0.9,0.9,2.6,1.7,5,2.1c0.7,0.1,1.3,0.3,1.7,0.4c0.4,0.1,0.8,0.3,1,0.4
				c0.2,0.2,0.4,0.3,0.4,0.5c0.1,0.2,0.1,0.4,0.1,0.7c0,0.5-0.2,0.9-0.7,1.2c-0.4,0.3-1,0.5-1.7,0.5c-1.9,0-3.9-0.7-6.1-2.2l-2,3.9
				l-7.9-8.5l9-9.9h-9.9l-3.8,4.5l-3.7-4.5h-9.9l8.8,9.9l-9,9.7V68.3h-7.6v12.3c-0.3-0.8-0.7-1.5-1.3-2.2c-1-1.1-2.6-1.8-4.7-2.3
				c-0.8-0.2-1.4-0.3-1.8-0.4c-0.5-0.1-0.8-0.2-1.1-0.4c-0.2-0.1-0.4-0.3-0.5-0.4c-0.1-0.2-0.1-0.4-0.1-0.6c0-0.5,0.2-0.9,0.7-1.1
				c0.4-0.3,1-0.4,1.7-0.4c1.3,0,2.7,0.4,4.1,1.1l2.6-5c-2.2-0.9-4.6-1.4-7-1.4c-1.5,0-2.8,0.2-4,0.5c-1.2,0.4-2.2,0.9-3.1,1.6
				c-0.7,0.6-1.3,1.2-1.7,2v7c0.1,0.2,0.3,0.4,0.5,0.6c0.9,0.9,2.6,1.7,5,2.1c0.7,0.1,1.3,0.3,1.7,0.4c0.4,0.1,0.8,0.3,1,0.4
				c0.2,0.2,0.4,0.3,0.4,0.5c0.1,0.2,0.1,0.4,0.1,0.7c0,0.5-0.2,0.9-0.7,1.2C7.6,84.9,7,85,6.3,85c-1.9,0-3.9-0.7-6.1-2.2L0,83.2
				v6.2c2,0.8,4,1.2,6.1,1.2c1.5,0,2.9-0.2,4.2-0.6c1.3-0.4,2.3-0.9,3.2-1.6c0.9-0.7,1.6-1.5,2.1-2.6c0.2-0.4,0.4-0.8,0.5-1.2v5.2
				h5.8h1.8H32l5.6-6.4l5.5,6.4h10.1c1.6,0.5,3.3,0.8,4.9,0.8c1.5,0,2.9-0.2,4.2-0.6c1.3-0.4,2.3-0.9,3.2-1.6
				c0.9-0.7,1.6-1.5,2.1-2.6c0.2-0.5,0.4-1,0.6-1.6c0.5,1,1.1,2,1.9,2.8c1,1,2.1,1.9,3.4,2.4c1.3,0.6,2.8,0.9,4.3,0.9
				c2.7,0,4.9-0.9,6.7-2.8V100h7.7V86.8c0.1,0.3,0.1,0.5,0.2,0.7c0.2,0.6,0.6,1.1,1,1.5c0.4,0.4,0.9,0.8,1.5,1
				c0.6,0.2,1.2,0.4,1.8,0.4s1.3-0.1,1.8-0.4c0.5-0.2,1-0.5,1.4-0.9v-6.9C99.6,81.9,99.2,81.6,98.6,81.4z M84.4,81
				c-0.3,0.6-0.6,1.1-1.1,1.6c-0.4,0.4-1,0.8-1.6,1.1c-0.6,0.3-1.2,0.4-1.9,0.4c-0.7,0-1.4-0.1-2-0.4c-0.6-0.3-1.1-0.6-1.6-1.1
				c-0.4-0.4-0.8-1-1-1.6c-0.3-0.6-0.4-1.3-0.4-2c0-0.7,0.1-1.3,0.4-1.9c0.3-0.6,0.6-1.1,1.1-1.5c0.4-0.4,1-0.8,1.6-1.1
				c0.6-0.3,1.2-0.4,1.9-0.4c0.7,0,1.3,0.1,1.9,0.4c0.6,0.3,1.1,0.6,1.6,1.1c0.4,0.4,0.8,1,1.1,1.6c0.3,0.6,0.4,1.2,0.4,1.9
				C84.8,79.7,84.6,80.4,84.4,81z"/>
		</g>
	</g>
</g>
</svg>
