<?xml version="1.0" encoding="utf-8"?>
<!-- Generator: Adobe Illustrator 21.1.0, SVG Export Plug-In . SVG Version: 6.00 Build 0)  -->
<svg version="1.1" id="图层_1" xmlns="http://www.w3.org/2000/svg" xmlns:xlink="http://www.w3.org/1999/xlink" x="0px" y="0px"
	 width="100px" height="100px" viewBox="0 0 100 100" style="enable-background:new 0 0 100 100;" xml:space="preserve">
<style type="text/css">
	.st0{fill:#FFFFFF;}
	.st1{fill:#ED2B2B;}
</style>
<rect y="0" class="st0" width="100" height="100"/>
<path class="st1" d="M0,0v71.6c0.5-0.8,1.1-1.5,1.9-2.1c0.9-0.6,1.9-1.1,3-1.4s2.3-0.5,3.5-0.5c2.6,0,5,0.5,7,1.4l-2.5,4.8
	c-0.6-0.3-1.2-0.6-2-0.7c-0.7-0.2-1.4-0.3-2.1-0.3c-0.6,0-1.1,0.1-1.6,0.4c-0.5,0.2-0.7,0.6-0.7,1.1c0,0.6,0.3,1,0.8,1.2
	c0.6,0.2,1.3,0.4,2.2,0.6l0.4,0.1c1.9,0.4,3.4,1.1,4.5,2.1c0.9,0.8,1.4,1.9,1.6,3.2v-13h7.5v20.1L33,78.1l-8.6-9.7H34l3.8,4.4
	l3.8-4.4h9.7l-8.7,9.7l7.7,8.3l2-3.8c0.8,0.6,1.8,1.1,2.9,1.5c1.1,0.4,2.1,0.6,3,0.6c0.6,0,1.1-0.1,1.6-0.4s0.7-0.7,0.7-1.2
	c0-0.6-0.3-1-0.8-1.2c-0.5-0.3-1.4-0.5-2.5-0.8c-0.6-0.1-1.1-0.2-1.4-0.3c-0.7-0.2-1.3-0.4-1.9-0.7c-0.5-0.2-1-0.6-1.4-1
	s-0.8-0.9-1-1.6s-0.4-1.4-0.4-2.4c0-1.2,0.2-2.3,0.7-3.3s1.2-1.7,2.1-2.3c0.9-0.6,1.9-1.1,3-1.4s2.3-0.5,3.5-0.5c2.6,0,5,0.5,7,1.4
	l-2.5,4.8c-0.6-0.3-1.2-0.6-2-0.7s-1.4-0.3-2.1-0.3c-0.6,0-1.1,0.1-1.6,0.4c-0.5,0.2-0.7,0.6-0.7,1.1c0,0.6,0.3,1,0.8,1.2
	c0.6,0.2,1.3,0.4,2.1,0.6l0.4,0.1c1.9,0.4,3.4,1.1,4.5,2.1c0.5,0.5,0.9,1,1.2,1.7c0-0.3,0-0.6,0-0.8c0-1.5,0.3-2.9,0.8-4.3
	s1.3-2.6,2.2-3.6c1-1.1,2.1-1.9,3.4-2.5s2.7-0.9,4.2-0.9c1.3,0,2.6,0.3,3.7,0.8c1.2,0.5,2,1.3,2.7,2.3h0.1v-2.4h7.5v15.5
	c0.2-0.7,0.6-1.3,1.1-1.8c0.9-0.9,2.1-1.4,3.4-1.4s2.4,0.4,3.3,1.3V0H0L0,0z M19.7,56.1c1.2,0,2.1,0.4,3,1.2s1.2,1.8,1.2,3
	s-0.4,2.1-1.2,3c-0.8,0.8-1.8,1.2-3,1.2c-1.1,0-2.2-0.4-3-1.2c-0.8-0.8-1.2-1.8-1.2-3s0.4-2.1,1.2-3C17.6,56.5,18.5,56.1,19.7,56.1
	L19.7,56.1z M80.1,74.2c-1.5,0-2.7,0.5-3.5,1.4c-0.9,0.9-1.3,2-1.3,3.4s0.4,2.5,1.3,3.4s2.1,1.3,3.5,1.3c1.5,0,2.7-0.4,3.5-1.3
	c0.9-0.9,1.3-2,1.3-3.4s-0.4-2.5-1.3-3.4S81.5,74.2,80.1,74.2L80.1,74.2z M0,78.5v3.9c0.1,0.1,0.2,0.2,0.2,0.2
	C1,83.2,2,83.7,3.1,84.1s2.1,0.6,3,0.6c0.6,0,1.1-0.1,1.6-0.4s0.7-0.7,0.7-1.2c0-0.6-0.3-1-0.8-1.2c-0.5-0.3-1.4-0.5-2.5-0.8
	C4.5,81,4,80.9,3.7,80.8c-0.7-0.2-1.3-0.4-1.9-0.7c-0.5-0.2-1-0.6-1.4-1C0.3,79,0.2,78.8,0,78.5L0,78.5z M67.9,82.5
	c0,1.3-0.3,2.4-0.8,3.4c-0.6,1-1.3,1.8-2.3,2.4c-0.9,0.6-2,1.1-3.2,1.4s-2.4,0.5-3.7,0.5c-1.5,0-3-0.2-4.5-0.6
	c-0.2-0.1-0.3-0.1-0.5-0.2l0.1,0.1h-9.9l-5.4-6.3l-5.4,6.3H16v-6.2c-0.1,0.9-0.4,1.8-0.8,2.5c-0.6,1-1.3,1.8-2.3,2.4
	c-0.9,0.6-2,1.1-3.2,1.4S7.3,90.1,6,90.1c-1.5,0-3-0.2-4.4-0.6c-0.6,0-1.1-0.2-1.6-0.4V100h84.6V87.6c-0.7,0.9-1.7,1.6-2.9,2
	c-1.2,0.5-2.4,0.7-3.7,0.7c-1.5,0-3-0.3-4.3-0.9S71.3,88,70.3,87c-0.9-1-1.7-2.2-2.2-3.6C68.1,83.1,68,82.8,67.9,82.5L67.9,82.5z
	 M92.1,87.2V100h7.9V89.1c-0.9,0.9-2,1.3-3.3,1.3c-1.4,0-2.5-0.5-3.4-1.4C92.7,88.5,92.4,87.8,92.1,87.2L92.1,87.2z"/>
<g>
	<path class="st0" d="M30.4,52.1h3.1c0.8,0,1.5,0.2,2,0.6c0.5,0.4,0.7,0.9,0.7,1.6c0,0.9-0.5,1.5-1.6,1.8c0.5,0.1,1,0.3,1.3,0.7
		s0.5,0.8,0.5,1.3c0,0.6-0.2,1.1-0.7,1.6c-0.5,0.4-1.1,0.6-2,0.6h-3.3C30.4,60.3,30.4,52.1,30.4,52.1z M31.8,53.1v2.4h1.7
		c0.4,0,0.8-0.1,1-0.3s0.4-0.5,0.4-0.9s-0.1-0.7-0.4-0.9c-0.2-0.2-0.6-0.3-1-0.3H31.8z M31.8,59.2h1.8c0.5,0,0.8-0.1,1.1-0.3
		s0.4-0.5,0.4-0.9s-0.1-0.7-0.4-1c-0.3-0.2-0.6-0.4-1.1-0.4h-1.8V59.2z"/>
	<path class="st0" d="M39.6,60.2L37,53.8h1.5l1.8,5l1.9-5h1.4l-4,9.6h-1.4L39.6,60.2z"/>
	<path class="st0" d="M52.8,52.1v1h-3.2v2.5h2.8v1h-2.8v2.6h3.2v1h-4.5V52h4.5V52.1z"/>
	<path class="st0" d="M55.8,60.3h-1.3v-8.7h1.3v5.1l2.4-2.8H60l-3,3.3l3,3.2h-1.8l-2.4-2.8V60.3z"/>
	<path class="st0" d="M62.5,52.1c0,0.2-0.1,0.4-0.2,0.6c-0.2,0.2-0.4,0.2-0.6,0.2c-0.2,0-0.4-0.1-0.6-0.2c-0.2-0.2-0.2-0.4-0.2-0.6
		c0-0.2,0.1-0.4,0.2-0.6c0.2-0.2,0.4-0.2,0.6-0.2c0.2,0,0.4,0.1,0.6,0.2C62.4,51.6,62.5,51.8,62.5,52.1z M61,60.3v-6.5h1.3v6.5H61z"
		/>
	<path class="st0" d="M65.4,53.8v1c0.4-0.8,1.1-1.1,2.1-1.1c0.7,0,1.3,0.2,1.8,0.7s0.7,1.2,0.7,2v3.8h-1.3v-3.6c0-0.6-0.1-1-0.4-1.3
		s-0.7-0.5-1.2-0.5s-0.9,0.2-1.2,0.5c-0.3,0.3-0.4,0.8-0.4,1.3v3.6h-1.3v-6.5L65.4,53.8L65.4,53.8z"/>
	<path class="st0" d="M74.6,60.4c-0.9,0-1.7-0.3-2.3-0.9c-0.6-0.6-0.9-1.4-0.9-2.4s0.3-1.8,0.9-2.4c0.6-0.6,1.4-0.9,2.4-0.9
		c0.9,0,1.7,0.3,2.4,0.9c0.6,0.6,0.9,1.4,0.9,2.4s-0.3,1.8-1,2.4C76.3,60.1,75.5,60.4,74.6,60.4z M76,58.7c0.4-0.4,0.6-0.9,0.6-1.6
		c0-0.7-0.2-1.2-0.6-1.6c-0.4-0.4-0.8-0.6-1.4-0.6c-0.5,0-1,0.2-1.4,0.6c-0.4,0.4-0.6,0.9-0.6,1.6c0,0.7,0.2,1.3,0.5,1.6
		c0.4,0.4,0.8,0.6,1.4,0.6S75.6,59.1,76,58.7z"/>
	<path class="st0" d="M82.9,53.7c0.9,0,1.6,0.3,2.2,0.9C85.7,55.2,86,56,86,57s-0.3,1.8-0.9,2.4s-1.3,0.9-2.2,0.9
		c-0.5,0-1-0.1-1.3-0.4c-0.4-0.2-0.7-0.6-0.9-1v4.3h-1.3v-9.6h1.3V55c0.2-0.4,0.5-0.7,0.9-0.9C81.9,53.8,82.4,53.7,82.9,53.7z
		 M84,58.6c0.4-0.4,0.6-0.9,0.6-1.6c0-0.7-0.2-1.2-0.6-1.6c-0.4-0.4-0.9-0.6-1.4-0.6s-1,0.2-1.4,0.6c-0.4,0.4-0.6,0.9-0.6,1.6
		c0,0.7,0.2,1.2,0.6,1.6c0.4,0.4,0.9,0.6,1.4,0.6C83.1,59.2,83.6,59,84,58.6z"/>
	<path class="st0" d="M87,55.7c0-0.6,0.2-1,0.7-1.4s1.1-0.6,1.8-0.6c0.8,0,1.4,0.2,1.8,0.6c0.4,0.4,0.7,0.9,0.7,1.5h-1.4
		c0-0.3-0.1-0.6-0.3-0.8c-0.2-0.2-0.5-0.3-0.8-0.3c-0.4,0-0.6,0.1-0.8,0.2c-0.2,0.2-0.3,0.4-0.3,0.6c0,0.3,0.1,0.5,0.4,0.6
		s0.6,0.3,0.9,0.3c0.4,0.1,0.7,0.2,1.1,0.3s0.7,0.3,0.9,0.6c0.3,0.3,0.4,0.6,0.4,1.1c0,0.6-0.2,1-0.7,1.4s-1.1,0.5-1.8,0.5
		s-1.4-0.2-1.8-0.5C87.3,59.5,87,59,87,58.3h1.4c0,0.3,0.1,0.6,0.4,0.8c0.2,0.2,0.5,0.3,0.9,0.3s0.7-0.1,0.9-0.2
		c0.2-0.2,0.3-0.4,0.3-0.6c0-0.3-0.1-0.5-0.4-0.6s-0.6-0.3-0.9-0.3c-0.4-0.1-0.7-0.2-1.1-0.3s-0.7-0.3-0.9-0.5
		C87.1,56.4,87,56.1,87,55.7z"/>
</g>
</svg>
