<?xml version="1.0" encoding="utf-8"?>
<!-- Generator: Adobe Illustrator 21.1.0, SVG Export Plug-In . SVG Version: 6.00 Build 0)  -->
<svg version="1.1" id="图层_1" xmlns="http://www.w3.org/2000/svg" xmlns:xlink="http://www.w3.org/1999/xlink" x="0px" y="0px"
	 width="30px" height="30px" viewBox="0 0 30 30" style="enable-background:new 0 0 30 30;" xml:space="preserve">
<style type="text/css">
	.st0{fill:#FFFFFF;}
	.st1{fill:#E60023;}
</style>
<path class="st0" d="M15,0.7C7.1,0.7,0.7,7.1,0.7,15S7.1,29.3,15,29.3S29.3,22.9,29.3,15S22.9,0.7,15,0.7z"/>
<g id="g62" transform="translate(123.0422,246.9921)">
	<path id="path64" class="st1" d="M-108-246.3c-7.9,0-14.3,6.4-14.3,14.3c0,6.1,3.8,11.3,9.1,13.4c-0.1-1.1-0.2-2.9,0-4.1
		c0.3-1.1,1.7-7.1,1.7-7.1s-0.4-0.9-0.4-2.1c0-2,1.2-3.5,2.6-3.5c1.2,0,1.8,0.9,1.8,2c0,1.2-0.8,3.1-1.2,4.8
		c-0.3,1.4,0.7,2.6,2.1,2.6c2.5,0,4.5-2.7,4.5-6.6c0-3.4-2.5-5.8-6-5.8c-4.1,0-6.5,3.1-6.5,6.2c0,1.2,0.5,2.6,1.1,3.3
		c0.1,0.1,0.1,0.3,0.1,0.4c-0.1,0.5-0.4,1.4-0.4,1.6c-0.1,0.3-0.2,0.3-0.5,0.2c-1.8-0.8-2.9-3.5-2.9-5.6c0-4.5,3.3-8.7,9.5-8.7
		c5,0,8.8,3.5,8.8,8.3c0,4.9-3.1,8.9-7.4,8.9c-1.5,0-2.8-0.8-3.3-1.6c0,0-0.7,2.7-0.9,3.4c-0.3,1.2-1.2,2.8-1.8,3.8
		c1.3,0.4,2.8,0.6,4.2,0.6c7.9,0,14.3-6.4,14.3-14.3S-100.1-246.3-108-246.3"/>
</g>
</svg>
