<?xml version="1.0" encoding="utf-8"?>
<!-- Generator: Adobe Illustrator 21.1.0, SVG Export Plug-In . SVG Version: 6.00 Build 0)  -->
<svg version="1.1" id="图层_1" xmlns="http://www.w3.org/2000/svg" xmlns:xlink="http://www.w3.org/1999/xlink" x="0px" y="0px"
	 width="96px" height="96px" viewBox="0 0 96 96" style="enable-background:new 0 0 96 96;" xml:space="preserve">
<style type="text/css">
	.st0{opacity:0.2;}
	.st1{fill:#ED2B2B;}
	.st2{opacity:0.2;fill:#ED2B2B;}
</style>
<g>
	<g class="st0">
		<path class="st1" d="M44.2,59.5l0.2,16.9c0,1.6,1.7,2.6,3.2,1.9l13.3-7.1c1.5-0.8,2.4-2.5,2.3-4.2l-0.9-17.2l-3.8-3.8l-3.8-3.8
			l-8.4-8.4l-17.2-0.9c-1.7-0.1-3.4,0.8-4.2,2.3l-7.1,13.3c-0.8,1.4,0.3,3.1,1.9,3.2l16.9,0.2C40.7,51.9,44.1,55.3,44.2,59.5z"/>
	</g>
	<path class="st2" d="M37.1,58.9c-4-4-10.4-4-14.3,0c-2.4,2.4-3.9,6.2-4.3,11.2c-0.3,3.7,0,6.6,0.1,6.8c0,0.2,0.1,0.3,0.2,0.4
		c0.1,0.1,0.3,0.2,0.4,0.2c0.1,0,3.1,0.4,6.8,0.1c5-0.4,8.8-1.9,11.2-4.3C41.1,69.2,41.1,62.8,37.1,58.9z"/>
	<path class="st1" d="M33.3,62.7c-1.6-1.6-4.1-1.6-5.7,0c-1,1-1.5,2.5-1.7,4.5c-0.1,1.5,0,2.6,0,2.7c0,0.1,0,0.1,0.1,0.2
		c0,0,0.1,0.1,0.2,0.1c0,0,1.2,0.2,2.7,0c2-0.2,3.5-0.8,4.5-1.7C34.9,66.8,34.9,64.2,33.3,62.7z"/>
	<g>
		<path class="st1" d="M77.3,18.7c-0.5-0.5-18-5.5-30.8,7.3c-7.4,7.4-8.9,14.9-13.9,25.8l3.9,0c4.2,0.1,7.6,3.5,7.7,7.7l0,3.9
			c10.9-5.1,18.4-6.5,25.8-13.9C82.7,36.8,77.8,19.2,77.3,18.7z M57.2,38.8c-2.3-2.3-2.3-6,0-8.2c2.3-2.3,6-2.3,8.2,0
			c2.3,2.3,2.3,6,0,8.2C63.2,41,59.5,41,57.2,38.8z"/>
	</g>
</g>
</svg>
