<?xml version="1.0" encoding="UTF-8" standalone="no"?>
<!DOCTYPE svg PUBLIC "-//W3C//DTD SVG 1.1//EN" "http://www.w3.org/Graphics/SVG/1.1/DTD/svg11.dtd">
<svg xmlns:xl="http://www.w3.org/1999/xlink" xmlns:dc="http://purl.org/dc/elements/1.1/" version="1.1" xmlns="http://www.w3.org/2000/svg" viewBox="-1446.2244 -249.44882 67.87407 68.031496" width="67.87407" height="68.031496">
  <defs/>
  <g id="Icons_custom" stroke-opacity="1" stroke-dasharray="none" stroke="none" fill-opacity="1" fill="none">
    <title>Icons custom</title>
    <g id="Icons_custom_Layer_1">
      <title>Layer 1</title>
      <g id="Group_20">
        <g id="Graphic_19">
          <rect x="-1446.2244" y="-249.44882" width="9579207e-13" height="9579209e-13" fill="white"/>
        </g>
        <g id="Group_17">
          <title>948360</title>
          <g id="Graphic_18">
            <path d="M -1409.3498 -232.55532 C -1406.8047 -232.55532 -1404.7398 -230.49043 -1404.7398 -227.94533 L -1404.7398 -215.652 C -1404.7398 -215.11417 -1404.8359 -214.59555 -1404.9991 -214.11534 L -1403.3952 -214.11534 C -1403.2704 -214.60515 -1403.2031 -215.12378 -1403.2031 -215.652 L -1403.2031 -227.94533 C -1403.2031 -231.3356 -1405.9595 -234.092 -1409.3498 -234.092 L -1413.9598 -234.092 L -1420.1065 -234.092 L -1424.7165 -234.092 C -1428.1067 -234.092 -1430.8631 -231.3356 -1430.8631 -227.94533 L -1430.8631 -215.652 C -1430.8631 -215.12378 -1430.7959 -214.60515 -1430.671 -214.11534 L -1429.0671 -214.11534 C -1429.24 -214.59555 -1429.3265 -215.11417 -1429.3265 -215.652 L -1429.3265 -227.94533 C -1429.3265 -230.49043 -1427.2616 -232.55532 -1424.7165 -232.55532 L -1421.6431 -232.55532 L -1421.6431 -226.40866 C -1421.6431 -224.70873 -1420.2697 -223.33533 -1418.5698 -223.33533 L -1415.4965 -223.33533 C -1413.7965 -223.33533 -1412.4231 -224.70873 -1412.4231 -226.40866 L -1412.4231 -232.55532 Z M -1420.1065 -232.55532 L -1413.9598 -232.55532 L -1413.9598 -226.40866 C -1413.9598 -225.5635 -1414.6513 -224.872 -1415.4965 -224.872 L -1418.5698 -224.872 C -1419.415 -224.872 -1420.1065 -225.5635 -1420.1065 -226.40866 Z M -1415.1123 -186.59942 C -1414.0078 -185.55257 -1412.5192 -184.9187 -1410.8865 -184.9187 L -1395.5198 -184.9187 C -1392.1295 -184.9187 -1389.3732 -187.6751 -1389.3732 -191.06536 L -1389.3732 -204.89535 C -1389.3732 -208.28561 -1392.1295 -211.042 -1395.5198 -211.042 L -1398.5931 -211.042 L -1400.1298 -211.042 L -1406.2765 -211.042 L -1407.8131 -211.042 L -1410.8865 -211.042 C -1412.8265 -211.042 -1414.5649 -210.13922 -1415.6886 -208.737 C -1415.362 -208.28561 -1415.0739 -207.7958 -1414.8338 -207.28678 C -1414.027 -208.62176 -1412.5576 -209.51495 -1410.8865 -209.51495 L -1407.8131 -209.51495 L -1407.8131 -203.36829 C -1407.8131 -201.66835 -1406.4397 -200.29495 -1404.7398 -200.29495 L -1401.6665 -200.29495 C -1399.9665 -200.29495 -1398.5931 -201.66835 -1398.5931 -203.36829 L -1398.5931 -209.50534 L -1395.5198 -209.50534 C -1392.9747 -209.50534 -1390.9098 -207.44045 -1390.9098 -204.89535 L -1390.9098 -191.06536 C -1390.9098 -188.52026 -1392.9747 -186.45536 -1395.5198 -186.45536 L -1410.8865 -186.45536 C -1412.3175 -186.45536 -1413.5948 -187.10844 -1414.44 -188.12649 C -1414.6225 -187.59826 -1414.8434 -187.07963 -1415.1123 -186.59942 Z M -1406.2765 -209.50534 L -1400.1298 -209.50534 L -1400.1298 -203.35868 C -1400.1298 -202.51352 -1400.8213 -201.82202 -1401.6665 -201.82202 L -1404.7398 -201.82202 C -1405.585 -201.82202 -1406.2765 -202.51352 -1406.2765 -203.35868 Z M -1418.5698 -204.89535 L -1418.5698 -191.06536 C -1418.5698 -188.52026 -1420.6347 -186.45536 -1423.1798 -186.45536 L -1438.5464 -186.45536 C -1441.0916 -186.45536 -1443.1564 -188.52026 -1443.1564 -191.06536 L -1443.1564 -204.89535 C -1443.1564 -207.44045 -1441.0916 -209.50534 -1438.5464 -209.50534 L -1435.4731 -209.50534 L -1435.4731 -203.35868 C -1435.4731 -201.65875 -1434.0997 -200.28535 -1432.3998 -200.28535 L -1429.3265 -200.28535 C -1427.6265 -200.28535 -1426.2531 -201.65875 -1426.2531 -203.35868 L -1426.2531 -209.50534 L -1423.1798 -209.50534 C -1420.6347 -209.50534 -1418.5698 -207.44045 -1418.5698 -204.89535 Z M -1433.9365 -203.35868 L -1433.9365 -209.50534 L -1427.7898 -209.50534 L -1427.7898 -203.35868 C -1427.7898 -202.51352 -1428.4813 -201.82202 -1429.3265 -201.82202 L -1432.3998 -201.82202 C -1433.245 -201.82202 -1433.9365 -202.51352 -1433.9365 -203.35868 Z M -1423.1798 -211.042 L -1426.2531 -211.042 L -1427.7898 -211.042 L -1433.9365 -211.042 L -1435.4731 -211.042 L -1438.5464 -211.042 C -1441.9367 -211.042 -1444.6931 -208.28561 -1444.6931 -204.89535 L -1444.6931 -191.06536 C -1444.6931 -187.6751 -1441.9367 -184.9187 -1438.5464 -184.9187 L -1423.1798 -184.9187 C -1419.7895 -184.9187 -1417.0331 -187.6751 -1417.0331 -191.06536 L -1417.0331 -204.89535 C -1417.0331 -208.28561 -1419.7895 -211.042 -1423.1798 -211.042 Z" fill="white"/>
            <path d="M -1409.3498 -232.55532 C -1406.8047 -232.55532 -1404.7398 -230.49043 -1404.7398 -227.94533 L -1404.7398 -215.652 C -1404.7398 -215.11417 -1404.8359 -214.59555 -1404.9991 -214.11534 L -1403.3952 -214.11534 C -1403.2704 -214.60515 -1403.2031 -215.12378 -1403.2031 -215.652 L -1403.2031 -227.94533 C -1403.2031 -231.3356 -1405.9595 -234.092 -1409.3498 -234.092 L -1413.9598 -234.092 L -1420.1065 -234.092 L -1424.7165 -234.092 C -1428.1067 -234.092 -1430.8631 -231.3356 -1430.8631 -227.94533 L -1430.8631 -215.652 C -1430.8631 -215.12378 -1430.7959 -214.60515 -1430.671 -214.11534 L -1429.0671 -214.11534 C -1429.24 -214.59555 -1429.3265 -215.11417 -1429.3265 -215.652 L -1429.3265 -227.94533 C -1429.3265 -230.49043 -1427.2616 -232.55532 -1424.7165 -232.55532 L -1421.6431 -232.55532 L -1421.6431 -226.40866 C -1421.6431 -224.70873 -1420.2697 -223.33533 -1418.5698 -223.33533 L -1415.4965 -223.33533 C -1413.7965 -223.33533 -1412.4231 -224.70873 -1412.4231 -226.40866 L -1412.4231 -232.55532 Z M -1420.1065 -232.55532 L -1413.9598 -232.55532 L -1413.9598 -226.40866 C -1413.9598 -225.5635 -1414.6513 -224.872 -1415.4965 -224.872 L -1418.5698 -224.872 C -1419.415 -224.872 -1420.1065 -225.5635 -1420.1065 -226.40866 Z M -1415.1123 -186.59942 C -1414.0078 -185.55257 -1412.5192 -184.9187 -1410.8865 -184.9187 L -1395.5198 -184.9187 C -1392.1295 -184.9187 -1389.3732 -187.6751 -1389.3732 -191.06536 L -1389.3732 -204.89535 C -1389.3732 -208.28561 -1392.1295 -211.042 -1395.5198 -211.042 L -1398.5931 -211.042 L -1400.1298 -211.042 L -1406.2765 -211.042 L -1407.8131 -211.042 L -1410.8865 -211.042 C -1412.8265 -211.042 -1414.5649 -210.13922 -1415.6886 -208.737 C -1415.362 -208.28561 -1415.0739 -207.7958 -1414.8338 -207.28678 C -1414.027 -208.62176 -1412.5576 -209.51495 -1410.8865 -209.51495 L -1407.8131 -209.51495 L -1407.8131 -203.36829 C -1407.8131 -201.66835 -1406.4397 -200.29495 -1404.7398 -200.29495 L -1401.6665 -200.29495 C -1399.9665 -200.29495 -1398.5931 -201.66835 -1398.5931 -203.36829 L -1398.5931 -209.50534 L -1395.5198 -209.50534 C -1392.9747 -209.50534 -1390.9098 -207.44045 -1390.9098 -204.89535 L -1390.9098 -191.06536 C -1390.9098 -188.52026 -1392.9747 -186.45536 -1395.5198 -186.45536 L -1410.8865 -186.45536 C -1412.3175 -186.45536 -1413.5948 -187.10844 -1414.44 -188.12649 C -1414.6225 -187.59826 -1414.8434 -187.07963 -1415.1123 -186.59942 Z M -1406.2765 -209.50534 L -1400.1298 -209.50534 L -1400.1298 -203.35868 C -1400.1298 -202.51352 -1400.8213 -201.82202 -1401.6665 -201.82202 L -1404.7398 -201.82202 C -1405.585 -201.82202 -1406.2765 -202.51352 -1406.2765 -203.35868 Z M -1418.5698 -204.89535 L -1418.5698 -191.06536 C -1418.5698 -188.52026 -1420.6347 -186.45536 -1423.1798 -186.45536 L -1438.5464 -186.45536 C -1441.0916 -186.45536 -1443.1564 -188.52026 -1443.1564 -191.06536 L -1443.1564 -204.89535 C -1443.1564 -207.44045 -1441.0916 -209.50534 -1438.5464 -209.50534 L -1435.4731 -209.50534 L -1435.4731 -203.35868 C -1435.4731 -201.65875 -1434.0997 -200.28535 -1432.3998 -200.28535 L -1429.3265 -200.28535 C -1427.6265 -200.28535 -1426.2531 -201.65875 -1426.2531 -203.35868 L -1426.2531 -209.50534 L -1423.1798 -209.50534 C -1420.6347 -209.50534 -1418.5698 -207.44045 -1418.5698 -204.89535 Z M -1433.9365 -203.35868 L -1433.9365 -209.50534 L -1427.7898 -209.50534 L -1427.7898 -203.35868 C -1427.7898 -202.51352 -1428.4813 -201.82202 -1429.3265 -201.82202 L -1432.3998 -201.82202 C -1433.245 -201.82202 -1433.9365 -202.51352 -1433.9365 -203.35868 Z M -1423.1798 -211.042 L -1426.2531 -211.042 L -1427.7898 -211.042 L -1433.9365 -211.042 L -1435.4731 -211.042 L -1438.5464 -211.042 C -1441.9367 -211.042 -1444.6931 -208.28561 -1444.6931 -204.89535 L -1444.6931 -191.06536 C -1444.6931 -187.6751 -1441.9367 -184.9187 -1438.5464 -184.9187 L -1423.1798 -184.9187 C -1419.7895 -184.9187 -1417.0331 -187.6751 -1417.0331 -191.06536 L -1417.0331 -204.89535 C -1417.0331 -208.28561 -1419.7895 -211.042 -1423.1798 -211.042 Z" stroke="white" stroke-linecap="round" stroke-linejoin="round" stroke-width="0"/>
          </g>
        </g>
        <g id="Group_15">
          <title>264883</title>
          <g id="Graphic_16">
            <path d="M -1388.7276 -228.04298 C -1388.7276 -235.0323 -1394.3936 -240.69825 -1401.3829 -240.69825 C -1408.3722 -240.69825 -1414.0382 -235.0323 -1414.0382 -228.04298 C -1414.0382 -221.05368 -1408.3722 -215.38772 -1401.3829 -215.38772 C -1394.3936 -215.38772 -1388.7276 -221.05368 -1388.7276 -228.04298 Z M -1392.0694 -217.98469 C -1394.5148 -215.71728 -1397.784 -214.33312 -1401.3829 -214.33312 C -1408.9563 -214.33312 -1415.0928 -220.4696 -1415.0928 -228.04298 C -1415.0928 -235.61637 -1408.9563 -241.75285 -1401.3829 -241.75285 C -1393.8095 -241.75285 -1387.673 -235.61637 -1387.673 -228.04298 C -1387.673 -224.44414 -1389.0572 -221.17487 -1391.3246 -218.7295 L -1381.5036 -208.9085 C -1381.2993 -208.70416 -1381.2993 -208.368 -1381.5036 -208.16367 C -1381.708 -207.95934 -1382.0441 -207.95934 -1382.2484 -208.16367 Z" fill="none"/>
            <path d="M -1388.7276 -228.04298 C -1388.7276 -235.0323 -1394.3936 -240.69825 -1401.3829 -240.69825 C -1408.3722 -240.69825 -1414.0382 -235.0323 -1414.0382 -228.04298 C -1414.0382 -221.05368 -1408.3722 -215.38772 -1401.3829 -215.38772 C -1394.3936 -215.38772 -1388.7276 -221.05368 -1388.7276 -228.04298 Z M -1392.0694 -217.98469 C -1394.5148 -215.71728 -1397.784 -214.33312 -1401.3829 -214.33312 C -1408.9563 -214.33312 -1415.0928 -220.4696 -1415.0928 -228.04298 C -1415.0928 -235.61637 -1408.9563 -241.75285 -1401.3829 -241.75285 C -1393.8095 -241.75285 -1387.673 -235.61637 -1387.673 -228.04298 C -1387.673 -224.44414 -1389.0572 -221.17487 -1391.3246 -218.7295 L -1381.5036 -208.9085 C -1381.2993 -208.70416 -1381.2993 -208.368 -1381.5036 -208.16367 C -1381.708 -207.95934 -1382.0441 -207.95934 -1382.2484 -208.16367 Z" stroke="red" stroke-linecap="round" stroke-linejoin="round" stroke-width="6"/>
          </g>
        </g>
        <g id="Group_13">
          <title>108134</title>
          <g id="Graphic_14">
            <path d="M -1388.68 -227.77933 C -1388.68 -234.76864 -1394.346 -240.4346 -1401.3353 -240.4346 C -1408.3246 -240.4346 -1413.9906 -234.76864 -1413.9906 -227.77933 C -1413.9906 -220.79002 -1408.3246 -215.12407 -1401.3353 -215.12407 C -1394.346 -215.12407 -1388.68 -220.79002 -1388.68 -227.77933 Z M -1392.0218 -217.72104 C -1394.4672 -215.45363 -1397.7365 -214.06946 -1401.3353 -214.06946 C -1408.9087 -214.06946 -1415.0452 -220.20595 -1415.0452 -227.77933 C -1415.0452 -235.35272 -1408.9087 -241.4892 -1401.3353 -241.4892 C -1393.762 -241.4892 -1387.6254 -235.35272 -1387.6254 -227.77933 C -1387.6254 -224.1805 -1389.0096 -220.91122 -1391.277 -218.46585 L -1381.456 -208.64484 C -1381.2517 -208.4405 -1381.2517 -208.10435 -1381.456 -207.90002 C -1381.6603 -207.6957 -1381.9965 -207.6957 -1382.2008 -207.90002 Z" fill="white"/>
            <path d="M -1388.68 -227.77933 C -1388.68 -234.76864 -1394.346 -240.4346 -1401.3353 -240.4346 C -1408.3246 -240.4346 -1413.9906 -234.76864 -1413.9906 -227.77933 C -1413.9906 -220.79002 -1408.3246 -215.12407 -1401.3353 -215.12407 C -1394.346 -215.12407 -1388.68 -220.79002 -1388.68 -227.77933 Z M -1392.0218 -217.72104 C -1394.4672 -215.45363 -1397.7365 -214.06946 -1401.3353 -214.06946 C -1408.9087 -214.06946 -1415.0452 -220.20595 -1415.0452 -227.77933 C -1415.0452 -235.35272 -1408.9087 -241.4892 -1401.3353 -241.4892 C -1393.762 -241.4892 -1387.6254 -235.35272 -1387.6254 -227.77933 C -1387.6254 -224.1805 -1389.0096 -220.91122 -1391.277 -218.46585 L -1381.456 -208.64484 C -1381.2517 -208.4405 -1381.2517 -208.10435 -1381.456 -207.90002 C -1381.6603 -207.6957 -1381.9965 -207.6957 -1382.2008 -207.90002 Z" stroke="white" stroke-linecap="round" stroke-linejoin="round" stroke-width=".25"/>
          </g>
        </g>
      </g>
      <g id="Graphic_21"/>
    </g>
  </g>
</svg>
