<?xml version="1.0" encoding="utf-8"?>
<!-- Generator: Adobe Illustrator 21.1.0, SVG Export Plug-In . SVG Version: 6.00 Build 0)  -->
<svg version="1.1" id="图层_1" xmlns="http://www.w3.org/2000/svg" xmlns:xlink="http://www.w3.org/1999/xlink" x="0px" y="0px"
	 width="64px" height="64px" viewBox="0 0 64 64" style="enable-background:new 0 0 64 64;" xml:space="preserve">
<style type="text/css">
	.st0{fill:none;stroke:#ED2B2B;stroke-linecap:round;stroke-linejoin:round;stroke-miterlimit:10;}
</style>
<g>
	<g>
		<g>
			<path class="st0" d="M14.7,16.6h-3.9c-0.2,0-0.4,0.2-0.4,0.4v0.9H8.8c-0.2,0-0.4,0.2-0.4,0.4v1.3c0,0.2,0.2,0.4,0.4,0.4h1.7v0.9
				c0,0.2,0.2,0.4,0.4,0.4h3.9c0.2,0,0.4-0.2,0.4-0.4V17C15.1,16.8,14.9,16.6,14.7,16.6z"/>
			<path class="st0" d="M14.7,25.3h-3.9c-0.2,0-0.4,0.2-0.4,0.4v0.9H8.8c-0.2,0-0.4,0.2-0.4,0.4v1.3c0,0.2,0.2,0.4,0.4,0.4h1.7v0.9
				c0,0.2,0.2,0.4,0.4,0.4h3.9c0.2,0,0.4-0.2,0.4-0.4v-3.9C15.1,25.5,14.9,25.3,14.7,25.3z"/>
			<path class="st0" d="M14.7,34h-3.9c-0.2,0-0.4,0.2-0.4,0.4v0.9H8.8c-0.2,0-0.4,0.2-0.4,0.4V37c0,0.2,0.2,0.4,0.4,0.4h1.7v0.9
				c0,0.2,0.2,0.4,0.4,0.4h3.9c0.2,0,0.4-0.2,0.4-0.4v-3.9C15.1,34.2,14.9,34,14.7,34z"/>
			<path class="st0" d="M14.7,42.7h-3.9c-0.2,0-0.4,0.2-0.4,0.4V44H8.8c-0.2,0-0.4,0.2-0.4,0.4v1.3c0,0.2,0.2,0.4,0.4,0.4h1.7V47
				c0,0.2,0.2,0.4,0.4,0.4h3.9c0.2,0,0.4-0.2,0.4-0.4v-3.9C15.1,42.9,14.9,42.7,14.7,42.7z"/>
		</g>
		<g>
			<path class="st0" d="M49.3,47.4h3.9c0.2,0,0.4-0.2,0.4-0.4v-0.9h1.7c0.2,0,0.4-0.2,0.4-0.4v-1.3c0-0.2-0.2-0.4-0.4-0.4h-1.7v-0.9
				c0-0.2-0.2-0.4-0.4-0.4h-3.9c-0.2,0-0.4,0.2-0.4,0.4V47C48.9,47.2,49.1,47.4,49.3,47.4z"/>
			<path class="st0" d="M49.3,38.7h3.9c0.2,0,0.4-0.2,0.4-0.4v-0.9h1.7c0.2,0,0.4-0.2,0.4-0.4v-1.3c0-0.2-0.2-0.4-0.4-0.4h-1.7v-0.9
				c0-0.2-0.2-0.4-0.4-0.4h-3.9c-0.2,0-0.4,0.2-0.4,0.4v3.9C48.9,38.5,49.1,38.7,49.3,38.7z"/>
			<path class="st0" d="M49.3,30h3.9c0.2,0,0.4-0.2,0.4-0.4v-0.9h1.7c0.2,0,0.4-0.2,0.4-0.4V27c0-0.2-0.2-0.4-0.4-0.4h-1.7v-0.9
				c0-0.2-0.2-0.4-0.4-0.4h-3.9c-0.2,0-0.4,0.2-0.4,0.4v3.9C48.9,29.8,49.1,30,49.3,30z"/>
			<path class="st0" d="M49.3,21.3h3.9c0.2,0,0.4-0.2,0.4-0.4V20h1.7c0.2,0,0.4-0.2,0.4-0.4v-1.3c0-0.2-0.2-0.4-0.4-0.4h-1.7V17
				c0-0.2-0.2-0.4-0.4-0.4h-3.9c-0.2,0-0.4,0.2-0.4,0.4v3.9C48.9,21.1,49.1,21.3,49.3,21.3z"/>
		</g>
		<path class="st0" d="M42.5,55.6H21.5c-2.4,0-4.3-1.9-4.3-4.3V12.7c0-2.4,1.9-4.3,4.3-4.3h20.9c2.4,0,4.3,1.9,4.3,4.3v38.7
			C46.7,53.7,44.8,55.6,42.5,55.6z"/>
	</g>
	<path class="st0" d="M39.7,50.1H24.3c-1.3,0-2.3-1-2.3-2.3V16.2c0-1.3,1-2.3,2.3-2.3h15.4c1.3,0,2.3,1,2.3,2.3v31.6
		C42,49,40.9,50.1,39.7,50.1z"/>
</g>
</svg>
