<?xml version="1.0" encoding="utf-8"?>
<!-- Generator: Adobe Illustrator 21.1.0, SVG Export Plug-In . SVG Version: 6.00 Build 0)  -->
<svg version="1.1" id="图层_1" xmlns="http://www.w3.org/2000/svg" xmlns:xlink="http://www.w3.org/1999/xlink" x="0px" y="0px"
	 width="30px" height="30px" viewBox="0 0 30 30" style="enable-background:new 0 0 30 30;" xml:space="preserve">
<style type="text/css">
	.st0{fill:#1D9BF0;}
	.st1{fill:#FFFFFF;}
</style>
<path class="st0" d="M15,0.7C7.1,0.7,0.7,7.1,0.7,15S7.1,29.3,15,29.3S29.3,22.9,29.3,15S22.9,0.7,15,0.7z"/>
<path class="st1" d="M21.7,12.2c0,0.1,0,0.3,0,0.4c0,4.5-3.5,9.8-9.8,9.8h0h0c-1.9,0-3.8-0.6-5.3-1.5c0.3,0,0.5,0,0.8,0
	c1.6,0,3.1-0.6,4.3-1.5c-1.5,0-2.8-1-3.2-2.4c0.2,0,0.4,0.1,0.6,0.1c0.3,0,0.6,0,0.9-0.1c-1.6-0.3-2.8-1.7-2.8-3.4c0,0,0,0,0,0
	c0.5,0.3,1,0.4,1.6,0.4c-0.9-0.6-1.5-1.7-1.5-2.9c0-0.6,0.2-1.2,0.5-1.7c1.7,2.1,4.2,3.5,7.1,3.6c-0.1-0.3-0.1-0.5-0.1-0.8
	c0-1.9,1.5-3.4,3.4-3.4c1,0,1.9,0.4,2.5,1.1c0.8-0.2,1.5-0.4,2.2-0.8c-0.3,0.8-0.8,1.5-1.5,1.9c0.7-0.1,1.4-0.3,2-0.5
	C22.9,11.1,22.3,11.7,21.7,12.2z"/>
</svg>
