<?xml version="1.0" encoding="utf-8"?>
<!-- Generator: Adobe Illustrator 21.1.0, SVG Export Plug-In . SVG Version: 6.00 Build 0)  -->
<svg version="1.1" id="图层_1" xmlns="http://www.w3.org/2000/svg" xmlns:xlink="http://www.w3.org/1999/xlink" x="0px" y="0px"
	 width="64px" height="64px" viewBox="0 0 64 64" style="enable-background:new 0 0 64 64;" xml:space="preserve">
<style type="text/css">
	.st0{fill:none;stroke:#ED2B2B;stroke-linecap:round;stroke-linejoin:round;stroke-miterlimit:10;}
</style>
<g>
	<path class="st0" d="M16.3,17.6l2.1,0.8c1.5,0.5,3.1,0.4,4.5-0.3l0.8-0.4c1-0.5,2.2-0.6,3.3-0.2l14.5,5c-0.1,0.9-0.5,1.7-1.2,2.2
		c-0.9,0.5-2.1,0.5-3,0.1l-6.4-2.1c-0.2-0.1-0.4,0-0.6,0.1c-0.2,0.1-0.3,0.3-0.4,0.5c-0.6,2.1-2,3.9-3.9,5c-1.8,1-4.1,1.1-6.8,0.1
		 M10.4,35.1L4,33l6-17.4l6.2,2.1l0.1,0.1l0,0L10.4,35.1z"/>
	<path class="st0" d="M28,35.1l-11.9,5.7c-1.1,0.5-2.5,0.1-3.1-1l0,0c-0.6-1.1-0.2-2.6,1-3.2c0,0,0,0,0,0l7.1-3.7 M31.3,38.7
		l-13.5,6.6c-1.2,0.6-2.6,0.1-3.2-1.1l0,0c-0.6-1.2-0.1-2.6,1.1-3.2c0,0,0,0,0,0 M33.6,42.9l-10.8,5.4c-1.2,0.6-2.6,0.1-3.2-1.1l0,0
		c-0.6-1.2-0.2-2.6,1-3.3c0,0,0,0,0,0 M54,35.1l-4.1,3.4c-2.4,2.2-5.2,4.1-8.1,5.5l-12.6,6.5c-1.2,0.6-2.6,0.2-3.3-1l0,0
		c-0.7-1.2-0.2-2.7,1-3.3c0,0,0.1,0,0.1,0 M54,35.1l-8.1-16.5l6-2.9L60,32.2L54,35.1z"/>
</g>
</svg>
