<?xml version="1.0" encoding="utf-8"?>
<!-- Generator: Adobe Illustrator 21.1.0, SVG Export Plug-In . SVG Version: 6.00 Build 0)  -->
<svg version="1.1" id="图层_1" xmlns="http://www.w3.org/2000/svg" xmlns:xlink="http://www.w3.org/1999/xlink" x="0px" y="0px"
	 width="64px" height="64px" viewBox="0 0 64 64" style="enable-background:new 0 0 64 64;" xml:space="preserve">
<style type="text/css">
	.st0{fill:none;stroke:#ED2B2B;stroke-linecap:round;stroke-linejoin:round;stroke-miterlimit:10;}
</style>
<g>
	<g>
		<g>
			<path class="st0" d="M34.8,50.1H9c-1.2,0-2.1-1-2.1-2.1V25.5c0-1.2,1-2.1,2.1-2.1h32.7c1.2,0,2.1,1,2.1,2.1v3.4"/>
			<g>
				<path class="st0" d="M13.6,23.2v-6c0-6.4,5.2-11.7,11.7-11.7s11.7,5.2,11.7,11.7v6"/>
			</g>
			<path class="st0" d="M29.2,35.6c0-2.1-1.7-3.8-3.8-3.8s-3.8,1.7-3.8,3.8c0,1.4,0.7,2.6,1.8,3.2v2.9c0,1.2,1,2,2,2l0,0
				c1.2,0,2-1,2-2v-2.9C28.5,38.2,29.2,36.9,29.2,35.6z"/>
		</g>
	</g>
	<g>
		<polyline class="st0" points="42.8,43.6 45.6,46.6 51.9,40.2 		"/>
		<path class="st0" d="M36.3,35.2v9c0,2.5,0.7,5,2.1,7.2c1.6,2.5,5.9,5.4,8.4,7c2.5-1.6,6.7-4.5,8.4-7c1.3-2.2,2.1-4.7,2.1-7.2v-9
			l-10.4-4.6L36.3,35.2z"/>
	</g>
</g>
</svg>
