<?xml version="1.0" encoding="utf-8"?>
<!-- Generator: Adobe Illustrator 21.1.0, SVG Export Plug-In . SVG Version: 6.00 Build 0)  -->
<svg version="1.1" id="图层_1" xmlns="http://www.w3.org/2000/svg" xmlns:xlink="http://www.w3.org/1999/xlink" x="0px" y="0px"
	 width="64px" height="64px" viewBox="0 0 64 64" style="enable-background:new 0 0 64 64;" xml:space="preserve">
<style type="text/css">
	.st0{fill:none;stroke:#FFFFFF;stroke-linecap:round;stroke-linejoin:round;stroke-miterlimit:10;}
</style>
<g>
	<g>
		<polyline class="st0" points="53,48.9 46.7,48.9 46.7,38.8 42.1,38.8 		"/>
		<polyline class="st0" points="29.2,54.8 29.2,38.8 24.9,38.8 		"/>
		<polyline class="st0" points="38.5,54.8 38.5,38.8 34.1,38.8 		"/>
	</g>
	<circle class="st0" cx="12.4" cy="49" r="2.5"/>
	<circle class="st0" cx="55.4" cy="49" r="2.5"/>
	<circle class="st0" cx="29.3" cy="57.3" r="2.5"/>
	<circle class="st0" cx="38.5" cy="57.3" r="2.5"/>
	<path class="st0" d="M27.2,15.4c0.5,1.1,0.8,2.4,0.8,3.7c0,4.9-4,8.9-8.9,8.9"/>
	<path class="st0" d="M51.2,38.8c5.4,0,9.9-4.4,9.9-9.9c0-5.1-3.9-9.3-8.9-9.8C51.5,10.8,44.5,4.2,36,4.2c-5.4,0-10.2,2.7-13.2,6.7
		c-1.1-0.5-2.3-0.8-3.6-0.8c-4.9,0-8.9,4-8.9,8.9c0,0.1,0,0.2,0,0.3c-4.2,1.1-7.4,5-7.4,9.5c0,5.4,4.4,9.9,9.9,9.9h8.2v10.1h-6"/>
</g>
</svg>
