<?xml version="1.0" encoding="utf-8"?>
<!-- Generator: Adobe Illustrator 21.1.0, SVG Export Plug-In . SVG Version: 6.00 Build 0)  -->
<svg version="1.1" id="图层_1" xmlns="http://www.w3.org/2000/svg" xmlns:xlink="http://www.w3.org/1999/xlink" x="0px" y="0px"
	 width="64px" height="64px" viewBox="0 0 64 64" style="enable-background:new 0 0 64 64;" xml:space="preserve">
<style type="text/css">
	.st0{fill:none;stroke:#ED2B2B;stroke-linecap:round;stroke-linejoin:round;stroke-miterlimit:10;}
</style>
<g>
	<g>
		<path class="st0" d="M33.7,23.6v-5.4c0-1-0.8-1.7-1.7-1.7c-1,0-1.7,0.8-1.7,1.7"/>
		<path class="st0" d="M37.1,23.6v-4.3c0-1-0.8-1.7-1.7-1.7s-1.7,0.8-1.7,1.7"/>
		<path class="st0" d="M30.2,23.6V12.4c0-1-0.8-1.7-1.7-1.7c-1,0-1.7,0.8-1.7,1.7v14.4l-4-2c-0.4-0.2-0.8-0.3-1.3-0.3
			c-0.9,0-1.6,0.7-1.6,1.6v0c0,0.4,0.2,0.8,0.5,1.2l7.4,7.4c1.6,1.6,3.7,2.4,5.9,2.4l0,0c3.8,0,6.9-3.1,6.9-6.9v-9.8
			c0-1-0.8-1.7-1.7-1.7c-1,0-1.7,0.8-1.7,1.7"/>
	</g>
	<g>
		<g>
			<g>
				<polyline class="st0" points="37.1,14 57.4,14 57.4,48.7 6.6,48.7 6.6,14 23.4,14 				"/>
				<g>
					<line class="st0" x1="23.4" y1="53" x2="23.4" y2="49.5"/>
					<line class="st0" x1="40.6" y1="49.5" x2="40.6" y2="53"/>
				</g>
				<line class="st0" x1="45.2" y1="53.3" x2="18.8" y2="53.3"/>
				<line class="st0" x1="6.6" y1="43.4" x2="57.4" y2="43.4"/>
			</g>
		</g>
	</g>
</g>
</svg>
