<?xml version="1.0" encoding="UTF-8" standalone="no"?>
<!DOCTYPE svg PUBLIC "-//W3C//DTD SVG 1.1//EN" "http://www.w3.org/Graphics/SVG/1.1/DTD/svg11.dtd">
<svg xmlns:xl="http://www.w3.org/1999/xlink" xmlns:dc="http://purl.org/dc/elements/1.1/" version="1.1" xmlns="http://www.w3.org/2000/svg" viewBox="-1574.8661 -151.87402 64 64" width="64" height="64">
  <defs/>
  <g id="Icons_custom" stroke-opacity="1" stroke-dasharray="none" stroke="none" fill-opacity="1" fill="none">
    <title>Icons custom</title>
    <g id="Icons_custom_Layer_1">
      <title>Layer 1</title>
      <g id="Graphic_39"/>
      <g id="Group_45">
        <g id="Group_42">
          <title>561558</title>
          <g id="Graphic_43">
            <path d="M -1525.0748 -136.7527 L -1522.7565 -132.44409 L -1518.0752 -133.8455 C -1517.1657 -134.12132 -1516.316 -133.27152 -1516.5917 -132.36209 L -1517.9932 -127.6733 L -1513.6845 -125.355 C -1512.8497 -124.90774 -1512.8497 -123.70759 -1513.6845 -123.25287 L -1517.9932 -120.93457 L -1516.5843 -116.24579 C -1516.3085 -115.33636 -1517.1583 -114.48656 -1518.0677 -114.76237 L -1523.2187 -116.30542 C -1523.5317 -116.40233 -1523.7106 -116.73032 -1523.6212 -117.05086 C -1523.5317 -117.37139 -1523.1963 -117.54284 -1522.8758 -117.45339 L -1517.7323 -115.90289 L -1519.2753 -121.05384 C -1519.3573 -121.3222 -1519.238 -121.61292 -1518.9846 -121.7471 L -1514.251 -124.30394 L -1518.9846 -126.85332 C -1519.2306 -126.9875 -1519.3573 -127.27822 -1519.2753 -127.54658 L -1517.7323 -132.70499 L -1522.8832 -131.16194 C -1523.1516 -131.07994 -1523.4423 -131.19921 -1523.5765 -131.45266 L -1526.1259 -136.18617 L -1528.6752 -131.45266 C -1528.8094 -131.20666 -1529.1001 -131.07994 -1529.3685 -131.16194 L -1534.5269 -132.70499 L -1532.9839 -127.55403 C -1532.887 -127.24095 -1533.0659 -126.9055 -1533.3864 -126.8086 C -1533.707 -126.71169 -1534.035 -126.8906 -1534.1318 -127.21113 L -1535.6749 -132.36209 C -1535.9507 -133.27152 -1535.1009 -134.12132 -1534.1915 -133.8455 L -1529.4952 -132.44409 L -1527.177 -136.7527 C -1526.7297 -137.58759 -1525.5295 -137.58759 -1525.0748 -136.7527 Z M -1526.029 -120.84512 C -1524.7211 -120.78519 -1523.4862 -121.44879 -1522.8143 -122.57246 C -1522.1425 -123.69614 -1522.1425 -125.0981 -1522.8143 -126.22177 C -1523.4862 -127.34545 -1524.7211 -128.00904 -1526.029 -127.94911 C -1527.3368 -128.00904 -1528.5717 -127.34545 -1529.2436 -126.22177 C -1529.9154 -125.0981 -1529.9154 -123.69614 -1529.2436 -122.57246 C -1528.5717 -121.44879 -1527.3368 -120.78519 -1526.029 -120.84512 Z M -1521.288 -124.40084 C -1521.288 -122.70573 -1522.1923 -121.13938 -1523.6603 -120.29182 C -1525.1283 -119.44426 -1526.937 -119.44426 -1528.405 -120.29182 C -1529.873 -121.13938 -1530.7774 -122.70573 -1530.7774 -124.40084 C -1530.7774 -126.09596 -1529.873 -127.66231 -1528.405 -128.50987 C -1526.937 -129.35743 -1525.1283 -129.35743 -1523.6603 -128.50987 C -1522.1923 -127.66231 -1521.288 -126.09596 -1521.288 -124.40084 Z M -1543.2634 -130.08106 C -1543.0398 -130.27487 -1542.7118 -130.27487 -1542.4882 -130.08106 L -1525.194 -115.17236 C -1524.948 -114.95618 -1524.9182 -114.58347 -1525.1344 -114.33002 C -1525.3506 -114.07657 -1525.7233 -114.05421 -1525.9768 -114.27038 L -1529.7561 -117.52793 L -1529.7561 -103.38703 C -1529.7561 -101.08364 -1531.6272 -99.2126 -1533.9306 -99.2126 L -1551.821 -99.2126 C -1554.1244 -99.2126 -1555.9954 -101.08364 -1555.9954 -103.38703 L -1555.9954 -117.52793 L -1559.7822 -114.26293 C -1560.0282 -114.04675 -1560.4084 -114.07657 -1560.6246 -114.32256 C -1560.8408 -114.56856 -1560.811 -114.94873 -1560.565 -115.1649 L -1543.2709 -130.0736 Z M -1554.8027 -118.55663 L -1554.8027 -103.38703 C -1554.8027 -101.73962 -1553.4684 -100.40529 -1551.821 -100.40529 L -1533.9306 -100.40529 C -1532.2831 -100.40529 -1530.9488 -101.73962 -1530.9488 -103.38703 L -1530.9488 -118.55663 L -1542.8758 -128.83618 Z M -1538.105 -115.31399 L -1538.105 -109.35051 C -1538.105 -108.35908 -1538.9026 -107.56147 -1539.894 -107.56147 L -1545.8575 -107.56147 C -1546.849 -107.56147 -1547.6466 -108.35908 -1547.6466 -109.35051 L -1547.6466 -115.31399 C -1547.6466 -116.30542 -1546.849 -117.10304 -1545.8575 -117.10304 L -1539.894 -117.10304 C -1538.9026 -117.10304 -1538.105 -116.30542 -1538.105 -115.31399 Z M -1539.894 -115.91034 L -1545.8575 -115.91034 C -1546.1855 -115.91034 -1546.4539 -115.64198 -1546.4539 -115.31399 L -1546.4539 -109.35051 C -1546.4539 -109.02252 -1546.1855 -108.75416 -1545.8575 -108.75416 L -1539.894 -108.75416 C -1539.566 -108.75416 -1539.2977 -109.02252 -1539.2977 -109.35051 L -1539.2977 -115.31399 C -1539.2977 -115.64198 -1539.566 -115.91034 -1539.894 -115.91034 Z" fill="white"/>
          </g>
        </g>
        <g id="Group_40">
          <title>888528</title>
          <g id="Graphic_41">
            <path d="M -1566.0412 -130.7909 C -1566.0412 -127.17643 -1563.111 -124.24617 -1559.4965 -124.24617 C -1559.3031 -124.24617 -1559.1023 -124.2536 -1558.909 -124.26848 C -1560.2179 -122.79592 -1562.1292 -121.86627 -1564.2563 -121.86627 C -1568.198 -121.86627 -1571.396 -125.06426 -1571.396 -129.00598 C -1571.396 -132.94769 -1568.198 -136.14569 -1564.2563 -136.14569 C -1563.944 -136.14569 -1563.639 -136.12338 -1563.3415 -136.08619 C -1564.9777 -134.89624 -1566.0412 -132.97 -1566.0412 -130.7909 Z M -1561.5938 -136.90428 C -1562.4267 -137.17946 -1563.3266 -137.33564 -1564.2563 -137.33564 C -1568.8599 -137.33564 -1572.586 -133.6096 -1572.586 -129.00598 C -1572.586 -124.40235 -1568.8599 -120.67631 -1564.2563 -120.67631 C -1561.1847 -120.67631 -1558.5073 -122.33481 -1557.057 -124.8114 C -1556.767 -125.30969 -1557.3917 -125.8303 -1557.9421 -125.66667 C -1558.433 -125.51793 -1558.9536 -125.43612 -1559.489 -125.43612 C -1562.449 -125.43612 -1564.8438 -127.8309 -1564.8438 -130.7909 C -1564.8438 -132.96257 -1563.5497 -134.8293 -1561.6979 -135.6697 C -1561.1698 -135.9077 -1561.0434 -136.71835 -1561.5863 -136.89684 Z M -1542.4504 -130.05462 C -1542.6735 -130.24799 -1543.0008 -130.24799 -1543.2239 -130.05462 L -1560.4782 -115.18023 C -1560.7236 -114.96455 -1560.7534 -114.59269 -1560.5377 -114.33982 C -1560.322 -114.08696 -1559.9501 -114.06465 -1559.6973 -114.28032 L -1555.9266 -117.53038 L -1555.9266 -103.42202 C -1555.9266 -101.12392 -1554.0599 -99.25718 -1551.7618 -99.25718 L -1533.9125 -99.25718 C -1531.6144 -99.25718 -1529.7477 -101.12392 -1529.7477 -103.42202 L -1529.7477 -117.53038 L -1525.9696 -114.27289 C -1525.7242 -114.05721 -1525.3449 -114.08696 -1525.1292 -114.33238 C -1524.9135 -114.57781 -1524.9432 -114.95711 -1525.1887 -115.17279 L -1542.443 -130.04718 Z M -1530.9376 -118.55671 L -1530.9376 -103.42202 C -1530.9376 -101.7784 -1532.2689 -100.44714 -1533.9125 -100.44714 L -1551.7618 -100.44714 C -1553.4054 -100.44714 -1554.7367 -101.7784 -1554.7367 -103.42202 L -1554.7367 -118.55671 L -1542.8371 -128.81261 Z M -1547.597 -115.32153 L -1547.597 -109.37177 C -1547.597 -108.38263 -1546.8012 -107.58685 -1545.812 -107.58685 L -1539.8623 -107.58685 C -1538.8731 -107.58685 -1538.0773 -108.38263 -1538.0773 -109.37177 L -1538.0773 -115.32153 C -1538.0773 -116.31068 -1538.8731 -117.10646 -1539.8623 -117.10646 L -1545.812 -117.10646 C -1546.8012 -117.10646 -1547.597 -116.31068 -1547.597 -115.32153 Z M -1545.812 -115.91651 L -1539.8623 -115.91651 C -1539.535 -115.91651 -1539.2673 -115.64877 -1539.2673 -115.32153 L -1539.2673 -109.37177 C -1539.2673 -109.04454 -1539.535 -108.7768 -1539.8623 -108.7768 L -1545.812 -108.7768 C -1546.1393 -108.7768 -1546.407 -109.04454 -1546.407 -109.37177 L -1546.407 -115.32153 C -1546.407 -115.64877 -1546.1393 -115.91651 -1545.812 -115.91651 Z M -1553.5467 -137.33564 C -1553.874 -137.33564 -1554.1417 -137.0679 -1554.1417 -136.74066 L -1554.1417 -133.1708 L -1557.7115 -133.1708 C -1558.0388 -133.1708 -1558.3065 -132.90307 -1558.3065 -132.57583 C -1558.3065 -132.2486 -1558.0388 -131.98086 -1557.7115 -131.98086 L -1554.1417 -131.98086 L -1554.1417 -128.411 C -1554.1417 -128.08376 -1553.874 -127.81603 -1553.5467 -127.81603 C -1553.2195 -127.81603 -1552.9517 -128.08376 -1552.9517 -128.411 L -1552.9517 -131.98086 L -1549.3819 -131.98086 C -1549.0546 -131.98086 -1548.7869 -132.2486 -1548.7869 -132.57583 C -1548.7869 -132.90307 -1549.0546 -133.1708 -1549.3819 -133.1708 L -1552.9517 -133.1708 L -1552.9517 -136.74066 C -1552.9517 -137.0679 -1553.2195 -137.33564 -1553.5467 -137.33564 Z M -1565.4462 -113.5366 C -1565.7735 -113.5366 -1566.0412 -113.26887 -1566.0412 -112.94163 L -1566.0412 -109.37177 L -1569.611 -109.37177 C -1569.9383 -109.37177 -1570.206 -109.10403 -1570.206 -108.7768 C -1570.206 -108.44956 -1569.9383 -108.18182 -1569.611 -108.18182 L -1566.0412 -108.18182 L -1566.0412 -104.61197 C -1566.0412 -104.28473 -1565.7735 -104.01699 -1565.4462 -104.01699 C -1565.119 -104.01699 -1564.8513 -104.28473 -1564.8513 -104.61197 L -1564.8513 -108.18182 L -1561.2814 -108.18182 C -1560.9542 -108.18182 -1560.6864 -108.44956 -1560.6864 -108.7768 C -1560.6864 -109.10403 -1560.9542 -109.37177 -1561.2814 -109.37177 L -1564.8513 -109.37177 L -1564.8513 -112.94163 C -1564.8513 -113.26887 -1565.119 -113.5366 -1565.4462 -113.5366 Z" fill="white"/>
          </g>
        </g>
      </g>
    </g>
  </g>
</svg>
