<?xml version="1.0" encoding="utf-8"?>
<!-- Generator: Adobe Illustrator 21.1.0, SVG Export Plug-In . SVG Version: 6.00 Build 0)  -->
<svg version="1.1" id="图层_1" xmlns="http://www.w3.org/2000/svg" xmlns:xlink="http://www.w3.org/1999/xlink" x="0px" y="0px"
	 width="64px" height="64px" viewBox="0 0 64 64" style="enable-background:new 0 0 64 64;" xml:space="preserve">
<style type="text/css">
	.st0{fill:none;stroke:#FFFFFF;stroke-linecap:round;stroke-linejoin:round;stroke-miterlimit:10;}
</style>
<g>
	<polyline class="st0" points="48.6,51.2 42.3,51.2 42.3,41 	"/>
	<line class="st0" x1="31.8" y1="57.1" x2="31.8" y2="38.5"/>
	<circle class="st0" cx="13" cy="51.2" r="2.5"/>
	<circle class="st0" cx="51" cy="51.2" r="2.5"/>
	<circle class="st0" cx="32" cy="59.5" r="2.5"/>
	<path class="st0" d="M21.6,41v10.1h-6"/>
	<g>
		<path class="st0" d="M46.3,41c0.2-1.4,0.2-2.7,0-4.1l3.4-2.6l-2-4.9l-4.2,0.6c-0.8-1.1-1.8-2.1-2.9-2.9l0.6-4.2l-4.9-2l-2.6,3.4
			c-1.4-0.2-2.7-0.2-4.1,0L27.1,21l-4.9,2l0.6,4.2c-1.1,0.8-2.1,1.8-2.9,2.9l-4.2-0.6l-2,4.9l3.4,2.6c-0.2,1.4-0.2,2.7,0,4.1h-3.4
			h-2.3c-5.4,0-9.9-4.4-9.9-9.9c0-4.6,3.1-8.4,7.4-9.5c0-0.1,0-0.2,0-0.3c0-4.9,4-8.9,8.9-8.9c1.3,0,2.5,0.3,3.6,0.8
			c3-4.1,7.8-6.7,13.2-6.7c8.5,0,15.5,6.6,16.3,14.9c5,0.5,8.9,4.7,8.9,9.8c0,5.4-4.4,9.9-9.9,9.9H46.3z"/>
		<path class="st0" d="M37.7,41c0.4-0.9,0.6-1.8,0.6-2.8c0-3.7-3-6.7-6.7-6.7s-6.7,3-6.7,6.7c0,1,0.2,2,0.6,2.8"/>
	</g>
	<path class="st0" d="M55.5,23c1.7-1.1,4.6-3.1,5.7-4.8c0.9-1.5,1.4-3.2,1.4-4.9V4.8L54.1,2l0,0H54l0,0l-8.3,2.8v5.5"/>
	<polyline class="st0" points="51.4,11.9 53.3,13.9 57.6,9.6 	"/>
</g>
</svg>
