<?xml version="1.0" encoding="utf-8"?>
<!-- Generator: Adobe Illustrator 21.1.0, SVG Export Plug-In . SVG Version: 6.00 Build 0)  -->
<svg version="1.1" id="图层_1" xmlns="http://www.w3.org/2000/svg" xmlns:xlink="http://www.w3.org/1999/xlink" x="0px" y="0px"
	 width="96px" height="96px" viewBox="0 0 96 96" style="enable-background:new 0 0 96 96;" xml:space="preserve">
<style type="text/css">
	.st0{fill:#ED2B2B;}
	.st1{opacity:0.2;}
</style>
<g>
	<g>
		<g>
			<path class="st0" d="M75.3,65c0.7,0,1.3,0,1.9,0.1c0.8,0,1.5-0.6,1.5-1.4V22.9c0-0.8-0.6-1.4-1.4-1.4c-0.7,0-1.4-0.1-2.1-0.1
				c-9,0-17.2,3.1-23.8,8.2c-0.8,0.7-1.4,1.7-1.4,2.7v39.8c0,0.8,1,1.3,1.6,0.8C58.3,67.9,66.5,65,75.3,65z"/>
		</g>
		<g class="st1">
			<path class="st0" d="M80.2,32.3v33.1c0,0.7-0.6,1.3-1.3,1.2l-0.3,0c-1.3-0.1-2.3-0.2-3.3-0.2c-7.1,0-14.1,2.1-20,5.9
				c-0.3,0.2-0.6,0.6-0.6,1v0c0,0.9,0.9,1.5,1.7,1.1c4.6-2.1,9.7-3.4,15.2-3.4c4.2,0,8.1,0.7,11.9,2c0.8,0.3,1.6-0.3,1.6-1.1v-39
				c0-0.5-0.3-1-0.9-1.2c-0.8-0.2-1.7-0.5-2.5-0.6C81,31,80.2,31.6,80.2,32.3z"/>
		</g>
	</g>
	<g>
		<g>
			<path class="st0" d="M20.7,65c-0.7,0-1.3,0-1.9,0.1c-0.8,0-1.5-0.6-1.5-1.4V22.9c0-0.8,0.6-1.4,1.4-1.4c0.7,0,1.4-0.1,2.1-0.1
				c9,0,17.2,3.1,23.8,8.2c0.8,0.7,1.4,1.7,1.4,2.7v39.8c0,0.8-1,1.3-1.6,0.8C37.7,67.9,29.5,65,20.7,65z"/>
		</g>
		<g class="st1">
			<path class="st0" d="M15.8,32.3v33.1c0,0.7,0.6,1.3,1.3,1.2l0.3,0c1.3-0.1,2.3-0.2,3.3-0.2c7.1,0,14.1,2.1,20,5.9
				c0.3,0.2,0.6,0.6,0.6,1v0c0,0.9-0.9,1.5-1.7,1.1c-4.6-2.1-9.7-3.4-15.2-3.4c-4.2,0-8.1,0.7-11.9,2c-0.8,0.3-1.6-0.3-1.6-1.1v-39
				c0-0.5,0.3-1,0.9-1.2c0.8-0.2,1.7-0.5,2.5-0.6C15,31,15.8,31.6,15.8,32.3z"/>
		</g>
	</g>
</g>
</svg>
