<svg width="64" height="64" xmlns="http://www.w3.org/2000/svg" xmlns:xlink="http://www.w3.org/1999/xlink" xml:space="preserve" overflow="hidden"><defs><clipPath id="clip0"><rect x="452" y="836" width="64" height="64"/></clipPath><clipPath id="clip1"><rect x="453" y="837" width="63" height="63"/></clipPath><clipPath id="clip2"><rect x="453" y="837" width="63" height="63"/></clipPath><clipPath id="clip3"><rect x="453" y="837" width="63" height="63"/></clipPath></defs><g clip-path="url(#clip0)" transform="translate(-452 -836)"><g clip-path="url(#clip1)"><g clip-path="url(#clip2)"><g clip-path="url(#clip3)"><path d="M497.625 842.25 466.125 842.25 466.125 894.094 502.875 894.094 502.875 842.25ZM501.562 843.562 501.562 846.844 497.625 846.844 497.625 843.562ZM472.688 858.639C472.695 858.645 472.701 858.651 472.708 858.656 472.701 858.661 472.695 858.667 472.688 858.673ZM471.375 851.438 467.438 851.438 467.438 848.156 471.375 848.156ZM471.375 852.75 471.375 856.031 467.438 856.031 467.438 852.75ZM471.375 857.344 471.375 860.625 467.438 860.625 467.438 857.344ZM471.375 861.938 471.375 865.219 467.438 865.219 467.438 861.938ZM471.375 866.531 471.375 869.812 467.438 869.812 467.438 866.531ZM471.375 871.125 471.375 874.406 467.438 874.406 467.438 871.125ZM471.375 875.719 471.375 879 467.438 879 467.438 875.719ZM471.375 880.312 471.375 883.594 467.438 883.594 467.438 880.312ZM471.375 884.906 471.375 888.188 467.438 888.188 467.438 884.906ZM472.688 877.67C472.695 877.676 472.701 877.682 472.708 877.688 472.701 877.693 472.695 877.699 472.688 877.705ZM472.688 875.062 472.688 861.281C472.688 860.194 473.569 859.312 474.656 859.312L494.344 859.312C495.431 859.312 496.312 860.194 496.312 861.281L496.312 875.062C496.312 876.15 495.431 877.031 494.344 877.031L474.656 877.031C473.569 877.031 472.688 876.15 472.688 875.062ZM496.312 858.673C496.305 858.667 496.299 858.661 496.292 858.656 496.299 858.651 496.305 858.645 496.312 858.639ZM496.312 877.67 496.312 877.705C496.305 877.699 496.299 877.693 496.292 877.688 496.299 877.682 496.305 877.676 496.312 877.67ZM497.625 884.906 501.562 884.906 501.562 888.188 497.625 888.188ZM497.625 883.594 497.625 880.312 501.562 880.312 501.562 883.594ZM497.625 879 497.625 875.719 501.562 875.719 501.562 879ZM497.625 874.406 497.625 871.125 501.562 871.125 501.562 874.406ZM497.625 869.812 497.625 866.531 501.562 866.531 501.562 869.812ZM497.625 865.219 497.625 861.938 501.562 861.938 501.562 865.219ZM497.625 860.625 497.625 857.344 501.562 857.344 501.562 860.625ZM497.625 856.031 497.625 852.75 501.562 852.75 501.562 856.031ZM497.625 851.438 497.625 848.156 501.562 848.156 501.562 851.438ZM496.312 843.562 496.312 856.031C496.312 857.119 495.431 858 494.344 858L474.656 858C473.569 858 472.688 857.119 472.688 856.031L472.688 843.562ZM471.375 843.562 471.375 846.844 467.438 846.844 467.438 843.562ZM467.438 892.781 467.438 889.5 471.375 889.5 471.375 892.781ZM472.688 892.781 472.688 880.312C472.688 879.225 473.569 878.344 474.656 878.344L494.344 878.344C495.431 878.344 496.312 879.225 496.312 880.312L496.312 892.781ZM497.625 892.781 497.625 889.5 501.562 889.5 501.562 892.781Z" fill="#F1F1F1" fill-rule="nonzero" fill-opacity="1"/></g></g></g></g></svg>