<?xml version="1.0" encoding="UTF-8" standalone="no"?>
<!DOCTYPE svg PUBLIC "-//W3C//DTD SVG 1.1//EN" "http://www.w3.org/Graphics/SVG/1.1/DTD/svg11.dtd">
<svg xmlns:xl="http://www.w3.org/1999/xlink" xmlns:dc="http://purl.org/dc/elements/1.1/" version="1.1" xmlns="http://www.w3.org/2000/svg" viewBox="-1573.9486 -227.85571 64 64" width="64" height="64">
  <defs/>
  <g id="Icons_custom" stroke-opacity="1" stroke-dasharray="none" stroke="none" fill-opacity="1" fill="none">
    <title>Icons custom</title>
    <g id="Icons_custom_Layer_1">
      <title>Layer 1</title>
      <g id="Graphic_38"/>
      <g id="Graphic_37">
        <path d="M -1564.7244 -214.7244 C -1564.7244 -215.11417 -1564.4055 -215.43307 -1564.0157 -215.43307 C -1563.626 -215.43307 -1563.307 -215.11417 -1563.307 -214.7244 L -1563.307 -176.4567 C -1563.307 -176.06693 -1563.626 -175.74803 -1564.0157 -175.74803 C -1564.4055 -175.74803 -1564.7244 -176.06693 -1564.7244 -176.4567 Z M -1542.0472 -214.7244 C -1542.0472 -215.11417 -1541.7283 -215.43307 -1541.3386 -215.43307 C -1540.9488 -215.43307 -1540.63 -215.11417 -1540.63 -214.7244 L -1540.63 -176.4567 C -1540.63 -176.06693 -1540.9488 -175.74803 -1541.3386 -175.74803 C -1541.7283 -175.74803 -1542.0472 -176.06693 -1542.0472 -176.4567 Z M -1530 -215.43307 C -1529.6102 -215.43307 -1529.2913 -215.11417 -1529.2913 -214.7244 L -1529.2913 -176.4567 C -1529.2913 -176.06693 -1529.6102 -175.74803 -1530 -175.74803 C -1530.3898 -175.74803 -1530.7087 -176.06693 -1530.7087 -176.4567 L -1530.7087 -214.7244 C -1530.7087 -215.11417 -1530.3898 -215.43307 -1530 -215.43307 Z M -1537.7953 -214.7244 C -1537.7953 -215.11417 -1537.4764 -215.43307 -1537.0866 -215.43307 C -1536.6968 -215.43307 -1536.378 -215.11417 -1536.378 -214.7244 L -1536.378 -176.4567 C -1536.378 -176.06693 -1536.6968 -175.74803 -1537.0866 -175.74803 C -1537.4764 -175.74803 -1537.7953 -176.06693 -1537.7953 -176.4567 Z M -1559.7638 -215.43307 C -1559.374 -215.43307 -1559.0551 -215.11417 -1559.0551 -214.7244 L -1559.0551 -176.4567 C -1559.0551 -176.06693 -1559.374 -175.74803 -1559.7638 -175.74803 C -1560.1535 -175.74803 -1560.4724 -176.06693 -1560.4724 -176.4567 L -1560.4724 -214.7244 C -1560.4724 -215.11417 -1560.1535 -215.43307 -1559.7638 -215.43307 Z M -1525.0394 -214.7244 C -1525.0394 -215.11417 -1524.7205 -215.43307 -1524.3307 -215.43307 C -1523.941 -215.43307 -1523.622 -215.11417 -1523.622 -214.7244 L -1523.622 -176.4567 C -1523.622 -176.06693 -1523.941 -175.74803 -1524.3307 -175.74803 C -1524.7205 -175.74803 -1525.0394 -176.06693 -1525.0394 -176.4567 Z M -1520.0787 -215.43307 C -1519.689 -215.43307 -1519.37 -215.11417 -1519.37 -214.7244 L -1519.37 -176.4567 C -1519.37 -176.06693 -1519.689 -175.74803 -1520.0787 -175.74803 C -1520.4685 -175.74803 -1520.7874 -176.06693 -1520.7874 -176.4567 L -1520.7874 -214.7244 C -1520.7874 -215.11417 -1520.4685 -215.43307 -1520.0787 -215.43307 Z M -1554.8031 -214.7244 C -1554.8031 -215.11417 -1554.4842 -215.43307 -1554.0945 -215.43307 C -1553.7047 -215.43307 -1553.3858 -215.11417 -1553.3858 -214.7244 L -1553.3858 -176.4567 C -1553.3858 -176.06693 -1553.7047 -175.74803 -1554.0945 -175.74803 C -1554.4842 -175.74803 -1554.8031 -176.06693 -1554.8031 -176.4567 Z M -1547.7165 -215.43307 C -1547.3268 -215.43307 -1547.0079 -215.11417 -1547.0079 -214.7244 L -1547.0079 -176.4567 C -1547.0079 -176.06693 -1547.3268 -175.74803 -1547.7165 -175.74803 C -1548.1063 -175.74803 -1548.4252 -176.06693 -1548.4252 -176.4567 L -1548.4252 -214.7244 C -1548.4252 -215.11417 -1548.1063 -215.43307 -1547.7165 -215.43307 Z" fill="white"/>
      </g>
    </g>
  </g>
</svg>
