<?xml version="1.0" encoding="utf-8"?>
<!-- Generator: Adobe Illustrator 21.1.0, SVG Export Plug-In . SVG Version: 6.00 Build 0)  -->
<svg version="1.1" id="图层_1" xmlns="http://www.w3.org/2000/svg" xmlns:xlink="http://www.w3.org/1999/xlink" x="0px" y="0px"
	 width="30px" height="30px" viewBox="0 0 30 30" style="enable-background:new 0 0 30 30;" xml:space="preserve">
<style type="text/css">
	.st0{fill:#FFFFFF;}
	.st1{fill:#ED2B2B;}
</style>
<circle class="st0" cx="15" cy="15" r="12.5"/>
<path class="st1" d="M15,0C6.7,0,0,6.7,0,15s6.7,15,15,15s15-6.7,15-15S23.3,0,15,0z M10.6,22.7H7v-11h3.7L10.6,22.7L10.6,22.7z
	 M8.8,10.2L8.8,10.2c-1.2,0-2-0.8-2-1.9s0.8-1.9,2.1-1.9s2,0.8,2,1.9C10.9,9.3,10.1,10.2,8.8,10.2z M23.8,22.7h-3.7v-5.9
	c0-1.5-0.5-2.5-1.9-2.5c-1,0-1.6,0.7-1.9,1.3c-0.1,0.2-0.1,0.6-0.1,0.9v6.1h-3.7c0,0,0-10,0-11h3.7v1.6c0.5-0.7,1.4-1.8,3.3-1.8
	c2.4,0,4.2,1.6,4.2,4.9v6.4C23.7,22.7,23.8,22.7,23.8,22.7z"/>
</svg>
