<?xml version="1.0" encoding="UTF-8" standalone="no"?>
<!DOCTYPE svg PUBLIC "-//W3C//DTD SVG 1.1//EN" "http://www.w3.org/Graphics/SVG/1.1/DTD/svg11.dtd">
<svg xmlns:xl="http://www.w3.org/1999/xlink" xmlns:dc="http://purl.org/dc/elements/1.1/" version="1.1" xmlns="http://www.w3.org/2000/svg" viewBox="-1629.9213 -358.80315 64 64" width="64" height="64">
  <defs/>
  <g id="Icons_custom" stroke-opacity="1" stroke-dasharray="none" stroke="none" fill-opacity="1" fill="none">
    <title>Icons custom</title>
    <g id="Icons_custom_Layer_1">
      <title>Layer 1</title>
      <g id="Graphic_27"/>
      <g id="Graphic_24">
        <path d="M -1597.0419 -347.5282 C -1585.3004 -347.5282 -1575.782 -338.00983 -1575.782 -326.26834 C -1575.782 -314.52685 -1585.3004 -305.0085 -1597.0419 -305.0085 C -1608.7834 -305.0085 -1618.3017 -314.52685 -1618.3017 -326.26834 C -1618.3017 -338.00983 -1608.7834 -347.5282 -1597.0419 -347.5282 Z M -1597.0419 -303.59118 C -1584.5176 -303.59118 -1574.3647 -313.7441 -1574.3647 -326.26834 C -1574.3647 -338.7926 -1584.5176 -348.9455 -1597.0419 -348.9455 C -1609.5661 -348.9455 -1619.719 -338.7926 -1619.719 -326.26834 C -1619.719 -313.7441 -1609.5661 -303.59118 -1597.0419 -303.59118 Z M -1588.6177 -337.38547 L -1601.595 -333.05377 C -1602.6491 -332.69944 -1603.4818 -331.86677 -1603.8362 -330.81263 L -1608.159 -317.84413 C -1608.717 -316.17877 -1607.1314 -314.602 -1605.466 -315.1512 L -1592.4887 -319.47405 C -1591.4346 -319.82838 -1590.602 -320.66106 -1590.2476 -321.7152 L -1585.9247 -334.69255 C -1585.3667 -336.3579 -1586.9523 -337.93468 -1588.6177 -337.38547 Z M -1587.2712 -335.14433 L -1591.594 -322.16696 C -1591.8066 -321.52917 -1592.3027 -321.0331 -1592.9405 -320.8205 L -1605.9179 -316.49767 C -1606.476 -316.31165 -1606.9986 -316.84314 -1606.8125 -317.39236 L -1602.4897 -330.3697 C -1602.2771 -331.0075 -1601.781 -331.50358 -1601.1432 -331.71618 L -1588.1659 -336.039 C -1587.6078 -336.22503 -1587.0852 -335.69354 -1587.2712 -335.14433 Z M -1598.4592 -326.26834 C -1598.4592 -327.0511 -1597.8246 -327.68566 -1597.0419 -327.68566 C -1596.2591 -327.68566 -1595.6245 -327.0511 -1595.6245 -326.26834 C -1595.6245 -325.48558 -1596.2591 -324.851 -1597.0419 -324.851 C -1597.8246 -324.851 -1598.4592 -325.48558 -1598.4592 -326.26834 Z M -1594.2072 -326.26834 C -1594.2072 -327.83387 -1595.4763 -329.103 -1597.0419 -329.103 C -1598.6074 -329.103 -1599.8765 -327.83387 -1599.8765 -326.26834 C -1599.8765 -324.7028 -1598.6074 -323.4337 -1597.0419 -323.4337 C -1595.4763 -323.4337 -1594.2072 -324.7028 -1594.2072 -326.26834 Z" fill="white"/>
      </g>
    </g>
  </g>
</svg>
