<?xml version="1.0" encoding="UTF-8" standalone="no"?>
<!DOCTYPE svg PUBLIC "-//W3C//DTD SVG 1.1//EN" "http://www.w3.org/Graphics/SVG/1.1/DTD/svg11.dtd">
<svg xmlns:xl="http://www.w3.org/1999/xlink" xmlns:dc="http://purl.org/dc/elements/1.1/" version="1.1" xmlns="http://www.w3.org/2000/svg" viewBox="-1452.9764 -145.51744 64 64" width="64" height="64">
  <defs/>
  <g id="Icons_custom" stroke-opacity="1" stroke-dasharray="none" stroke="none" fill-opacity="1" fill="none">
    <title>Icons custom</title>
    <g id="Icons_custom_Layer_1">
      <title>Layer 1</title>
      <g id="Graphic_46"/>
      <g id="Group_52">
        <g id="Group_49">
          <title>830734</title>
          <g id="Graphic_50">
            <path d="M -1444.296 -111.17482 C -1444.296 -113.43267 -1442.462 -115.26671 -1440.2041 -115.26671 L -1417.991 -115.26671 C -1415.7332 -115.26671 -1413.8992 -113.43267 -1413.8992 -111.17482 L -1413.8992 -94.80728 C -1413.8992 -94.48578 -1414.1622 -94.22273 -1414.4837 -94.22273 C -1414.8052 -94.22273 -1415.0683 -94.48578 -1415.0683 -94.80728 L -1415.0683 -111.17482 C -1415.0683 -112.78966 -1416.3762 -114.0976 -1417.991 -114.0976 L -1440.2041 -114.0976 C -1441.819 -114.0976 -1443.1269 -112.78966 -1443.1269 -111.17482 L -1443.1269 -94.80728 C -1443.1269 -94.48578 -1443.39 -94.22273 -1443.7115 -94.22273 C -1444.033 -94.22273 -1444.296 -94.48578 -1444.296 -94.80728 Z M -1411.561 -105.91383 C -1411.561 -106.88565 -1410.7791 -107.66749 -1409.8073 -107.66749 L -1404.5463 -107.66749 C -1403.6256 -107.66749 -1402.7634 -107.23638 -1402.208 -106.49838 L -1398.1162 -101.0401 C -1397.7362 -100.53592 -1397.5316 -99.92214 -1397.5316 -99.28644 L -1397.5316 -95.39184 L -1397.5316 -90.13084 C -1397.5316 -88.83751 -1398.5765 -87.79262 -1399.8698 -87.79262 L -1399.899 -87.79262 C -1400.1913 -84.84062 -1402.683 -82.53163 -1405.7154 -82.53163 C -1408.945 -82.53163 -1411.561 -85.14751 -1411.561 -88.37718 L -1422.083 -88.37718 C -1422.083 -85.14751 -1424.6988 -82.53163 -1427.9285 -82.53163 C -1430.2448 -82.53163 -1432.2396 -83.8761 -1433.1895 -85.82706 C -1434.1394 -83.8761 -1436.1342 -82.53163 -1438.4505 -82.53163 C -1441.6801 -82.53163 -1444.296 -85.14751 -1444.296 -88.37718 C -1444.296 -91.60684 -1441.6801 -94.22273 -1438.4505 -94.22273 C -1436.1342 -94.22273 -1434.1394 -92.87825 -1433.1895 -90.9273 C -1432.2396 -92.87825 -1430.2448 -94.22273 -1427.9285 -94.22273 C -1425.1007 -94.22273 -1422.7406 -92.21332 -1422.1998 -89.54629 L -1411.561 -89.54629 L -1411.561 -91.88451 Z M -1399.8698 -88.96173 C -1399.2268 -88.96173 -1398.7007 -89.48783 -1398.7007 -90.13084 L -1398.7007 -95.39184 L -1398.7007 -98.89917 L -1410.3918 -98.89917 L -1410.3918 -91.88451 C -1409.325 -93.30205 -1407.6298 -94.22273 -1405.7154 -94.22273 C -1402.683 -94.22273 -1400.1913 -91.91374 -1399.899 -88.96173 Z M -1398.8834 -100.06828 C -1398.9272 -100.16327 -1398.9857 -100.25826 -1399.0515 -100.33863 L -1403.1433 -105.79692 C -1403.4722 -106.23533 -1403.991 -106.49838 -1404.5463 -106.49838 L -1409.8073 -106.49838 C -1410.1288 -106.49838 -1410.3918 -106.23533 -1410.3918 -105.91383 L -1410.3918 -100.06828 Z M -1435.5277 -110.00571 L -1435.5277 -98.31461 C -1435.5277 -97.99311 -1435.7907 -97.73006 -1436.1123 -97.73006 C -1436.4338 -97.73006 -1436.6968 -97.99311 -1436.6968 -98.31461 L -1436.6968 -110.00571 C -1436.6968 -110.32722 -1436.4338 -110.59027 -1436.1123 -110.59027 C -1435.7907 -110.59027 -1435.5277 -110.32722 -1435.5277 -110.00571 Z M -1428.513 -110.00571 L -1428.513 -98.31461 C -1428.513 -97.99311 -1428.776 -97.73006 -1429.0976 -97.73006 C -1429.4191 -97.73006 -1429.6821 -97.99311 -1429.6821 -98.31461 L -1429.6821 -110.00571 C -1429.6821 -110.32722 -1429.4191 -110.59027 -1429.0976 -110.59027 C -1428.776 -110.59027 -1428.513 -110.32722 -1428.513 -110.00571 Z M -1421.4984 -110.00571 L -1421.4984 -98.31461 C -1421.4984 -97.99311 -1421.7614 -97.73006 -1422.083 -97.73006 C -1422.4044 -97.73006 -1422.6675 -97.99311 -1422.6675 -98.31461 L -1422.6675 -110.00571 C -1422.6675 -110.32722 -1422.4044 -110.59027 -1422.083 -110.59027 C -1421.7614 -110.59027 -1421.4984 -110.32722 -1421.4984 -110.00571 Z M -1405.7154 -83.70074 C -1403.1327 -83.70074 -1401.039 -85.79445 -1401.039 -88.37718 C -1401.039 -90.9599 -1403.1327 -93.05362 -1405.7154 -93.05362 C -1408.2981 -93.05362 -1410.3918 -90.9599 -1410.3918 -88.37718 C -1410.3918 -85.79445 -1408.2981 -83.70074 -1405.7154 -83.70074 Z M -1423.252 -88.37718 C -1423.252 -90.9599 -1425.3458 -93.05362 -1427.9285 -93.05362 C -1430.5112 -93.05362 -1432.605 -90.9599 -1432.605 -88.37718 C -1432.605 -85.79445 -1430.5112 -83.70074 -1427.9285 -83.70074 C -1425.3458 -83.70074 -1423.252 -85.79445 -1423.252 -88.37718 Z M -1438.4505 -83.70074 C -1435.8677 -83.70074 -1433.774 -85.79445 -1433.774 -88.37718 C -1433.774 -90.9599 -1435.8677 -93.05362 -1438.4505 -93.05362 C -1441.0332 -93.05362 -1443.1269 -90.9599 -1443.1269 -88.37718 C -1443.1269 -85.79445 -1441.0332 -83.70074 -1438.4505 -83.70074 Z" fill="white"/>
          </g>
        </g>
        <g id="Group_47">
          <title>226636</title>
          <g id="Graphic_48">
            <path d="M -1411.5406 -142.8094 C -1411.5406 -143.78336 -1410.757 -144.56693 -1409.783 -144.56693 L -1404.5104 -144.56693 C -1403.5877 -144.56693 -1402.7236 -144.13487 -1402.167 -143.39524 L -1398.0662 -137.92492 C -1397.6854 -137.41963 -1397.4803 -136.8045 -1397.4803 -136.16739 L -1397.4803 -132.2642 L -1397.4803 -126.99161 C -1397.4803 -125.69543 -1398.5275 -124.64824 -1399.8237 -124.64824 L -1399.853 -124.64824 C -1400.1459 -121.68973 -1402.643 -119.37564 -1405.6821 -119.37564 C -1408.9189 -119.37564 -1411.5406 -121.9973 -1411.5406 -125.23408 L -1422.0857 -125.23408 C -1422.0857 -121.9973 -1424.7074 -119.37564 -1427.9442 -119.37564 C -1430.2656 -119.37564 -1432.2648 -120.72308 -1433.2168 -122.67834 C -1434.1688 -120.72308 -1436.168 -119.37564 -1438.4894 -119.37564 C -1441.7262 -119.37564 -1444.3478 -121.9973 -1444.3478 -125.23408 C -1444.3478 -128.47087 -1441.7262 -131.09252 -1438.4894 -131.09252 C -1436.168 -131.09252 -1434.1688 -129.74508 -1433.2168 -127.78982 C -1432.2648 -129.74508 -1430.2656 -131.09252 -1427.9442 -131.09252 C -1425.1102 -131.09252 -1422.7448 -129.07868 -1422.203 -126.40577 L -1411.5406 -126.40577 L -1411.5406 -128.74914 Z M -1399.8237 -125.81992 C -1399.1793 -125.81992 -1398.652 -126.34718 -1398.652 -126.99161 L -1398.652 -132.2642 L -1398.652 -135.77927 L -1410.3689 -135.77927 L -1410.3689 -128.74914 C -1409.2997 -130.16982 -1407.6008 -131.09252 -1405.6821 -131.09252 C -1402.643 -131.09252 -1400.1459 -128.77844 -1399.853 -125.81992 Z M -1398.835 -136.95096 C -1398.879 -137.04616 -1398.9376 -137.14136 -1399.0035 -137.22191 L -1403.1044 -142.69223 C -1403.434 -143.13161 -1403.9539 -143.39524 -1404.5104 -143.39524 L -1409.783 -143.39524 C -1410.1052 -143.39524 -1410.3689 -143.13161 -1410.3689 -142.8094 L -1410.3689 -136.95096 Z M -1405.6821 -120.54733 C -1403.0937 -120.54733 -1400.9954 -122.64566 -1400.9954 -125.23408 C -1400.9954 -127.8225 -1403.0937 -129.92083 -1405.6821 -129.92083 C -1408.2705 -129.92083 -1410.3689 -127.8225 -1410.3689 -125.23408 C -1410.3689 -122.64566 -1408.2705 -120.54733 -1405.6821 -120.54733 Z M -1423.2574 -125.23408 C -1423.2574 -127.8225 -1425.3558 -129.92083 -1427.9442 -129.92083 C -1430.5326 -129.92083 -1432.631 -127.8225 -1432.631 -125.23408 C -1432.631 -122.64566 -1430.5326 -120.54733 -1427.9442 -120.54733 C -1425.3558 -120.54733 -1423.2574 -122.64566 -1423.2574 -125.23408 Z M -1438.4894 -120.54733 C -1435.901 -120.54733 -1433.8026 -122.64566 -1433.8026 -125.23408 C -1433.8026 -127.8225 -1435.901 -129.92083 -1438.4894 -129.92083 C -1441.0778 -129.92083 -1443.1761 -127.8225 -1443.1761 -125.23408 C -1443.1761 -122.64566 -1441.0778 -120.54733 -1438.4894 -120.54733 Z" fill="white"/>
          </g>
        </g>
      </g>
    </g>
  </g>
</svg>
