<?xml version="1.0" encoding="UTF-8" standalone="no"?>
<!DOCTYPE svg PUBLIC "-//W3C//DTD SVG 1.1//EN" "http://www.w3.org/Graphics/SVG/1.1/DTD/svg11.dtd">
<svg xmlns:xl="http://www.w3.org/1999/xlink" xmlns:dc="http://purl.org/dc/elements/1.1/" version="1.1" xmlns="http://www.w3.org/2000/svg" viewBox="-1666.7716 -235.2756 65.2 66.434646" width="65.2" height="66.434646">
  <defs/>
  <g id="Icons_custom" stroke-opacity="1" stroke-dasharray="none" stroke="none" fill-opacity="1" fill="none">
    <title>Icons custom</title>
    <g id="Icons_custom_Layer_1">
      <title>Layer 1</title>
      <g id="Graphic_35">
        <rect x="-1666.7716" y="-235.2756" width=".125" height=".125" fill="white"/>
      </g>
      <g id="Group_33">
        <title>961262</title>
        <g id="Graphic_34">
          <path d="M -1641.0058 -192.91787 C -1641.0058 -198.02104 -1645.143 -202.15817 -1650.246 -202.15817 C -1655.3492 -202.15817 -1659.4864 -198.02104 -1659.4864 -192.91787 C -1659.4864 -191.9361 -1659.1504 -190.68655 -1658.5518 -189.26375 C -1657.9586 -187.85146 -1657.129 -186.33416 -1656.205 -184.83786 C -1654.357 -181.84526 -1652.1729 -178.98917 -1650.834 -177.31962 C -1650.5243 -176.93635 -1649.9626 -176.93635 -1649.658 -177.31962 C -1648.3193 -178.98917 -1646.1352 -181.84526 -1644.2871 -184.83786 C -1643.363 -186.33416 -1642.5336 -187.85146 -1641.9403 -189.26375 C -1641.3418 -190.68655 -1641.0058 -191.9361 -1641.0058 -192.91787 Z M -1640.1657 -192.91787 C -1640.1657 -188.32922 -1646.3084 -180.15996 -1649.0018 -176.78935 C -1649.6475 -175.98607 -1650.8446 -175.98607 -1651.4904 -176.78935 C -1654.1837 -180.15996 -1660.3264 -188.32922 -1660.3264 -192.91787 C -1660.3264 -198.48305 -1655.8112 -202.9982 -1650.246 -202.9982 C -1644.6809 -202.9982 -1640.1657 -198.48305 -1640.1657 -192.91787 Z M -1650.246 -197.118 C -1647.9264 -197.118 -1646.046 -195.23754 -1646.046 -192.91787 C -1646.046 -190.5982 -1647.9264 -188.71774 -1650.246 -188.71774 C -1652.5657 -188.71774 -1654.4462 -190.5982 -1654.4462 -192.91787 C -1654.4462 -195.23754 -1652.5657 -197.118 -1650.246 -197.118 Z M -1646.886 -192.91787 C -1646.886 -194.7736 -1648.3903 -196.27798 -1650.246 -196.27798 C -1652.1018 -196.27798 -1653.6062 -194.7736 -1653.6062 -192.91787 C -1653.6062 -191.06213 -1652.1018 -189.55776 -1650.246 -189.55776 C -1648.3903 -189.55776 -1646.886 -191.06213 -1646.886 -192.91787 Z" fill="white"/>
        </g>
      </g>
      <g id="Group_31">
        <title>255649</title>
        <g id="Graphic_32">
          <path d="M -1606.498 -221.70823 C -1606.498 -226.8114 -1610.6352 -230.94853 -1615.7384 -230.94853 C -1620.8415 -230.94853 -1624.9787 -226.8114 -1624.9787 -221.70823 C -1624.9787 -220.72645 -1624.6426 -219.4769 -1624.0441 -218.0541 C -1623.4509 -216.64182 -1622.6213 -215.12452 -1621.6973 -213.62822 C -1619.8492 -210.63562 -1617.6652 -207.77953 -1616.3264 -206.10998 C -1616.0166 -205.72671 -1615.4549 -205.72671 -1615.1503 -206.10998 C -1613.8115 -207.77953 -1611.6275 -210.63562 -1609.7794 -213.62822 C -1608.8554 -215.12452 -1608.0259 -216.64182 -1607.4326 -218.0541 C -1606.834 -219.4769 -1606.498 -220.72645 -1606.498 -221.70823 Z M -1605.658 -221.70823 C -1605.658 -217.11958 -1611.8007 -208.95032 -1614.494 -205.5797 C -1615.1398 -204.77643 -1616.3369 -204.77643 -1616.9827 -205.5797 C -1619.676 -208.95032 -1625.8187 -217.11958 -1625.8187 -221.70823 C -1625.8187 -227.2734 -1621.3035 -231.78856 -1615.7384 -231.78856 C -1610.1732 -231.78856 -1605.658 -227.2734 -1605.658 -221.70823 Z M -1615.7384 -225.90837 C -1613.4187 -225.90837 -1611.5382 -224.0279 -1611.5382 -221.70823 C -1611.5382 -219.38856 -1613.4187 -217.5081 -1615.7384 -217.5081 C -1618.058 -217.5081 -1619.9385 -219.38856 -1619.9385 -221.70823 C -1619.9385 -224.0279 -1618.058 -225.90837 -1615.7384 -225.90837 Z M -1612.3783 -221.70823 C -1612.3783 -223.56397 -1613.8826 -225.06834 -1615.7384 -225.06834 C -1617.5941 -225.06834 -1619.0985 -223.56397 -1619.0985 -221.70823 C -1619.0985 -219.8525 -1617.5941 -218.34812 -1615.7384 -218.34812 C -1613.8826 -218.34812 -1612.3783 -219.8525 -1612.3783 -221.70823 Z" fill="white"/>
        </g>
      </g>
      <g id="Group_29">
        <title>842945</title>
        <g id="Graphic_30">
          <path d="M -1642.357 -171.63405 C -1642.8454 -172.19205 -1642.8454 -172.19205 -1643.3337 -172.75004 C -1640.4971 -171.29094 -1636.7304 -169.66055 -1633.9871 -170.09053 C -1629.384 -170.1774 -1628.2457 -175.11498 -1628.4791 -179.83742 C -1628.6192 -182.67093 -1629.2009 -185.11792 -1629.7826 -187.56493 C -1630.3643 -190.01193 -1631.481 -193.9614 -1628.7377 -194.3914 C -1627.366 -194.6064 -1626.436 -194.4349 -1625.0177 -193.7054 C -1623.5994 -192.9759 -1622.6694 -192.80438 -1621.2511 -192.0749 C -1618.9028 -191.17388 -1616.9962 -189.88637 -1614.7412 -190.87437 C -1612.928 -191.47587 -1612.138 -194.13785 -1612.2313 -196.02686 C -1612.3714 -198.86036 -1613.3948 -200.92087 -1615.348 -203.15286 C -1615.8364 -203.71086 -1616.278 -203.32436 -1615.7897 -202.76637 C -1614.7664 -200.70586 -1613.2547 -198.08737 -1613.603 -195.81185 C -1613.463 -192.97836 -1614.2996 -191.26088 -1617.0895 -191.7754 C -1618.9495 -192.11837 -1621.7861 -193.57738 -1623.6928 -194.86489 C -1625.5528 -195.2079 -1627.901 -196.10891 -1629.7144 -195.50742 C -1633.7826 -193.9179 -1631.1542 -187.34992 -1630.0842 -184.34494 C -1628.9675 -180.39544 -1628.199 -174.17045 -1632.7089 -172.1945 C -1634.9638 -171.20652 -1637.3122 -172.10744 -1639.6604 -173.00855 C -1641.0788 -173.73802 -1642.4971 -174.46747 -1644.3572 -174.81041 C -1643.9155 -175.19695 -1643.4272 -174.63895 -1642.9855 -175.0255 C -1642.5438 -175.41203 -1642.5904 -176.35656 -1643.5204 -176.52801 C -1644.8921 -176.31294 -1646.2637 -176.09805 -1647.6354 -175.88297 C -1648.5654 -176.05443 -1648.9603 -174.72353 -1648.0303 -174.55208 C -1646.1238 -173.26444 -1644.6588 -171.59043 -1642.752 -170.30296 C -1642.7054 -169.35843 -1641.3803 -170.51804 -1642.357 -171.63405 Z" fill="white"/>
        </g>
      </g>
      <g id="Graphic_36"/>
    </g>
  </g>
</svg>
