<?xml version="1.0" encoding="utf-8"?>
<!-- Generator: Adobe Illustrator 21.1.0, SVG Export Plug-In . SVG Version: 6.00 Build 0)  -->
<svg version="1.1" id="图层_1" xmlns="http://www.w3.org/2000/svg" xmlns:xlink="http://www.w3.org/1999/xlink" x="0px" y="0px"
	 width="32px" height="32px" viewBox="0 0 32 32" style="enable-background:new 0 0 32 32;" xml:space="preserve">
<style type="text/css">
	.st0{fill:#A4ACB7;}
	.st1{fill:#FFFFFF;}
</style>
<g id="Blank-states">
	<g id="Default-space-avatar">
		<g id="Group-41-Copy-3">
			<g id="Group-38-Copy">
				<path id="Rectangle-32-Copy-2" class="st0" d="M16,0L16,0c8.8,0,16,7.2,16,16v0c0,8.8-7.2,16-16,16h0C7.2,32,0,24.8,0,16v0
					C0,7.2,7.2,0,16,0z"/>
			</g>
			<g id="Group-39" transform="translate(9.000000, 9.000000)">
				<g id="icon_x2F_Confluence-Blue---580">
					<g id="Confluence-icon-white" transform="translate(0.000000, 0.362069)">
						<path id="Shape" class="st1" d="M-2.2,11.8c-0.2,0.3-0.4,0.7-0.6,1c-0.2,0.3-0.1,0.7,0.2,0.9l4.1,2.5c0.1,0.1,0.3,0.1,0.5,0.1
							c0.2,0,0.3-0.1,0.4-0.3c0.2-0.3,0.4-0.6,0.6-1c1.6-2.7,3.3-2.4,6.2-1l4.1,1.9c0.2,0.1,0.3,0.1,0.5,0c0.2-0.1,0.3-0.2,0.4-0.3
							l2-4.4c0.1-0.3,0-0.7-0.3-0.8c-0.9-0.4-2.6-1.2-4.1-2C6.1,5.8,1.4,5.9-2.2,11.8z"/>
						<path id="Shape_1_" class="st1" d="M16.2,1.4c0.2-0.3,0.4-0.7,0.6-1c0.2-0.3,0.1-0.7-0.2-0.9L12.5-3c-0.1-0.1-0.3-0.1-0.5-0.1
							c-0.2,0-0.3,0.2-0.4,0.3c-0.2,0.3-0.4,0.6-0.6,1c-1.6,2.7-3.3,2.4-6.2,1L0.7-2.8c-0.2-0.1-0.3-0.1-0.5,0
							C0.1-2.7-0.1-2.6-0.1-2.4l-2,4.4c-0.1,0.3,0,0.7,0.3,0.8c0.9,0.4,2.6,1.2,4.1,2C7.9,7.5,12.6,7.3,16.2,1.4z"/>
					</g>
				</g>
			</g>
		</g>
	</g>
</g>
</svg>
