<?xml version="1.0" encoding="utf-8"?>
<!-- Generator: Adobe Illustrator 21.1.0, SVG Export Plug-In . SVG Version: 6.00 Build 0)  -->
<svg version="1.1" id="图层_1" xmlns="http://www.w3.org/2000/svg" xmlns:xlink="http://www.w3.org/1999/xlink" x="0px" y="0px"
	 width="64px" height="64px" viewBox="0 0 64 64" style="enable-background:new 0 0 64 64;" xml:space="preserve">
<style type="text/css">
	.st0{fill:none;stroke:#ED2B2B;stroke-linecap:round;stroke-linejoin:round;stroke-miterlimit:10;}
</style>
<g>
	<path class="st0" d="M45.5,51.9H11.2c-2.3,0-4.2-1.9-4.2-4.2V27.5c0-2.3,1.9-4.2,4.2-4.2h34.3c2.3,0,4.2,1.9,4.2,4.2v20.1
		C49.7,50,47.8,51.9,45.5,51.9z"/>
	<line class="st0" x1="6.9" y1="29" x2="49.7" y2="29"/>
	<line class="st0" x1="6.9" y1="34.4" x2="49.7" y2="34.4"/>
	<path class="st0" d="M43,46.9h-6.8c-0.8,0-1.5-0.7-1.5-1.5v-3.4c0-0.8,0.7-1.5,1.5-1.5H43c0.8,0,1.5,0.7,1.5,1.5v3.4
		C44.5,46.2,43.8,46.9,43,46.9z"/>
	<path class="st0" d="M13.6,23.3l0.9-8.6c0.2-1.6,1.6-2.8,3.2-2.6l36.8,3.7c1.6,0.2,2.8,1.6,2.6,3.2l-2.3,22.7
		c-0.2,1.6-1.6,2.8-3.2,2.6l-1.9-0.2"/>
</g>
</svg>
