<?xml version="1.0" encoding="utf-8"?>
<!-- Generator: Adobe Illustrator 21.1.0, SVG Export Plug-In . SVG Version: 6.00 Build 0)  -->
<svg version="1.1" id="图层_1" xmlns="http://www.w3.org/2000/svg" xmlns:xlink="http://www.w3.org/1999/xlink" x="0px" y="0px"
	 width="64px" height="64px" viewBox="0 0 64 64" style="enable-background:new 0 0 64 64;" xml:space="preserve">
<style type="text/css">
	.st0{fill:none;stroke:#FFFFFF;stroke-linecap:round;stroke-linejoin:round;stroke-miterlimit:10;}
</style>
<g>
	<path class="st0" d="M16.3,15.7L16.3,15.7c0-3.3,2.6-5.9,5.8-5.9l0,0c3.2,0,5.8,2.6,5.8,5.8v32.7c0,3.2-2.6,5.8-5.8,5.8l0,0
		c-3.2,0-5.8-2.6-5.8-5.8l0,0"/>
	<path class="st0" d="M16.3,15.7c-3.6,0.6-6.3,3.7-6.3,7.4c0,0.3,0,0.5,0,0.8c-3.8,2.2-5.1,7.2-2.9,11c0.6,1.1,1.5,2,2.5,2.7
		c-2.2,3.1-1.4,7.3,1.7,9.5c1.1,0.8,2.5,1.2,3.9,1.2c0.4,0,0.8,0,1.2-0.1"/>
	<path class="st0" d="M23.6,19.4c-2.3,0-2.3-3.8-6.1-3.8c-0.4,0-0.8,0-1.2,0.1"/>
	<path class="st0" d="M23.6,43.7c-3.5,0-2.4,4.1-7.3,4.7"/>
	<path class="st0" d="M27.8,25.7c-7,0-6.9,5.4-10.3,5.4"/>
	<path class="st0" d="M27.8,39.6c0-4.9-6.3-5.7-8.2-1.9"/>
	<path class="st0" d="M27.9,32H52"/>
	<path class="st0" d="M51.1,23.6c-1.2,1.2-3,1.2-4.2,0c-1.2-1.2-1.2-3,0-4.2c1.2-1.2,3-1.2,4.2,0C52.3,20.5,52.3,22.4,51.1,23.6
		C51.1,23.6,51.1,23.6,51.1,23.6z M44.2,14.9c-1.2,1.2-3,1.2-4.2,0s-1.2-3,0-4.2c1.2-1.2,3-1.2,4.2,0c0,0,0,0,0,0
		C45.4,11.8,45.4,13.7,44.2,14.9C44.2,14.9,44.2,14.9,44.2,14.9z"/>
	<path class="st0" d="M46,21.5h-4.7c-1.4,0-2.6,1.2-2.6,2.6l0,0v0.5c0,1.4-1.2,2.6-2.6,2.6c0,0,0,0,0,0h-8.2"/>
	<path class="st0" d="M39.2,12.8h-1.6c-1.4,0-2.6,1.2-2.6,2.6v4.2c0,1.4-1.2,2.6-2.6,2.6h-4.5"/>
	<path class="st0" d="M51.1,44.6c-1.2,1.2-3,1.2-4.2,0c-1.2-1.2-1.2-3,0-4.2c1.2-1.2,3-1.2,4.2,0C52.3,41.6,52.3,43.5,51.1,44.6
		C51.1,44.6,51.1,44.6,51.1,44.6z M44.2,53.3c-1.2,1.2-3,1.2-4.2,0c-1.2-1.2-1.2-3,0-4.2c1.2-1.2,3-1.2,4.2,0c0,0,0,0,0,0
		c1.2,1.1,1.4,2.9,0.3,4.1C44.5,53.3,44.4,53.4,44.2,53.3z"/>
	<path class="st0" d="M46,42.5h-4.7c-1.4,0-2.6-1.2-2.6-2.6v-0.5c0-1.4-1.2-2.6-2.6-2.6c0,0,0,0,0,0h-8.2"/>
	<path class="st0" d="M39.2,51.2h-1.6c-1.4,0-2.6-1.2-2.6-2.6v-4.2c0-1.4-1.2-2.6-2.6-2.6h-4.5"/>
	<path class="st0" d="M57.1,34.1c-1.2,1.2-3,1.2-4.2,0c-1.2-1.2-1.2-3,0-4.2c1.2-1.2,3-1.2,4.2,0c0,0,0,0,0,0
		C58.3,31,58.3,32.9,57.1,34.1C57.2,34.1,57.1,34.1,57.1,34.1z"/>
</g>
</svg>
