<?xml version="1.0" encoding="utf-8"?>
<!-- Generator: Adobe Illustrator 21.1.0, SVG Export Plug-In . SVG Version: 6.00 Build 0)  -->
<svg version="1.1" id="图层_1" xmlns="http://www.w3.org/2000/svg" xmlns:xlink="http://www.w3.org/1999/xlink" x="0px" y="0px"
	 width="64px" height="64px" viewBox="0 0 64 64" style="enable-background:new 0 0 64 64;" xml:space="preserve">
<style type="text/css">
	.st0{fill:none;stroke:#ED2B2B;stroke-linecap:round;stroke-linejoin:round;stroke-miterlimit:10;}
</style>
<g>
	<path class="st0" d="M56.7,45.1H7.3c-1.3,0-2.3-1-2.3-2.3V20.7c0-1.3,1-2.3,2.3-2.3h49.4c1.3,0,2.3,1,2.3,2.3v22.1
		C59,44.1,57.9,45.1,56.7,45.1z"/>
	<g>
		<path class="st0" d="M52.7,40.6h-18c-0.6,0-1.2-0.5-1.2-1.2v0c0-0.6,0.5-1.2,1.2-1.2h18c0.6,0,1.2,0.5,1.2,1.2v0
			C53.9,40.1,53.4,40.6,52.7,40.6z"/>
		<g>
			<path class="st0" d="M29.2,30.2h-18c-0.6,0-1.2-0.5-1.2-1.2v-4.2c0-0.6,0.5-1.2,1.2-1.2h18c0.6,0,1.2,0.5,1.2,1.2v4.2
				C30.4,29.7,29.9,30.2,29.2,30.2z"/>
			<path class="st0" d="M29.2,40.6h-18c-0.6,0-1.2-0.5-1.2-1.2v0c0-0.6,0.5-1.2,1.2-1.2h18c0.6,0,1.2,0.5,1.2,1.2v0
				C30.4,40.1,29.9,40.6,29.2,40.6z"/>
			<g>
				<circle class="st0" cx="12.6" cy="34" r="1.3"/>
				<circle class="st0" cx="17.7" cy="34" r="1.3"/>
				<circle class="st0" cx="22.8" cy="34" r="1.3"/>
				<circle class="st0" cx="28" cy="34" r="1.3"/>
			</g>
		</g>
	</g>
</g>
</svg>
