<?xml version="1.0" encoding="utf-8"?>
<!-- Generator: Adobe Illustrator 21.1.0, SVG Export Plug-In . SVG Version: 6.00 Build 0)  -->
<svg version="1.1" id="图层_1" xmlns="http://www.w3.org/2000/svg" xmlns:xlink="http://www.w3.org/1999/xlink" x="0px" y="0px"
	 width="64px" height="64px" viewBox="0 0 64 64" style="enable-background:new 0 0 64 64;" xml:space="preserve">
<style type="text/css">
	.st0{fill:none;stroke:#ED2B2B;stroke-linecap:round;stroke-linejoin:round;stroke-miterlimit:10;}
</style>
<path id="path10349" class="st0" d="M53,18.3c-0.3-0.9-1-1.7-1.9-2.2L33.4,7.6c-0.5-0.2-1-0.3-1.5-0.3c-0.5,0-1,0-1.5,0.1L12.7,16
	c-0.9,0.4-1.5,1.2-1.7,2.2L6.6,37.4c-0.2,1,0.1,2,0.6,2.8l12.3,15.2c0.7,0.7,1.7,1.2,2.7,1.2h19.6c1,0.1,2-0.3,2.7-1.2l12.3-15.2
	c0.6-0.8,0.8-1.8,0.7-2.8L53,18.3L53,18.3z"/>
<path id="path10351" class="st0" d="M50.3,36.2L50.3,36.2c-0.1,0-0.1,0-0.1-0.1c0-0.1-0.1-0.1-0.2-0.1C49.7,36,49.5,36,49.3,36
	c-0.1,0-0.2,0-0.3-0.1h-0.1c-0.6-0.1-1.3-0.2-2-0.3c-0.2-0.1-0.3-0.2-0.4-0.4c0.1,0,0,0,0,0l0,0L46,35.1c0.2-1.7,0.1-3.4-0.2-5.1
	c-0.4-1.7-1.1-3.3-2-4.8l0.3-0.3l0,0v-0.1c0-0.2,0.1-0.4,0.2-0.5c0.5-0.5,1-0.8,1.6-1.2l0,0c0.1-0.1,0.2-0.1,0.3-0.2
	c0.2-0.1,0.4-0.2,0.6-0.3c0.1-0.1,0.1-0.1,0.2-0.1c0.1-0.1,0-0.1,0-0.1l0,0c0.5-0.4,0.6-1.1,0.2-1.6c-0.2-0.2-0.5-0.4-0.8-0.4
	c-0.3,0-0.6,0.1-0.8,0.3l0,0l-0.1,0.1c-0.1,0.1-0.1,0.1-0.2,0.1c-0.2,0.2-0.3,0.3-0.5,0.5c-0.1,0.1-0.2,0.2-0.2,0.2l0,0
	c-0.4,0.5-0.9,0.9-1.5,1.3c-0.1,0.1-0.2,0.1-0.3,0.1c-0.1,0-0.2,0-0.2-0.1h-0.1l-0.5,0.3c-0.5-0.5-1-0.9-1.5-1.4
	c-2.2-1.7-4.8-2.7-7.6-3l-0.1-0.5l0,0v0.1c-0.2-0.1-0.2-0.3-0.3-0.5c0-0.6,0-1.3,0.1-2v-0.1c0-0.1,0.1-0.2,0.1-0.3
	c0.1-0.2,0.1-0.5,0.1-0.7v-0.3l0,0c0.1-0.6-0.4-1.2-1-1.2c-0.3-0.1-0.7,0.1-1,0.4c-0.2,0.2-0.3,0.5-0.3,0.8l0,0v0.3
	c0,0.2,0.1,0.5,0.1,0.7c0.1,0.1,0.1,0.2,0.1,0.3v0.1c0.1,0.6,0.1,1.3,0.1,2c-0.1,0.2-0.1,0.3-0.3,0.5v0.1l0,0l-0.1,0.5
	c-0.6,0.1-1.3,0.2-2,0.3c-2.7,0.6-5.2,2-7.2,4.1l-0.3-0.2h-0.1C21,22.9,21,23,20.9,23c-0.1,0-0.2-0.1-0.3-0.1
	c-0.5-0.4-1-0.9-1.5-1.3l0,0c-0.1-0.1-0.2-0.2-0.2-0.2c-0.2-0.2-0.3-0.3-0.5-0.5c-0.1-0.1-0.1-0.1-0.2-0.1c-0.1-0.1-0.1-0.1-0.1-0.1
	l0,0c-0.2-0.2-0.5-0.3-0.8-0.3c-0.3,0-0.6,0.1-0.8,0.4c-0.3,0.5-0.2,1.2,0.2,1.6l0,0c0.1,0,0.1,0.1,0.1,0.1s0.1,0.1,0.2,0.1
	c0.2,0.1,0.4,0.2,0.6,0.3c0.1,0.1,0.2,0.1,0.3,0.2l0,0c0.6,0.3,1.2,0.7,1.6,1.2c0.1,0.1,0.2,0.3,0.2,0.5v-0.1l0,0l0.3,0.3
	c-0.1,0.1-0.1,0.2-0.2,0.3c-1.8,2.9-2.6,6.2-2,9.6L17.4,35l0,0c0,0.1-0.1,0.1-0.1,0.1c-0.1,0.2-0.2,0.3-0.4,0.4
	c-0.6,0.2-1.3,0.3-2,0.3l0,0c-0.1,0-0.2,0-0.3,0.1c-0.2,0-0.5,0.1-0.7,0.1c-0.1,0-0.1,0.1-0.2,0.1c-0.1,0-0.1,0-0.1,0.1l0,0
	c-0.6,0.1-1,0.7-0.9,1.3l0,0c0.1,0.5,0.6,0.9,1.2,0.8c0.1,0,0.2,0,0.3-0.1l0,0c0.1,0,0.1,0,0.1-0.1c0-0.1,0.2,0,0.2,0
	c0.2-0.1,0.5-0.2,0.6-0.2c0.1-0.1,0.2-0.1,0.3-0.1h0.1c0.6-0.2,1.2-0.4,1.9-0.5h0.1c0.2,0,0.3,0.1,0.5,0.2c0.1,0,0.1,0.1,0.1,0.1
	l0,0l0.5-0.1c0.9,2.7,2.5,5.1,4.8,6.8c0.5,0.4,1,0.8,1.6,1l-0.3,0.4l0,0c0,0.1,0.1,0.1,0.1,0.1c0.1,0.2,0.1,0.4,0.1,0.6
	c-0.2,0.6-0.6,1.2-0.9,1.7v0.1c-0.1,0.1-0.1,0.2-0.2,0.3c-0.1,0.1-0.2,0.3-0.4,0.6C23,49,23,49.1,23,49.1c0,0,0,0.1-0.1,0.1l0,0
	c-0.3,0.6-0.1,1.3,0.5,1.6c0.1,0.1,0.3,0.1,0.4,0.1c0.5,0,0.9-0.3,1.1-0.7l0,0c0,0,0-0.1,0.1-0.1c0-0.1,0.1-0.1,0.1-0.2
	c0.1-0.2,0.2-0.4,0.2-0.6l0.1-0.3l0,0c0.2-0.6,0.5-1.2,0.8-1.8c0.1-0.2,0.3-0.3,0.5-0.3c0.1,0,0.1,0,0.1-0.1l0,0l0.2-0.5
	c1.6,0.6,3.3,0.9,5.1,0.9c1,0,2.1-0.1,3.1-0.4c0.6-0.1,1.3-0.3,1.9-0.5l0.2,0.4l0,0c0.1,0,0.1,0,0.1,0.1c0.2,0.1,0.3,0.2,0.5,0.3
	c0.3,0.6,0.6,1.2,0.8,1.8v0.1l0.1,0.3c0.1,0.2,0.1,0.5,0.2,0.6C39,50,39,50.1,39,50.1c0,0,0,0.1,0.1,0.1l0,0
	c0.2,0.4,0.6,0.7,1.1,0.7c0.2,0,0.3-0.1,0.5-0.1c0.2-0.1,0.5-0.3,0.5-0.6c0.1-0.3,0.1-0.6-0.1-0.9l0,0c0-0.1-0.1-0.1-0.1-0.1
	c0-0.1-0.1-0.1-0.1-0.2c-0.1-0.2-0.2-0.4-0.4-0.6c-0.1-0.1-0.1-0.2-0.2-0.3V48c-0.4-0.5-0.7-1.1-0.9-1.7c-0.1-0.2-0.1-0.4,0.1-0.6
	c0-0.1,0.1-0.1,0.1-0.1l0,0l-0.2-0.5c3-1.8,5.2-4.6,6.3-7.9l0.5,0.1l0,0c0.1,0,0.1-0.1,0.1-0.1c0.1-0.1,0.3-0.2,0.5-0.2h0.1
	c0.6,0.1,1.3,0.3,1.9,0.5h0.1c0.1,0.1,0.2,0.1,0.3,0.1c0.2,0.1,0.4,0.2,0.6,0.3c0.1,0,0.1,0.1,0.2,0.1c0.1,0,0.1,0,0.1,0.1l0,0
	c0.1,0.1,0.2,0.1,0.3,0.1c0.5,0,1-0.3,1.2-0.8C51.3,36.8,50.8,36.3,50.3,36.2L50.3,36.2z M33.5,34.4l-1.6,0.8l-1.6-0.8l-0.4-1.7
	l1.1-1.4h1.7l1.1,1.4L33.5,34.4z M43,30.6c0.3,1.2,0.3,2.4,0.2,3.7l-5.5-1.6l0,0c-0.5-0.1-0.8-0.6-0.7-1.2c0.1-0.2,0.1-0.3,0.2-0.4
	l4.4-4C42.2,28.2,42.7,29.4,43,30.6z M39.8,25L35,28.4c-0.4,0.2-1,0.2-1.3-0.2c-0.1-0.1-0.2-0.2-0.2-0.4l-0.3-5.9
	C35.8,22.1,38.1,23.2,39.8,25C39.8,25,39.8,25,39.8,25z M29.3,22l1.2-0.2l-0.3,5.8l0,0c0,0.5-0.5,0.9-1,0.9c-0.2,0-0.3-0.1-0.5-0.1
	L23.8,25C25.4,23.5,27.2,22.5,29.3,22z M22.2,27.1l4.3,3.8l0,0c0.4,0.3,0.5,0.9,0.1,1.3c-0.1,0.2-0.2,0.2-0.5,0.3l-5.7,1.6
	C20.3,31.8,20.9,29.3,22.2,27.1z M21.2,37l5.8-1c0.5,0,0.9,0.3,1,0.8c0.1,0.2,0.1,0.4-0.1,0.6l0,0l-2.2,5.4
	C23.6,41.4,22,39.3,21.2,37z M34.4,44.2c-0.8,0.2-1.6,0.3-2.5,0.3c-1.2,0-2.5-0.2-3.7-0.6l2.9-5.2c0.3-0.3,0.8-0.5,1.2-0.2
	c0.2,0.1,0.3,0.2,0.5,0.4l0,0l2.8,5.1C35.2,44,34.8,44.1,34.4,44.2z M41.5,39.1c-0.9,1.4-2.1,2.6-3.5,3.5l-2.3-5.5
	c-0.1-0.5,0.1-0.9,0.5-1.1c0.2-0.1,0.3-0.1,0.5-0.1l5.8,1C42.3,37.8,42,38.5,41.5,39.1z"/>
</svg>
