<?xml version="1.0" encoding="utf-8"?>
<!-- Generator: Adobe Illustrator 21.1.0, SVG Export Plug-In . SVG Version: 6.00 Build 0)  -->
<svg version="1.1" id="图层_1" xmlns="http://www.w3.org/2000/svg" xmlns:xlink="http://www.w3.org/1999/xlink" x="0px" y="0px"
	 width="20px" height="20px" viewBox="0 0 20 20" style="enable-background:new 0 0 20 20;" xml:space="preserve">
<style type="text/css">
	.st0{fill:none;stroke:#ED2B2B;stroke-width:1.5;stroke-linecap:round;stroke-linejoin:round;stroke-miterlimit:10;}
</style>
<g>
	<path class="st0" d="M10,1.5c-3.7,0-6.6,3-6.6,6.6c0,2.3,1.1,4.7,3.2,7.2c1.6,1.8,3.1,3,3.2,3.1c0.1,0.1,0.2,0.1,0.3,0.1
		c0.1,0,0.2,0,0.3-0.1c0.1-0.1,1.6-1.3,3.2-3.1c2.1-2.5,3.2-5,3.2-7.2C16.6,4.4,13.6,1.5,10,1.5z M12.4,8.1c0,1.4-1.1,2.4-2.4,2.4
		S7.5,9.5,7.5,8.1S8.6,5.7,10,5.7C11.3,5.6,12.4,6.7,12.4,8.1z"/>
</g>
</svg>
