<svg width="65" height="64" xmlns="http://www.w3.org/2000/svg" xmlns:xlink="http://www.w3.org/1999/xlink" xml:space="preserve" overflow="hidden"><defs><clipPath id="clip0"><rect x="521" y="168" width="65" height="64"/></clipPath><clipPath id="clip1"><rect x="522" y="168" width="64" height="64"/></clipPath><clipPath id="clip2"><rect x="522" y="168" width="64" height="64"/></clipPath><clipPath id="clip3"><rect x="522" y="168" width="64" height="64"/></clipPath></defs><g clip-path="url(#clip0)" transform="translate(-521 -168)"><g clip-path="url(#clip1)"><g clip-path="url(#clip2)"><g clip-path="url(#clip3)"><path d="M556.313 176C555.581 174.722 553.951 174.281 552.674 175.013 552.263 175.249 551.922 175.589 551.687 176L525.633 221.333C524.897 222.609 525.334 224.24 526.609 224.976 527.014 225.21 527.473 225.333 527.94 225.333L580.06 225.333C581.533 225.332 582.725 224.137 582.724 222.664 582.723 222.197 582.6 221.738 582.367 221.333ZM580.06 224 527.941 224C527.205 223.999 526.609 223.4 526.611 222.664 526.611 222.431 526.673 222.202 526.789 222L552.843 176.667C552.961 176.461 553.131 176.291 553.337 176.173 553.538 176.055 553.767 175.993 554 175.993 554.479 175.994 554.92 176.251 555.157 176.667L581.212 222C581.58 222.638 581.362 223.453 580.724 223.821 580.522 223.938 580.293 224 580.06 224Z" fill="#FFFFFF" fill-rule="nonzero" fill-opacity="1"/><path d="M566.481 203.847 547.741 196.186 543.827 204.966 550.121 207.575 550.554 207.749 550.554 208.837C550.553 210.295 549.372 211.476 547.914 211.478L542.35 211.478 542.35 206.962 541.017 206.962 541.017 217.919 542.35 217.919 542.35 212.811 547.914 212.811C550.108 212.809 551.885 211.031 551.887 208.837L551.887 208.282 552.321 208.456 558.019 210.719 559.739 209.323 563.504 210.923 567.961 207.416 564.115 205.768ZM557.785 209.192 552.817 207.218 550.631 206.343 545.6 204.259 548.43 197.909 563.893 204.23ZM565.372 207.759 563.299 209.389 560.909 208.372 562.945 206.719Z" fill="#FFFFFF" fill-rule="nonzero" fill-opacity="1"/><path d="M551.221 202.227C550.464 202.227 549.85 202.839 549.849 203.596 549.849 204.353 550.461 204.967 551.218 204.967 551.974 204.968 552.588 204.356 552.589 203.6 552.589 202.844 551.977 202.23 551.221 202.227Z" fill="#FFFFFF" fill-rule="nonzero" fill-opacity="1"/></g></g></g></g></svg>