<?xml version="1.0" encoding="utf-8"?>
<!-- Generator: Adobe Illustrator 21.1.0, SVG Export Plug-In . SVG Version: 6.00 Build 0)  -->
<svg version="1.1" id="图层_1" xmlns="http://www.w3.org/2000/svg" xmlns:xlink="http://www.w3.org/1999/xlink" x="0px" y="0px"
	 width="96px" height="96px" viewBox="0 0 96 96" style="enable-background:new 0 0 96 96;" xml:space="preserve">
<style type="text/css">
	.st0{opacity:0.2;fill:#ED2B2B;enable-background:new    ;}
	.st1{fill:#ED2B2B;}
	.st2{fill:#FFFFFF;stroke:#ED2B2B;stroke-miterlimit:10;}
	.st3{fill:#FFFFFF;stroke:#ED2B2B;stroke-linecap:round;stroke-linejoin:round;stroke-miterlimit:10;}
	.st4{fill:#FFFFFF;}
</style>
<g>
	<g>
		<path class="st0" d="M87.4,60.9c-0.8,1.8-4,2-5.3,3.3c-1.4,1.4-1.6,4.6-3.4,5.3C77,70.2,74.6,68,72.7,68c-1.9,0-4.3,2.1-6.1,1.3
			c-1.8-0.8-2-4-3.3-5.4c-1.4-1.4-4.5-1.6-5.2-3.4c-0.7-1.8,1.4-4.2,1.4-6.1c0-1.9-2.1-4.3-1.3-6.1c0.8-1.8,4-2,5.3-3.3
			c1.4-1.4,1.6-4.6,3.4-5.3c1.8-0.7,4.1,1.4,6.1,1.4c1.9,0,4.3-2.1,6.1-1.3c1.8,0.8,2,4,3.3,5.4c1.4,1.4,4.5,1.6,5.2,3.4
			c0.7,1.8-1.4,4.2-1.4,6.1C86,56.6,88.1,59,87.4,60.9z"/>
		<g>
			<path class="st1" d="M72.7,68c-1.9,0-4.3,2.1-6.1,1.3c-0.1,0-0.1-0.1-0.2-0.1v13.7c0,0.5,0.8,0.8,1.2,0.4l4.5-4.6
				c0.3-0.3,0.7-0.3,1,0l4.8,4.7c0.4,0.4,1.2,0.1,1.2-0.4V69.2c-0.1,0.1-0.3,0.2-0.4,0.2C77,70.2,74.6,68,72.7,68z"/>
		</g>
		<path class="st2" d="M81.9,54.6c0-5.1-4.1-9.3-9.2-9.3c-5.1,0-9.2,4.1-9.2,9.3s4.1,9.3,9.2,9.3C77.8,63.8,81.9,59.7,81.9,54.6z"/>
		<polyline class="st3" points="68.2,55.3 70.8,58 76.6,52.2 		"/>
	</g>
	<g>
		<path class="st0" d="M25.1,67.9V45.7v-0.1v-4H10.8c-1.3,0-2.4,1.1-2.4,2.4v24c0,4.6,3.7,8.4,8.4,8.4c0.4,0,0.7,0,1.1-0.1h-1.2
			C21.4,76.3,25.1,72.5,25.1,67.9z"/>
		<path class="st1" d="M62.2,67.2c-0.2-0.5-0.5-1.3-0.7-1.5c-0.2-0.2-1-0.6-1.6-0.8c-1.5-0.6-3.4-1.4-4.2-3.4c-0.8-2,0-3.9,0.7-5.4
			c0.2-0.6,0.6-1.4,0.6-1.7c0-0.2-0.2-0.7-0.3-1.1H33c-0.7,0-1.2-0.6-1.2-1.2c0-0.7,0.6-1.2,1.2-1.2h22.7c-0.3-1.1-0.4-2.3,0.1-3.5
			c0.8-1.9,2.7-2.7,4.1-3.3H33c-0.7,0-1.2-0.6-1.2-1.2c0-0.7,0.6-1.2,1.2-1.2h29.5c0.6-1.5,1.4-3.3,3.3-4.1c2-0.8,3.9,0,5.4,0.7
			c0.5,0.2,1.1,0.5,1.5,0.6v-23c0-1.8-1.4-3.2-3.2-3.2H28.3c-1.8,0-3.2,1.4-3.2,3.2v25.9v0.1v4v0.1v22.2V68v0.6V68
			c0,4.2-3.2,7.7-7.2,8.3h46.1v-5.9C63.1,69.5,62.6,68.3,62.2,67.2z M33,22.9h31.3c0.7,0,1.2,0.6,1.2,1.2c0,0.7-0.6,1.2-1.2,1.2H33
			c-0.7,0-1.2-0.6-1.2-1.2C31.8,23.5,32.3,22.9,33,22.9z M33,32.2h31.3c0.7,0,1.2,0.6,1.2,1.2c0,0.7-0.6,1.2-1.2,1.2H33
			c-0.7,0-1.2-0.6-1.2-1.2C31.8,32.8,32.3,32.2,33,32.2z M44.5,62.7H33c-0.7,0-1.2-0.6-1.2-1.2c0-0.7,0.6-1.2,1.2-1.2h11.5
			c0.7,0,1.2,0.6,1.2,1.2C45.8,62.1,45.2,62.7,44.5,62.7z"/>
		<path class="st1" d="M25.1,68L25.1,68c0,4.5-3.7,8.3-8.4,8.3h1.2C21.9,75.7,25.1,72.2,25.1,68z"/>
		<path class="st4" d="M33,25.4h31.3c0.7,0,1.2-0.6,1.2-1.2c0-0.7-0.6-1.2-1.2-1.2H33c-0.7,0-1.2,0.6-1.2,1.2
			C31.8,24.9,32.3,25.4,33,25.4z"/>
		<path class="st4" d="M33,34.7h31.3c0.7,0,1.2-0.6,1.2-1.2c0-0.7-0.6-1.2-1.2-1.2H33c-0.7,0-1.2,0.6-1.2,1.2
			C31.8,34.2,32.3,34.7,33,34.7z"/>
		<path class="st4" d="M31.8,42.8c0,0.7,0.6,1.2,1.2,1.2H60c0.1,0,0.2-0.1,0.3-0.1c0.5-0.2,1.3-0.5,1.5-0.7c0.2-0.2,0.6-1,0.8-1.6
			c0,0,0-0.1,0-0.1H33C32.3,41.5,31.8,42.1,31.8,42.8z"/>
		<path class="st4" d="M31.8,52.1c0,0.7,0.6,1.2,1.2,1.2h23.6c-0.1-0.2-0.1-0.3-0.2-0.5c-0.2-0.6-0.5-1.3-0.7-2H33
			C32.3,50.9,31.8,51.4,31.8,52.1z"/>
		<path class="st4" d="M44.5,60.2H33c-0.7,0-1.2,0.6-1.2,1.2c0,0.7,0.6,1.2,1.2,1.2h11.5c0.7,0,1.2-0.6,1.2-1.2
			C45.8,60.7,45.2,60.2,44.5,60.2z"/>
	</g>
</g>
</svg>
