<?xml version="1.0" encoding="utf-8"?>
<!-- Generator: Adobe Illustrator 21.1.0, SVG Export Plug-In . SVG Version: 6.00 Build 0)  -->
<svg version="1.1" id="图层_1" xmlns="http://www.w3.org/2000/svg" xmlns:xlink="http://www.w3.org/1999/xlink" x="0px" y="0px"
	 width="64px" height="64px" viewBox="0 0 64 64" style="enable-background:new 0 0 64 64;" xml:space="preserve">
<style type="text/css">
	.st0{fill:none;stroke:#ED2B2B;stroke-linecap:round;stroke-linejoin:round;stroke-miterlimit:10;}
</style>
<g>
	<g>
		<g>
			<path class="st0" d="M25.1,44.4h13.8c0.8,0,1.6-0.2,2.3-0.6l13.2-6.7c1.9-1,4.4-0.3,5.5,1.6l0,0c1.2,2,0.5,4.6-1.6,5.8L43,52.9
				c-2.5,1.4-5.3,2-8.1,2H4.5c-0.5,0-1-0.4-1-1V38.1c0-0.5,0.4-1,1-1h7.5v15"/>
			<path class="st0" d="M12,37.1c2.4-2.2,5.8-3.6,9.3-3.6c3.2,0,6.2,1.1,8.5,3h7.6c2.2,0,3.9,1.8,3.9,3.9l0,0c0,2.2-1.8,3.9-3.9,3.9
				"/>
		</g>
		<path class="st0" d="M36.2,17.5h-4.5c-1.6,0-2.9,1.3-2.9,2.9l0,0c0,1.6,1.3,2.9,2.9,2.9h2.7c1.6,0,2.9,1.3,2.9,2.9l0,0
			c0,1.6-1.3,2.9-2.9,2.9h-4.5"/>
		<line class="st0" x1="33.1" y1="14.4" x2="33.1" y2="17.5"/>
		<line class="st0" x1="33.1" y1="29.1" x2="33.1" y2="32.3"/>
		<path class="st0" d="M41.9,34c3.2-2.6,5.2-6.5,5.2-10.9c0-7.7-6.3-14-14-14s-14,6.3-14,14c0,2.3,0.6,4.6,1.6,6.5"/>
	</g>
</g>
</svg>
