<?xml version="1.0" encoding="utf-8"?>
<!-- Generator: Adobe Illustrator 21.1.0, SVG Export Plug-In . SVG Version: 6.00 Build 0)  -->
<svg version="1.1" id="图层_1" xmlns="http://www.w3.org/2000/svg" xmlns:xlink="http://www.w3.org/1999/xlink" x="0px" y="0px"
	 width="64px" height="64px" viewBox="0 0 64 64" style="enable-background:new 0 0 64 64;" xml:space="preserve">
<style type="text/css">
	.st0{fill:none;stroke:#ED2B2B;stroke-linecap:round;stroke-linejoin:round;stroke-miterlimit:10;}
</style>
<g>
	<g>
		<path class="st0" d="M39.1,48.4c0,3.9-3.2,7.1-7.1,7.1c-3.9,0-7.1-3.2-7.1-7.1l0,0"/>
		<path class="st0" d="M47.7,48H16.3c-1.8,0-3.3-1.5-3.3-3.3c0-1,0.4-1.9,1.2-2.5c2.9-2.4,4.6-6,4.5-9.8v-5.2
			c0-7.3,6-13.3,13.3-13.3s13.3,6,13.3,13.3v5.2c0,3.8,1.7,7.3,4.5,9.7c1.4,1.2,1.6,3.3,0.4,4.7C49.6,47.6,48.7,48,47.7,48z"/>
		<path class="st0" d="M32,13.5v-5"/>
	</g>
	<path class="st0" d="M7.9,24c-3.9,3.9-3.9,10.1,0,14"/>
	<path class="st0" d="M11.5,25.7c-2.8,2.9-2.8,7.5,0,10.3"/>
	<path class="st0" d="M56.1,37.9c3.9-3.9,3.9-10.1,0-14"/>
	<path class="st0" d="M52.5,36c2.8-2.9,2.8-7.5,0-10.3"/>
</g>
</svg>
