<?xml version="1.0" encoding="utf-8"?>
<!-- Generator: Adobe Illustrator 21.1.0, SVG Export Plug-In . SVG Version: 6.00 Build 0)  -->
<svg version="1.1" id="图层_1" xmlns="http://www.w3.org/2000/svg" xmlns:xlink="http://www.w3.org/1999/xlink" x="0px" y="0px"
	 width="100px" height="100px" viewBox="0 0 100 100" style="enable-background:new 0 0 100 100;" xml:space="preserve">
<style type="text/css">
	.st0{fill:none;stroke:#ED2B2B;stroke-width:1.5;stroke-linejoin:round;stroke-miterlimit:10;}
	.st1{fill:none;stroke:#ED2B2B;stroke-width:1.5;stroke-linecap:round;stroke-linejoin:round;stroke-miterlimit:10;}
	.st2{fill:#ED2B2B;}
</style>
<g>
	<g>
		<path class="st0" d="M34.9,43.6v1.2c0,2.7-2.2,5-5,5l0,0c-2.7,0-5-2.2-5-5v-1.2l4.7-9.5"/>
		<path class="st0" d="M45,43.6v1.2c0,2.7-2.2,5-5,5l0,0c-2.7,0-5-2.2-5-5v-1.2l2.8-9.5"/>
		<path class="st0" d="M55,43.6v1.2c0,2.7-2.2,5-5,5l0,0c-2.7,0-5-2.2-5-5v-1.2l0.8-9.5"/>
		<path class="st0" d="M65.1,43.6v1.2c0,2.7-2.2,5-5,5l0,0c-2.7,0-5-2.2-5-5v-1.2l-0.8-9.5"/>
		<path class="st0" d="M62.2,34.1l2.8,9.5v1.2c0,2.7,2.2,5,5,5l0,0c2.7,0,5-2.2,5-5v-1.2l-4.7-9.5"/>
	</g>
	<path class="st1" d="M68.8,28.2H31.2c-0.9,0-1.7,0.7-1.7,1.7V34h40.8v-4.2C70.4,29,69.6,28.2,68.8,28.2z"/>
	<g>
		<path class="st1" d="M70.5,49.8v21.5c0,0.3-0.2,0.4-0.4,0.4H29.8c-0.3,0-0.4-0.2-0.4-0.4V49.8"/>
		<rect x="33.5" y="55.2" class="st1" width="21.5" height="12.5"/>
		<polyline class="st1" points="66.7,70.8 66.7,55.2 58.2,55.2 58.2,70.8 		"/>
		<circle class="st2" cx="61.2" cy="62.6" r="1.1"/>
	</g>
</g>
</svg>
