<?xml version="1.0" encoding="utf-8"?>
<!-- Generator: Adobe Illustrator 21.1.0, SVG Export Plug-In . SVG Version: 6.00 Build 0)  -->
<svg version="1.1" id="图层_1" xmlns="http://www.w3.org/2000/svg" xmlns:xlink="http://www.w3.org/1999/xlink" x="0px" y="0px"
	 width="64px" height="64px" viewBox="0 0 64 64" style="enable-background:new 0 0 64 64;" xml:space="preserve">
<style type="text/css">
	.st0{fill:none;stroke:#ED2B2B;stroke-linecap:round;stroke-linejoin:round;stroke-miterlimit:10;}
</style>
<g>
	<g>
		<g>
			<polyline class="st0" points="42.9,48.4 37.8,48.4 37.8,40.1 34.1,40.1 			"/>
			<polyline class="st0" points="23.5,53.2 23.5,40.1 20,40.1 			"/>
			<polyline class="st0" points="31.1,53.2 31.1,40.1 27.5,40.1 			"/>
		</g>
		<circle class="st0" cx="9.8" cy="48.4" r="2"/>
		<circle class="st0" cx="44.9" cy="48.4" r="2"/>
		<circle class="st0" cx="23.6" cy="55.2" r="2"/>
		<circle class="st0" cx="31.1" cy="55.2" r="2"/>
		<path class="st0" d="M21.9,21c0.4,0.9,0.7,1.9,0.7,3c0,4-3.2,7.2-7.2,7.2"/>
		<path class="st0" d="M41.5,40.1c4.4,0,8-3.6,8-8c0-4.2-3.2-7.6-7.3-8C41.7,17.3,36,12,29,12c-4.4,0-8.3,2.2-10.8,5.5
			c-0.9-0.4-1.9-0.6-3-0.6c-4,0-7.2,3.2-7.2,7.2c0,0.1,0,0.2,0,0.3c-3.5,0.9-6,4-6,7.8c0,4.4,3.6,8,8,8h6.7v8.2h-4.9"/>
	</g>
	<path class="st0" d="M51.3,28.9h3.4v0c4,0,7.3-3.2,7.3-7.3s-3.2-7.3-7.3-7.3c-1.1,0-2.1,0.2-3,0.6c-0.4-4.6-4.2-8.2-8.9-8.2
		c-2.9,0-5.5,1.4-7.1,3.5"/>
</g>
</svg>
