<?xml version="1.0" encoding="utf-8"?>
<!-- Generator: Adobe Illustrator 21.1.0, SVG Export Plug-In . SVG Version: 6.00 Build 0)  -->
<svg version="1.1" id="图层_1" xmlns="http://www.w3.org/2000/svg" xmlns:xlink="http://www.w3.org/1999/xlink" x="0px" y="0px"
	 width="64px" height="64px" viewBox="0 0 64 64" style="enable-background:new 0 0 64 64;" xml:space="preserve">
<style type="text/css">
	.st0{fill:none;stroke:#ED2B2B;stroke-linecap:round;stroke-linejoin:round;stroke-miterlimit:10;}
</style>
<g>
	<path class="st0" d="M18.5,50.9c0,0-0.1-22.1,13.7-22.1"/>
	<path class="st0" d="M13.1,57.8c-0.8-1.6,2.3-6.8,6.2-6.8c3.3,0,6.1,4.6,6.1,6.8C25.4,60,15.3,62.3,13.1,57.8z"/>
	<path class="st0" d="M25.8,14.6L25.8,14.6c-0.3-1.3,0.5-2.5,1.8-2.8l0,0c1.3-0.3,2.5,0.5,2.8,1.8v0"/>
	<path class="st0" d="M46.8,51.4c4.7-4.9,3.3-13.6,3.3-13.6s5.2,3.9,5.8,4.3c0.5,0.4,1.5,0.3,1.4-0.9c-1.4-9.3-7.2-15.6-9.7-17.3
		c-2.4-1.7-5.1-4.3-5.1-8.9c0-8.2-6.8-11.3-10.2-11.3h-0.5c-3.4,0-10.2,3.1-10.2,11.3c0,4.6-2.7,7.1-5.1,8.9
		c-2.4,1.7-8.3,8-9.7,17.3c-0.2,1.2,0.8,1.3,1.4,0.9c0.5-0.4,5.8-4.3,5.8-4.3s-1.4,8.7,3.3,13.6"/>
	<path class="st0" d="M45.5,50.9c0,0,0.1-22.1-13.7-22.1"/>
	<path class="st0" d="M50.9,57.8c0.8-1.6-2.3-6.8-6.2-6.8c-3.3,0-6.1,4.6-6.1,6.8C38.6,60,48.7,62.3,50.9,57.8z"/>
	<path class="st0" d="M32,25c0.9,0,0.9-0.2,1.2-0.5c0.3-0.3,3.4-3.6,4.2-4.3c0.8-0.8,0.7-1.4,0.3-2c-0.4-0.5-4.4-2.1-5.7-2.1h0
		c-1.3,0-5.3,1.6-5.7,2.1c-0.4,0.5-0.5,1.2,0.3,2c0.8,0.8,3.9,4,4.2,4.3S31.1,25,32,25"/>
	<path class="st0" d="M38.2,14.6L38.2,14.6c0.3-1.3-0.5-2.5-1.8-2.8l0,0c-1.3-0.3-2.5,0.5-2.8,1.8v0"/>
	<path class="st0" d="M38.8,58.5c-2.2,0.9-4.5,1.4-7,1.4c-2.4,0-4.7-0.5-6.8-1.3"/>
</g>
</svg>
