<?xml version="1.0" encoding="utf-8"?>
<!-- Generator: Adobe Illustrator 21.1.0, SVG Export Plug-In . SVG Version: 6.00 Build 0)  -->
<svg version="1.1" id="图层_1" xmlns="http://www.w3.org/2000/svg" xmlns:xlink="http://www.w3.org/1999/xlink" x="0px" y="0px"
	 width="30px" height="30px" viewBox="0 0 30 30" style="enable-background:new 0 0 30 30;" xml:space="preserve">
<style type="text/css">
	.st0{fill:#FFFFFF;}
	.st1{fill:#A4ACB7;}
</style>
<circle class="st0" cx="15" cy="15" r="12.5"/>
<path class="st1" d="M15,0C6.7,0,0,6.7,0,15s6.7,15,15,15s15-6.7,15-15S23.3,0,15,0z M21.8,11.7c0,0.1,0,0.3,0,0.4
	c0,4.5-3.5,9.8-9.8,9.8l0,0l0,0c-1.9,0-3.8-0.6-5.3-1.5c0.3,0,0.5,0,0.8,0c1.6,0,3.1-0.6,4.3-1.5c-1.5,0-2.8-1-3.2-2.4
	c0.2,0,0.4,0.1,0.6,0.1c0.3,0,0.6,0,0.9-0.1c-1.6-0.3-2.8-1.7-2.8-3.4l0,0c0.5,0.3,1,0.4,1.6,0.4c-0.9-0.6-1.5-1.7-1.5-2.9
	C7.5,10,7.7,9.4,8,8.9c1.7,2.1,4.2,3.5,7.1,3.6C15,12.3,15,12,15,11.7c0-1.9,1.5-3.4,3.4-3.4c1,0,1.9,0.4,2.5,1.1
	c0.8-0.2,1.5-0.4,2.2-0.8c-0.3,0.8-0.8,1.5-1.5,1.9c0.7-0.1,1.4-0.3,2-0.5C23.1,10.6,22.5,11.2,21.8,11.7z"/>
</svg>
