<?xml version="1.0" encoding="utf-8"?>
<!-- Generator: Adobe Illustrator 21.1.0, SVG Export Plug-In . SVG Version: 6.00 Build 0)  -->
<svg version="1.1" id="图层_1" xmlns="http://www.w3.org/2000/svg" xmlns:xlink="http://www.w3.org/1999/xlink" x="0px" y="0px"
	 width="64px" height="64px" viewBox="0 0 64 64" style="enable-background:new 0 0 64 64;" xml:space="preserve">
<style type="text/css">
	.st0{fill:none;stroke:#ED2B2B;stroke-linecap:round;stroke-linejoin:round;stroke-miterlimit:10;}
</style>
<g>
	<polygon class="st0" points="28.7,21.9 39.7,21.9 34.2,31.8 42.3,31.8 21.6,52.8 28,39.1 21.6,39.1 	"/>
	<line class="st0" x1="42.8" y1="44.2" x2="39.5" y2="47.5"/>
	<line class="st0" x1="51.5" y1="44.2" x2="48.2" y2="47.5"/>
	<line class="st0" x1="34" y1="52.9" x2="30.8" y2="56.2"/>
	<line class="st0" x1="42.8" y1="52.9" x2="39.5" y2="56.2"/>
	<line class="st0" x1="15.5" y1="44.2" x2="12.3" y2="47.5"/>
	<line class="st0" x1="15.5" y1="52.9" x2="12.3" y2="56.2"/>
	<g>
		<g>
			<path class="st0" d="M47.8,36c4.5,0,8.1-3.6,8.1-8.1c0-4.1-3-7.4-6.9-8c-0.7-6.8-6.5-12.1-13.5-12.1c-5.3,0-10,3.1-12.2,7.6
				c-0.8-0.5-1.7-0.8-2.7-0.8c-2.9,0-5.2,2.3-5.2,5.2c0,0,0,0.1,0,0.1c-4.2,0.3-7.5,3.8-7.5,8.1c0,4.5,3.6,8.1,8.1,8.1"/>
		</g>
	</g>
</g>
</svg>
