<?xml version="1.0" encoding="utf-8"?>
<!-- Generator: Adobe Illustrator 21.1.0, SVG Export Plug-In . SVG Version: 6.00 Build 0)  -->
<svg version="1.1" id="图层_1" xmlns="http://www.w3.org/2000/svg" xmlns:xlink="http://www.w3.org/1999/xlink" x="0px" y="0px"
	 width="30px" height="30px" viewBox="0 0 30 30" style="enable-background:new 0 0 30 30;" xml:space="preserve">
<style type="text/css">
	.st0{fill:#DC4E41;}
	.st1{fill:#FFFFFF;}
</style>
<g>
	<circle class="st0" cx="15" cy="15" r="14.3"/>
	<path class="st0" d="M5.7,15.1c-0.1,2.5,1.6,4.8,4,5.6c2.2,0.7,4.9,0.2,6.4-1.7c1.1-1.3,1.3-3.1,1.2-4.7c-1.9,0-3.8,0-5.7,0
		c0,0.7,0,1.3,0,2c1.1,0,2.3,0,3.4,0c-0.3,1-0.9,1.9-1.9,2.2c-1.9,0.8-4.3-0.3-4.9-2.3c-0.7-1.9,0.5-4.2,2.4-4.8
		c1.2-0.4,2.5,0.1,3.5,0.7c0.5-0.5,1-1,1.5-1.5c-1.2-1-2.7-1.6-4.2-1.5C8.2,9.3,5.5,12.1,5.7,15.1z M20.9,12.6c0,0.6,0,1.1,0,1.7
		c-0.6,0-1.1,0-1.7,0V16c0.6,0,1.1,0,1.7,0c0,0.6,0,1.1,0,1.7c0.6,0,1.1,0,1.7,0c0-0.6,0-1.1,0-1.7l1.7,0v-1.7c-0.6,0-1.1,0-1.7,0
		c0-0.6,0-1.1,0-1.7L20.9,12.6z"/>
	<g>
		<path class="st1" d="M5.7,15.1c-0.1-3,2.6-5.9,5.6-5.9c1.6-0.1,3.1,0.5,4.2,1.5c-0.5,0.5-1,1.1-1.5,1.5c-1-0.6-2.3-1.1-3.5-0.7
			c-2,0.6-3.1,2.9-2.4,4.8c0.6,2,3,3.1,4.9,2.3c1-0.4,1.6-1.3,1.9-2.2c-1.1,0-2.3,0-3.4,0c0-0.7,0-1.3,0-2c1.9,0,3.8,0,5.7,0
			c0.1,1.6-0.1,3.4-1.2,4.7c-1.5,1.9-4.2,2.4-6.4,1.7C7.3,20,5.6,17.6,5.7,15.1L5.7,15.1z M20.9,12.6h1.7c0,0.6,0,1.1,0,1.7
			c0.6,0,1.1,0,1.7,0V16l-1.7,0c0,0.6,0,1.1,0,1.7c-0.6,0-1.1,0-1.7,0c0-0.6,0-1.1,0-1.7c-0.6,0-1.1,0-1.7,0v-1.7c0.6,0,1.1,0,1.7,0
			C20.9,13.7,20.9,13.2,20.9,12.6z"/>
	</g>
</g>
</svg>
