<?xml version="1.0" encoding="utf-8"?>
<!-- Generator: Adobe Illustrator 21.1.0, SVG Export Plug-In . SVG Version: 6.00 Build 0)  -->
<svg version="1.1" id="图层_1" xmlns="http://www.w3.org/2000/svg" xmlns:xlink="http://www.w3.org/1999/xlink" x="0px" y="0px"
	 width="96px" height="96px" viewBox="0 0 96 96" style="enable-background:new 0 0 96 96;" xml:space="preserve">
<style type="text/css">
	.st0{opacity:0.2;fill:#ED2B2B;}
	.st1{fill:#FFFFFF;}
	.st2{fill:#ED2B2B;}
</style>
<g>
	<g>
		<circle class="st0" cx="52.4" cy="29.5" r="12.5"/>
		<circle class="st1" cx="52.4" cy="29.5" r="5"/>
	</g>
	<g>
		<circle class="st0" cx="27.5" cy="29.5" r="12.5"/>
		<circle class="st1" cx="27.5" cy="29.5" r="5"/>
	</g>
	<g>
		<path class="st2" d="M79.7,47.4l-12.6,7.3v13.5l12.6,7.3c2.2,1.3,4.9-0.3,4.9-2.8V50.2C84.6,47.7,81.9,46.1,79.7,47.4z"/>
	</g>
	<g>
		<path class="st2" d="M57.4,43.8H21.9c-4.2,0-7.6,3.4-7.6,7.6v20.2c0,4.2,3.4,7.6,7.6,7.6h35.5c4.2,0,7.6-3.4,7.6-7.6V51.3
			C65,47.1,61.6,43.8,57.4,43.8z M31.8,53.8h-9.5c-1.3,0-2.4-1.1-2.4-2.4c0-1.3,1.1-2.4,2.4-2.4h9.5c1.3,0,2.4,1.1,2.4,2.4
			C34.2,52.7,33.1,53.8,31.8,53.8z"/>
		<path class="st1" d="M31.8,49.1h-9.5c-1.3,0-2.4,1.1-2.4,2.4c0,1.3,1.1,2.4,2.4,2.4h9.5c1.3,0,2.4-1.1,2.4-2.4
			C34.2,50.1,33.1,49.1,31.8,49.1z"/>
	</g>
</g>
</svg>
