<?xml version="1.0" encoding="UTF-8" standalone="no"?>
<!DOCTYPE svg PUBLIC "-//W3C//DTD SVG 1.1//EN" "http://www.w3.org/Graphics/SVG/1.1/DTD/svg11.dtd">
<svg xmlns:xl="http://www.w3.org/1999/xlink" xmlns:dc="http://purl.org/dc/elements/1.1/" version="1.1" xmlns="http://www.w3.org/2000/svg" viewBox="-121.09375 -152.5 64 64" width="64" height="64">
  <defs/>
  <metadata> Produced by OmniGraffle 7.21.5\n2023-08-18 14:18:10 +0000</metadata>
  <g id="Canvas_1" stroke-opacity="1" stroke-dasharray="none" stroke="none" fill-opacity="1" fill="none">
    <title>Canvas 1</title>
    <g id="Canvas_1_Layer_1">
      <title>Layer 1</title>
      <g id="Graphic_10"/>
      <g id="Graphic_9">
        <path d="M -91.13281 -140.21094 L -91.13281 -134.77344 C -91.13281 -134.39961 -91.43867 -134.09375 -91.8125 -134.09375 C -92.18633 -134.09375 -92.49219 -134.39961 -92.49219 -134.77344 L -92.49219 -138.95352 C -96.45137 -137.55166 -99.28906 -133.7709 -99.28906 -129.33594 L -99.28906 -128.65625 L -78.89844 -128.65625 L -78.89844 -129.33594 C -78.89844 -133.7709 -81.73613 -137.55166 -85.69531 -138.95352 L -85.69531 -134.77344 C -85.69531 -134.39961 -86.00117 -134.09375 -86.375 -134.09375 C -86.74883 -134.09375 -87.05469 -134.39961 -87.05469 -134.77344 L -87.05469 -140.21094 C -87.05469 -140.58477 -87.36055 -140.89062 -87.73438 -140.89062 L -90.45312 -140.89062 C -90.82695 -140.89062 -91.13281 -140.58477 -91.13281 -140.21094 Z M -92.49219 -140.21094 C -92.49219 -141.34092 -91.58311 -142.25 -90.45312 -142.25 L -87.73438 -142.25 C -86.60439 -142.25 -85.69531 -141.34092 -85.69531 -140.21094 L -85.69531 -140.38086 C -80.97148 -138.92803 -77.53906 -134.53555 -77.53906 -129.33594 L -77.53906 -128.65625 L -76.17969 -128.65625 C -75.80586 -128.65625 -75.5 -128.35039 -75.5 -127.97656 C -75.5 -127.60273 -75.80586 -127.29688 -76.17969 -127.29688 L -102.00781 -127.29688 C -102.38164 -127.29688 -102.6875 -127.60273 -102.6875 -127.97656 C -102.6875 -128.35039 -102.38164 -128.65625 -102.00781 -128.65625 L -100.64844 -128.65625 L -100.64844 -129.33594 C -100.64844 -134.53555 -97.21602 -138.92803 -92.49219 -140.38086 Z M -89.09375 -115.0625 C -94.6417 -115.0625 -99.2126 -119.21709 -99.88379 -124.57812 L -98.51592 -124.57812 C -97.85322 -119.96475 -93.89404 -116.42188 -89.09375 -116.42188 C -84.29346 -116.42188 -80.33428 -119.96475 -79.67158 -124.57812 L -78.30371 -124.57812 C -78.9749 -119.21709 -83.5458 -115.0625 -89.09375 -115.0625 Z M -96.70625 -110.98438 C -102.2627 -110.98438 -106.76562 -106.48145 -106.76562 -100.925 C -106.76562 -100.47471 -106.40029 -100.10938 -105.95 -100.10938 L -72.2375 -100.10938 C -71.78721 -100.10938 -71.421875 -100.47471 -71.421875 -100.925 C -71.421875 -106.48145 -75.924805 -110.98438 -81.48125 -110.98438 L -96.70625 -110.98438 Z M -108.125 -100.925 C -108.125 -107.2291 -103.01035 -112.34375 -96.70625 -112.34375 L -81.48125 -112.34375 C -75.17715 -112.34375 -70.0625 -107.2291 -70.0625 -100.925 C -70.0625 -99.72705 -71.03955 -98.75 -72.2375 -98.75 L -105.95 -98.75 C -107.14795 -98.75 -108.125 -99.72705 -108.125 -100.925 Z" fill="white"/>
      </g>
    </g>
  </g>
</svg>
