<?xml version="1.0" encoding="utf-8"?>
<!-- Generator: Adobe Illustrator 21.1.0, SVG Export Plug-In . SVG Version: 6.00 Build 0)  -->
<svg version="1.1" id="图层_1" xmlns="http://www.w3.org/2000/svg" xmlns:xlink="http://www.w3.org/1999/xlink" x="0px" y="0px"
	 width="64px" height="64px" viewBox="0 0 64 64" style="enable-background:new 0 0 64 64;" xml:space="preserve">
<style type="text/css">
	.st0{fill:none;stroke:#ED2B2B;stroke-linecap:round;stroke-linejoin:round;stroke-miterlimit:10;}
</style>
<g>
	<path class="st0" d="M23.3,34.1l1.9,3.9c0.1,0.2,0.3,0.4,0.5,0.4l4.3,0.6c0.6,0.1,0.8,0.8,0.4,1.2l-3.1,3.1
		c-0.2,0.2-0.2,0.4-0.2,0.6l0.7,4.3c0.1,0.6-0.5,1-1,0.8L23,47c-0.2-0.1-0.5-0.1-0.7,0l-3.9,2c-0.5,0.3-1.1-0.2-1-0.8l0.7-4.3
		c0-0.2,0-0.5-0.2-0.6l-3.1-3.1c-0.4-0.4-0.2-1.1,0.4-1.2l4.3-0.6c0.2,0,0.4-0.2,0.5-0.4l1.9-3.9C22.3,33.6,23,33.6,23.3,34.1z"/>
	<polygon class="st0" points="42.1,34.3 34.1,48.1 50.1,48.1 	"/>
	<circle class="st0" cx="42.1" cy="22.6" r="6.9"/>
	<path class="st0" d="M27.9,30H17.4c-0.9,0-1.7-0.7-1.7-1.7V17.8c0-0.9,0.7-1.7,1.7-1.7h10.5c0.9,0,1.7,0.7,1.7,1.7v10.5
		C29.5,29.2,28.8,30,27.9,30z"/>
	<path class="st0" d="M53.1,55.7H10.9c-1.4,0-2.6-1.2-2.6-2.6V10.9c0-1.4,1.2-2.6,2.6-2.6h42.3c1.4,0,2.6,1.2,2.6,2.6v42.3
		C55.7,54.6,54.6,55.7,53.1,55.7z"/>
</g>
</svg>
