<?xml version="1.0" encoding="utf-8"?>
<!-- Generator: Adobe Illustrator 21.1.0, SVG Export Plug-In . SVG Version: 6.00 Build 0)  -->
<svg version="1.1" id="图层_1" xmlns="http://www.w3.org/2000/svg" xmlns:xlink="http://www.w3.org/1999/xlink" x="0px" y="0px"
	 width="64px" height="64px" viewBox="0 0 64 64" style="enable-background:new 0 0 64 64;" xml:space="preserve">
<style type="text/css">
	.st0{fill:none;stroke:#ED2B2B;stroke-linecap:round;stroke-linejoin:round;stroke-miterlimit:10;}
</style>
<polygon class="st0" points="50.1,59.3 13.9,59.3 15.2,17.8 48.8,17.8 "/>
<path class="st0" d="M22,20v-6c0-5.5,4.5-10,10-10h0c5.5,0,10,4.5,10,10v6"/>
<path class="st0" d="M29,38.1h-5.7c-0.7,0-1.3-0.6-1.3-1.3v-5.7c0-0.7,0.6-1.3,1.3-1.3H29c0.7,0,1.3,0.6,1.3,1.3v5.7
	C30.3,37.5,29.7,38.1,29,38.1z"/>
<path class="st0" d="M40.5,48.5h-5.7c-0.7,0-1.3-0.6-1.3-1.3v-5.7c0-0.7,0.6-1.3,1.3-1.3h5.7c0.7,0,1.3,0.6,1.3,1.3v5.7
	C41.8,48,41.2,48.5,40.5,48.5z"/>
<g>
	<path class="st0" d="M29,48.5h-5.7c-0.7,0-1.3-0.6-1.3-1.3v-5.7c0-0.7,0.6-1.3,1.3-1.3H29c0.7,0,1.3,0.6,1.3,1.3v5.7
		C30.3,48,29.7,48.5,29,48.5z"/>
</g>
<polyline class="st0" points="36,27.1 36,33.2 32.8,33.2 37.7,38.1 42.5,33.2 39.4,33.2 39.4,27.1 "/>
</svg>
