<?xml version="1.0" encoding="utf-8"?>
<!-- Generator: Adobe Illustrator 21.1.0, SVG Export Plug-In . SVG Version: 6.00 Build 0)  -->
<svg version="1.1" id="图层_1" xmlns="http://www.w3.org/2000/svg" xmlns:xlink="http://www.w3.org/1999/xlink" x="0px" y="0px"
	 width="64px" height="64px" viewBox="0 0 64 64" style="enable-background:new 0 0 64 64;" xml:space="preserve">
<style type="text/css">
	.st0{fill:none;stroke:#FFFFFF;stroke-linecap:round;stroke-linejoin:round;stroke-miterlimit:10;}
</style>
<g>
	<polygon class="st0" points="56.9,56.1 56.9,32.6 40.1,41 40.1,32.6 23.9,41 23.9,32.6 7.1,41 7.1,56.1 	"/>
	<line class="st0" x1="7.1" y1="53.2" x2="12" y2="53.2"/>
	<line class="st0" x1="27.6" y1="53.3" x2="56.9" y2="53.3"/>
	<polyline class="st0" points="12,56.1 12,48.9 27.6,48.9 27.6,56.1 	"/>
	<line class="st0" x1="12" y1="46.4" x2="27.6" y2="46.4"/>
	<line class="st0" x1="31.8" y1="46.4" x2="31.8" y2="50.7"/>
	<line class="st0" x1="36.7" y1="46.4" x2="36.7" y2="50.7"/>
	<line class="st0" x1="41.7" y1="46.4" x2="41.7" y2="50.7"/>
	<line class="st0" x1="46.6" y1="46.4" x2="46.6" y2="50.7"/>
	<line class="st0" x1="51.4" y1="46.4" x2="51.4" y2="50.7"/>
	<polyline class="st0" points="19.2,35 20.3,19.4 20.6,15.6 27.6,15.6 29,38.3 	"/>
	<line class="st0" x1="27.6" y1="19.2" x2="20.2" y2="19.2"/>
	<line class="st0" x1="20.2" y1="22.9" x2="28.1" y2="22.9"/>
	<polyline class="st0" points="35.4,34.9 36.7,12.4 37,7.9 44.1,7.9 45.5,38.3 	"/>
	<line class="st0" x1="44.1" y1="12.1" x2="36.7" y2="12.1"/>
	<line class="st0" x1="36.7" y1="16.6" x2="44.6" y2="16.6"/>
</g>
</svg>
