<?xml version="1.0" encoding="utf-8"?>
<!-- Generator: Adobe Illustrator 21.1.0, SVG Export Plug-In . SVG Version: 6.00 Build 0)  -->
<svg version="1.1" id="图层_1" xmlns="http://www.w3.org/2000/svg" xmlns:xlink="http://www.w3.org/1999/xlink" x="0px" y="0px"
	 width="64px" height="64px" viewBox="0 0 64 64" style="enable-background:new 0 0 64 64;" xml:space="preserve">
<style type="text/css">
	.st0{fill:none;stroke:#ED2B2B;stroke-linecap:round;stroke-linejoin:round;stroke-miterlimit:10;}
</style>
<g>
	<g>
		<g>
			<g>
				<polyline class="st0" points="45.5,8.5 46.3,13.8 41,14.6 				"/>
			</g>
			<g>
				<polyline class="st0" points="18.5,55.5 17.7,50.2 23,49.4 				"/>
			</g>
			<g>
				<path class="st0" d="M54.6,26.8c2.1,9.2-1.5,19.1-9.8,24.5s-18.8,4.9-26.4-0.6"/>
				<path class="st0" d="M9.4,37.2c-2.1-9.2,1.5-19.1,9.8-24.5s18.8-4.9,26.4,0.6"/>
			</g>
		</g>
	</g>
	<g>
		<g>
			<g>
				
					<ellipse transform="matrix(0.9983 -5.824040e-02 5.824040e-02 0.9983 -1.9804 1.557)" class="st0" cx="25.7" cy="34.8" rx="4.6" ry="4.6"/>
				<path class="st0" d="M37.4,35.7l-0.2-3.3l-2.7-0.5c-0.3-0.8-0.7-1.6-1.1-2.3l1.3-2.4L32.2,25L30,26.5c-0.8-0.4-1.6-0.7-2.5-0.9
					l-0.8-2.6l-3.3,0.2l-0.5,2.7c-0.8,0.3-1.6,0.7-2.3,1.1l-2.4-1.3l-2.2,2.5l1.5,2.2c-0.4,0.8-0.7,1.6-0.9,2.5L14,33.8l0.2,3.3
					l2.7,0.5c0.3,0.8,0.7,1.6,1.1,2.3l-1.3,2.4l2.5,2.2l2.2-1.5c0.8,0.4,1.6,0.7,2.5,0.9l0.8,2.6l3.3-0.2l0.5-2.7
					c0.8-0.3,1.6-0.7,2.3-1.1l2.4,1.3l2.2-2.5L34,39c0.4-0.8,0.7-1.6,0.9-2.5L37.4,35.7z"/>
			</g>
			<g>
				<ellipse transform="matrix(0.3282 -0.9446 0.9446 0.3282 4.8132 58.8097)" class="st0" cx="43.8" cy="26" rx="1.8" ry="1.8"/>
				<path class="st0" d="M46.6,20.4L45,19.9l-0.8,1.2c-0.5,0-0.9,0-1.4,0.1L41.8,20l-1.6,0.8l0.3,1.4c-0.4,0.3-0.7,0.6-0.9,1
					l-1.4-0.1l-0.6,1.7l1.2,0.8c0,0.5,0,0.9,0.1,1.4l-1.1,0.9l0.8,1.6l1.4-0.3c0.3,0.4,0.6,0.7,1,0.9l-0.1,1.4l1.7,0.6l0.8-1.2
					c0.5,0,0.9,0,1.4-0.1l0.9,1.1l1.6-0.8L47,29.8c0.4-0.3,0.7-0.6,0.9-1l1.4,0.1l0.6-1.7l-1.2-0.8c0-0.5,0-0.9-0.1-1.4l1.1-0.9
					L49,22.5l-1.4,0.3c-0.3-0.4-0.6-0.7-1-0.9L46.6,20.4z"/>
			</g>
		</g>
	</g>
</g>
</svg>
