<?xml version="1.0" encoding="utf-8"?>
<!-- Generator: Adobe Illustrator 21.1.0, SVG Export Plug-In . SVG Version: 6.00 Build 0)  -->
<svg version="1.1" id="图层_1" xmlns="http://www.w3.org/2000/svg" xmlns:xlink="http://www.w3.org/1999/xlink" x="0px" y="0px"
	 width="64px" height="64px" viewBox="0 0 64 64" style="enable-background:new 0 0 64 64;" xml:space="preserve">
<style type="text/css">
	.st0{fill:none;stroke:#ED2B2B;stroke-linecap:round;stroke-linejoin:round;stroke-miterlimit:10;}
</style>
<g>
	<g>
		<g>
			<g>
				<path class="st0" d="M22.4,25.9H8.1v-6h11.1c0.4,0,0.7-0.3,0.7-0.7V8.1h6v14.3C25.9,24.3,24.3,25.9,22.4,25.9z"/>
			</g>
			<g>
				<path class="st0" d="M38.1,22.4V8.1h6v11.1c0,0.4,0.3,0.7,0.7,0.7h11.1v6H41.6C39.7,25.9,38.1,24.3,38.1,22.4z"/>
			</g>
		</g>
		<g>
			<g>
				<path class="st0" d="M41.6,38.1h14.3v6H44.8c-0.4,0-0.7,0.3-0.7,0.7v11.1h-6V41.6C38.1,39.7,39.7,38.1,41.6,38.1z"/>
			</g>
			<g>
				<path class="st0" d="M25.9,41.6v14.3h-6V44.8c0-0.4-0.3-0.7-0.7-0.7H8.1v-6h14.3C24.3,38.1,25.9,39.7,25.9,41.6z"/>
			</g>
		</g>
	</g>
</g>
</svg>
