<?xml version="1.0" encoding="utf-8"?>
<!-- Generator: Adobe Illustrator 21.1.0, SVG Export Plug-In . SVG Version: 6.00 Build 0)  -->
<svg version="1.1" id="图层_1" xmlns="http://www.w3.org/2000/svg" xmlns:xlink="http://www.w3.org/1999/xlink" x="0px" y="0px"
	 width="64px" height="64px" viewBox="0 0 64 64" style="enable-background:new 0 0 64 64;" xml:space="preserve">
<style type="text/css">
	.st0{fill:none;stroke:#ED2B2B;stroke-linecap:round;stroke-linejoin:round;stroke-miterlimit:10;}
</style>
<g>
	<g>
		<polygon class="st0" points="40.7,14.8 32,6.1 23.3,14.8 30,14.8 30,26.8 34,26.8 34,14.8 		"/>
		<polygon class="st0" points="23.3,49.2 32,57.9 40.7,49.2 34,49.2 34,37.2 30,37.2 30,49.2 		"/>
	</g>
	<g>
		<polygon class="st0" points="49.2,40.7 57.9,32 49.2,23.3 49.2,30 37.2,30 37.2,34 49.2,34 		"/>
		<polygon class="st0" points="14.8,23.3 6.1,32 14.8,40.7 14.8,34 26.8,34 26.8,30 14.8,30 		"/>
	</g>
</g>
</svg>
