<?xml version="1.0" encoding="utf-8"?>
<!-- Generator: Adobe Illustrator 21.1.0, SVG Export Plug-In . SVG Version: 6.00 Build 0)  -->
<svg version="1.1" id="图层_1" xmlns="http://www.w3.org/2000/svg" xmlns:xlink="http://www.w3.org/1999/xlink" x="0px" y="0px"
	 width="30px" height="30px" viewBox="0 0 30 30" style="enable-background:new 0 0 30 30;" xml:space="preserve">
<style type="text/css">
	.st0{fill:#00CDAD;}
	.st1{fill:#FFFFFF;}
</style>
<g>
	<circle class="st0" cx="15" cy="15" r="14.3"/>
</g>
<path class="st1" d="M24.3,20.2c-0.1,0.3-0.2,0.7-0.6,0.7H6.5c-0.3,0-0.6-0.3-0.6-0.6v-8c0-0.2,0.2-0.3,0.4-0.2l6.8,4.9
	c0.6,0.4,1.3,0.6,2,0.6s1.4-0.2,2-0.6l6.8-4.9c0.2-0.1,0.4,0,0.4,0.2L24.3,20.2z M5.9,10.2V9.6C5.9,9.3,6.1,9,6.5,9h17.2
	c0.3,0,0.6,0.3,0.6,0.6l0,0.6l-8,5.8c-0.7,0.5-1.6,0.5-2.3,0L5.9,10.2z"/>
</svg>
