<svg width="64" height="64" xmlns="http://www.w3.org/2000/svg" xmlns:xlink="http://www.w3.org/1999/xlink" xml:space="preserve" overflow="hidden"><defs><clipPath id="clip0"><rect x="196" y="704" width="64" height="64"/></clipPath><clipPath id="clip1"><rect x="196" y="704" width="63" height="63"/></clipPath><clipPath id="clip2"><rect x="196" y="704" width="63" height="63"/></clipPath><clipPath id="clip3"><rect x="196" y="704" width="63" height="63"/></clipPath></defs><g clip-path="url(#clip0)" transform="translate(-196 -704)"><g clip-path="url(#clip1)"><g clip-path="url(#clip2)"><g clip-path="url(#clip3)"><path d="M255.456 756.5 229.797 711.875C229.099 710.625 227.52 710.177 226.269 710.875 225.849 711.109 225.503 711.455 225.269 711.875L199.544 756.5C198.824 757.765 199.266 759.374 200.531 760.093 200.93 760.32 201.382 760.439 201.841 760.438L253.159 760.438C254.615 760.441 255.797 759.264 255.801 757.809 255.802 757.35 255.683 756.899 255.456 756.5ZM254.301 758.481C254.065 758.887 253.628 759.133 253.159 759.125L201.841 759.125C201.371 759.133 200.935 758.887 200.699 758.481 200.455 758.075 200.448 757.569 200.681 757.156L226.416 712.512C226.763 711.896 227.544 711.677 228.161 712.024 228.371 712.143 228.544 712.319 228.659 712.531L254.309 757.137C254.55 757.554 254.546 758.068 254.301 758.481Z" fill="#F1F1F1" fill-rule="nonzero" fill-opacity="1"/><path d="M227.5 752.549C227.103 752.561 226.72 752.404 226.446 752.116 226.163 751.834 226.009 751.447 226.02 751.047 226.003 750.649 226.157 750.262 226.441 749.982 226.723 749.705 227.105 749.555 227.5 749.567 227.903 749.557 228.293 749.708 228.584 749.986 228.878 750.259 229.039 750.646 229.024 751.047 229.033 751.449 228.872 751.836 228.58 752.112 228.295 752.4 227.905 752.558 227.5 752.549Z" fill="#F1F1F1" fill-rule="nonzero" fill-opacity="1"/><path d="M226.779 745.081 226.567 724.204 228.346 724.204 228.134 745.081 226.779 745.081Z" fill="#F1F1F1" fill-rule="nonzero" fill-opacity="1"/></g></g></g></g></svg>