<?xml version="1.0" encoding="utf-8"?>
<!-- Generator: Adobe Illustrator 21.1.0, SVG Export Plug-In . SVG Version: 6.00 Build 0)  -->
<svg version="1.1" id="图层_1" xmlns="http://www.w3.org/2000/svg" xmlns:xlink="http://www.w3.org/1999/xlink" x="0px" y="0px"
	 width="96px" height="96px" viewBox="0 0 96 96" style="enable-background:new 0 0 96 96;" xml:space="preserve">
<style type="text/css">
	.st0{opacity:0.2;fill:#ED2B2B;}
	.st1{fill:#ED2B2B;}
</style>
<g>
	<path class="st0" d="M32,12.8h9.1c1.3,0,2.5,0.7,3.2,1.8l16.8,27.3H39l-8.1-27.7C30.7,13.5,31.2,12.8,32,12.8z"/>
	<path class="st0" d="M32,83.2h9.1c1.3,0,2.5-0.7,3.2-1.8l16.8-27.3H39l-8.1,27.7C30.7,82.5,31.2,83.2,32,83.2z"/>
	<path class="st1" d="M72.9,39.3c-12,0-49,0-49,0l-4.7-7c-0.7-1.1-1.9-1.7-3.2-1.7H9.1c-0.8,0-1.3,0.8-1.1,1.5l5.2,16L8.1,64
		c-0.2,0.7,0.3,1.5,1.1,1.5H16c1.3,0,2.5-0.6,3.2-1.7l4.7-7c0,0,36.9,0,49,0c12,0,14.9-6.3,15.1-8.7C87.8,45.6,84.9,39.3,72.9,39.3z
		"/>
</g>
</svg>
