<?xml version="1.0" encoding="utf-8"?>
<!-- Generator: Adobe Illustrator 21.1.0, SVG Export Plug-In . SVG Version: 6.00 Build 0)  -->
<svg version="1.1" id="图层_1" xmlns="http://www.w3.org/2000/svg" xmlns:xlink="http://www.w3.org/1999/xlink" x="0px" y="0px"
	 width="90.5px" height="30px" viewBox="0 0 90.5 30" style="enable-background:new 0 0 90.5 30;" xml:space="preserve">
<style type="text/css">
	.st0{fill:#0075AE;}
	.st1{fill:#FFFFFF;}
	.st2{enable-background:new    ;}
</style>
<path class="st0" d="M75.5,30H15C6.7,30,0,23.3,0,15l0,0C0,6.7,6.7,0,15,0h60.5c8.3,0,15,6.7,15,15l0,0C90.5,23.3,83.8,30,75.5,30z"
	/>
<circle class="st1" cx="15" cy="15" r="10.4"/>
<path class="st1" d="M15,2.5C8.1,2.5,2.5,8.1,2.5,15S8.1,27.5,15,27.5S27.5,21.9,27.5,15S21.9,2.5,15,2.5z"/>
<g>
	<polygon class="st0" points="11.1,21.8 8.1,21.8 8.1,12.6 11.2,12.6 	"/>
	<path class="st0" d="M9.6,11.4L9.6,11.4c-1,0-1.7-0.7-1.7-1.6c0-0.9,0.7-1.6,1.8-1.6s1.7,0.7,1.7,1.6C11.3,10.6,10.7,11.4,9.6,11.4
		z"/>
	<path class="st0" d="M22.1,21.8H19v-4.9c0-1.2-0.4-2.1-1.6-2.1c-0.8,0-1.3,0.6-1.6,1.1c-0.1,0.2-0.1,0.5-0.1,0.8v5.1h-3.1
		c0,0,0-8.3,0-9.2h3.1v1.3c0.4-0.6,1.2-1.5,2.7-1.5c2,0,3.5,1.3,3.5,4.1L22.1,21.8C22,21.8,22.1,21.8,22.1,21.8z"/>
</g>
<g class="st2">
	<path class="st1" d="M41.7,18.5c0-0.5-0.2-1-0.6-1.3s-1.1-0.7-2-0.9c-1.4-0.4-2.5-0.9-3.2-1.5c-0.8-0.6-1.1-1.4-1.1-2.4
		c0-1,0.4-1.9,1.2-2.6s1.9-1,3.2-1c1.4,0,2.5,0.4,3.3,1.1c0.8,0.7,1.2,1.7,1.2,2.8l0,0.1h-2.1c0-0.7-0.2-1.2-0.7-1.6
		c-0.5-0.4-1.1-0.6-1.8-0.6c-0.7,0-1.3,0.2-1.7,0.5c-0.4,0.3-0.6,0.8-0.6,1.3c0,0.5,0.2,0.9,0.6,1.2c0.4,0.3,1.1,0.6,2.1,0.9
		c1.4,0.4,2.4,0.9,3.1,1.5c0.7,0.7,1.1,1.5,1.1,2.5c0,1.1-0.4,1.9-1.3,2.6c-0.8,0.6-1.9,1-3.3,1c-1.3,0-2.5-0.3-3.4-1
		c-1-0.7-1.4-1.7-1.4-3l0-0.1h2.1c0,0.8,0.3,1.4,0.8,1.8c0.5,0.4,1.2,0.6,2,0.6c0.8,0,1.4-0.2,1.8-0.5S41.7,19,41.7,18.5z"/>
	<path class="st1" d="M47.9,13.4c0.3-0.4,0.7-0.8,1.2-1c0.5-0.2,1-0.4,1.5-0.4c1,0,1.8,0.3,2.4,1c0.6,0.6,0.9,1.6,0.9,3v5.8h-2.2
		v-5.9c0-0.8-0.1-1.3-0.4-1.6C51,14,50.5,13.8,50,13.8c-0.5,0-0.9,0.1-1.2,0.2c-0.3,0.2-0.6,0.4-0.8,0.7v7.1h-2.2V8h2.2V13.4z"/>
	<path class="st1" d="M61.9,21.8c-0.1-0.2-0.1-0.5-0.2-0.7c0-0.2-0.1-0.5-0.1-0.7c-0.3,0.4-0.7,0.8-1.2,1.1s-1,0.5-1.6,0.5
		c-1,0-1.8-0.3-2.3-0.8s-0.8-1.2-0.8-2.1c0-0.9,0.4-1.7,1.1-2.2c0.7-0.5,1.8-0.8,3.1-0.8h1.7v-0.8c0-0.5-0.1-0.9-0.4-1.2
		c-0.3-0.3-0.7-0.4-1.3-0.4c-0.5,0-0.9,0.1-1.2,0.3c-0.3,0.2-0.4,0.5-0.4,0.9l-2.1,0l0-0.1c0-0.8,0.3-1.4,1-2
		c0.7-0.6,1.7-0.9,2.8-0.9c1.1,0,2,0.3,2.7,0.9s1,1.4,1,2.4v4.3c0,0.4,0,0.8,0.1,1.1c0.1,0.4,0.1,0.7,0.3,1.1H61.9z M59.2,20.2
		c0.5,0,1-0.1,1.5-0.4s0.7-0.6,0.9-0.9v-1.4h-1.7c-0.6,0-1.1,0.2-1.5,0.5c-0.4,0.3-0.5,0.7-0.5,1.1c0,0.4,0.1,0.7,0.4,0.9
		C58.4,20.1,58.8,20.2,59.2,20.2z"/>
	<path class="st1" d="M70.7,14.1l-0.9,0c-0.4,0-0.8,0.1-1.1,0.3c-0.3,0.2-0.5,0.4-0.7,0.8v6.7H66v-9.6h2l0.1,1.4
		c0.2-0.5,0.6-0.9,0.9-1.2c0.4-0.3,0.8-0.4,1.3-0.4c0.1,0,0.3,0,0.4,0s0.2,0,0.3,0.1L70.7,14.1z"/>
	<path class="st1" d="M76.2,22c-1.4,0-2.5-0.4-3.3-1.3c-0.8-0.9-1.2-2-1.2-3.4v-0.4c0-1.4,0.4-2.6,1.2-3.5c0.8-0.9,1.8-1.4,3.1-1.4
		c1.3,0,2.3,0.4,2.9,1.2c0.7,0.8,1,1.9,1,3.2v1.2H74l0,0c0,0.8,0.2,1.4,0.6,1.9c0.4,0.5,1,0.7,1.8,0.7c0.6,0,1.1-0.1,1.5-0.2
		c0.4-0.1,0.8-0.3,1.2-0.6l0.7,1.4c-0.4,0.3-0.9,0.6-1.5,0.8S77,22,76.2,22z M76,13.7c-0.6,0-1,0.2-1.3,0.6
		c-0.3,0.4-0.5,0.9-0.6,1.6l0,0h3.8v-0.2c0-0.6-0.1-1.1-0.4-1.5C77.1,13.9,76.6,13.7,76,13.7z"/>
</g>
</svg>
