<?xml version="1.0" encoding="utf-8"?>
<!-- Generator: Adobe Illustrator 21.1.0, SVG Export Plug-In . SVG Version: 6.00 Build 0)  -->
<svg version="1.1" id="图层_1" xmlns="http://www.w3.org/2000/svg" xmlns:xlink="http://www.w3.org/1999/xlink" x="0px" y="0px"
	 width="64px" height="64px" viewBox="0 0 64 64" style="enable-background:new 0 0 64 64;" xml:space="preserve">
<style type="text/css">
	.st0{fill:none;stroke:#ED2B2B;stroke-linecap:round;stroke-linejoin:round;stroke-miterlimit:10;}
</style>
<g>
	<g>
		<path class="st0" d="M13.6,32h0.8c0.6,0,1.1-0.2,1.5-0.6l7.3-7.5c0.2-0.2,0.4-0.5,0.5-0.8l1.5-4.3c0.4-1,1.4-1.6,2.5-1.4h0
			c1,0.2,1.7,1.1,1.7,2.1v4c0,0.2,0,0.4-0.1,0.6l-2.4,7.8h5.7"/>
		<path class="st0" d="M13.7,50.2h2.4l1.2,0.7c0.7,0.4,1.6,0.6,2.4,0.6h12.7"/>
		<path class="st0" d="M38,36.8h-6c-1.3,0-2.4-1.1-2.4-2.4v-0.1c0-1.3,1.1-2.4,2.4-2.4h6c1.3,0,2.4,1.1,2.4,2.4v0.1
			C40.5,35.7,39.4,36.8,38,36.8z"/>
		<path class="st0" d="M38.6,41.7h-7.3c-1.3,0-2.4-1.1-2.4-2.4v-0.1c0-1.3,1.1-2.4,2.4-2.4h7.3c1.3,0,2.4,1.1,2.4,2.4v0.1
			C41.1,40.6,40,41.7,38.6,41.7z"/>
		<path class="st0" d="M37.4,46.6h-5.4c-1.3,0-2.4-1.1-2.4-2.4v-0.1c0-1.3,1.1-2.4,2.4-2.4h5.4c1.3,0,2.4,1.1,2.4,2.4v0.1
			C39.8,45.5,38.8,46.6,37.4,46.6z"/>
		<path class="st0" d="M36.8,51.5h-4.3c-1.3,0-2.4-1.1-2.4-2.4V49c0-1.3,1.1-2.4,2.4-2.4h4.3c1.3,0,2.4,1.1,2.4,2.4v0.1
			C39.2,50.4,38.2,51.5,36.8,51.5z"/>
		<path class="st0" d="M24.5,36.3c0,4.7-3.8,8.5-8.5,8.5"/>
		<rect x="5.4" y="31.5" class="st0" width="8.2" height="20.9"/>
	</g>
	<g>
		<g>
			<g>
				<path class="st0" d="M46.7,39h-1.3c-1.7,0-3.1-1.4-3.1-3.1v0c0-1.7,1.4-3.1,3.1-3.1h1.3c1.7,0,3.1,1.4,3.1,3.1v0"/>
				<path class="st0" d="M45.5,39h1.3c1.7,0,3.1,1.4,3.1,3.1v0c0,1.7-1.4,3.1-3.1,3.1h-1.3c-1.7,0-3.1-1.4-3.1-3.1v0"/>
				<line class="st0" x1="46.1" y1="30.3" x2="46.1" y2="32.8"/>
				<line class="st0" x1="46.1" y1="45.3" x2="46.1" y2="47.8"/>
			</g>
		</g>
		<path class="st0" d="M33.5,31.9V17.5c0-0.7,0.4-1.3,1-1.7l10.5-5.4c0.6-0.3,1.3-0.3,1.9,0l10.5,5.4c0.6,0.3,1,1,1,1.7v31.8
			c0,2.5-2,4.5-4.5,4.5h-16c-1.7,0-3.1-0.9-3.9-2.3"/>
		<circle class="st0" cx="46.1" cy="17.7" r="2.3"/>
	</g>
</g>
</svg>
