<?xml version="1.0" encoding="utf-8"?>
<!-- Generator: Adobe Illustrator 21.1.0, SVG Export Plug-In . SVG Version: 6.00 Build 0)  -->
<svg version="1.1" id="图层_1" xmlns="http://www.w3.org/2000/svg" xmlns:xlink="http://www.w3.org/1999/xlink" x="0px" y="0px"
	 width="96px" height="96px" viewBox="0 0 96 96" style="enable-background:new 0 0 96 96;" xml:space="preserve">
<style type="text/css">
	.st0{fill:#ED2B2B;}
	.st1{fill:#FFFFFF;enable-background:new    ;}
	.st2{fill:#FFFFFF;}
	.st3{opacity:0.2;fill:#ED2B2B;enable-background:new    ;}
</style>
<g>
	<path class="st0" d="M73,75.2H12c-2.4,0-4.4-2-4.4-4.4V33.6c0-2.4,2-4.4,4.4-4.4h61c2.4,0,4.4,2,4.4,4.4v37.2
		C77.4,73.3,75.4,75.2,73,75.2z"/>
	<path class="st1" d="M86.6,20.8H46.1c-1,0-1.8,0.8-1.8,1.8v26.9c0,1,0.8,1.8,1.8,1.8h3.5v7.8c0,0.9,1,1.4,1.7,0.8l9.9-8.5h25.4
		c1,0,1.8-0.8,1.8-1.8V22.5C88.4,21.5,87.6,20.8,86.6,20.8z"/>
	<g>
		<circle class="st2" cx="30.3" cy="48.7" r="8.4"/>
		<path class="st2" d="M14.1,72.8c0-8.9,7.2-16.2,16.2-16.2s16.2,7.2,16.2,16.2"/>
	</g>
	<path class="st3" d="M86.6,20.8H46.1c-1,0-1.8,0.8-1.8,1.8v26.9c0,1,0.8,1.8,1.8,1.8h3.5v7.8c0,0.9,1,1.4,1.7,0.8l9.9-8.5h25.4
		c1,0,1.8-0.8,1.8-1.8V22.5C88.4,21.5,87.6,20.8,86.6,20.8z"/>
	<path class="st2" d="M72.2,35l-9.4-5.4c-0.8-0.5-1.8,0.1-1.8,1v10.8c0,0.9,1,1.5,1.8,1l9.4-5.4C72.9,36.6,72.9,35.5,72.2,35z"/>
</g>
</svg>
