<?xml version="1.0" encoding="utf-8"?>
<!-- Generator: Adobe Illustrator 21.1.0, SVG Export Plug-In . SVG Version: 6.00 Build 0)  -->
<svg version="1.1" id="图层_1" xmlns="http://www.w3.org/2000/svg" xmlns:xlink="http://www.w3.org/1999/xlink" x="0px" y="0px"
	 width="120.8px" height="27.3px" viewBox="0 0 120.8 27.3" style="enable-background:new 0 0 120.8 27.3;" xml:space="preserve">
<style type="text/css">
	.st0{fill:#F15A29;}
	.st1{fill:#3B6E8F;}
</style>
<g>
	<path class="st0" d="M13.6,13.8c-0.1,0-0.2-0.1-0.2-0.2l0,0c0-0.1,0.1-0.2,0.2-0.2l0,0h9.5c0.1,0,0.2,0.1,0.2,0.2l0,0
		c0,0.1-0.1,0.2-0.2,0.2l0,0H13.6L13.6,13.8z"/>
	<circle class="st0" cx="25.6" cy="13.7" r="1.6"/>
	<path class="st1" d="M53.5,14.3c0.1,0.1,0.2,0.4,0.4,0.8c0.2,0.4,0.4,1,0.7,1.6c0.2,0.6,0.5,1.2,0.8,1.9s0.5,1.3,0.8,1.8
		s0.5,1.2,0.8,1.9c0.2,0.4,0.2,0.7,0.1,1.1c-0.1,0.4-0.4,0.7-0.8,0.8c-0.2,0.1-0.4,0.1-0.6,0.1c-0.2,0-0.5-0.1-0.8-0.2
		c-0.2-0.1-0.4-0.4-0.5-0.6l0,0c-0.1-0.1-0.2-0.4-0.4-0.8c-0.2-0.4-0.4-0.9-0.7-1.5c-0.2-0.6-0.5-1.2-0.8-1.8
		c-0.3-0.7-0.5-1.3-0.8-1.8c-0.2-0.5-0.5-1-0.7-1.4c-0.2-0.4-0.3-0.6-0.4-0.7c-0.1-0.2-0.3-0.3-0.5-0.4C50,15,49.8,15,49.6,15.2
		c-0.2,0.1-0.3,0.2-0.4,0.4c-0.1,0.2-0.1,0.3-0.1,0.5v7c0,0.4-0.1,0.7-0.4,1s-0.6,0.4-1,0.4c-0.4,0-0.7-0.1-1-0.4
		c-0.3-0.2-0.5-0.6-0.5-1V4.5c0-0.4,0.2-0.8,0.5-1C47,3.1,47.4,3,47.7,3s0.7,0.1,1,0.4s0.4,0.6,0.4,1v7c0,0.2,0.1,0.3,0.1,0.5
		c0.1,0.2,0.2,0.2,0.4,0.4c0.2,0.1,0.4,0.1,0.6,0.1c0.2-0.1,0.4-0.2,0.5-0.4c0.1-0.1,0.1-0.3,0.4-0.7c0.2-0.4,0.4-0.8,0.7-1.4
		c0.2-0.5,0.5-1.1,0.8-1.8c0.3-0.7,0.5-1.3,0.8-1.8c0.2-0.6,0.5-1.1,0.7-1.5C54.2,4.3,54.4,4,54.4,4l0,0c0.1-0.2,0.3-0.5,0.5-0.6
		C55.2,3.1,55.4,3,55.7,3c0.2,0,0.4,0.1,0.6,0.1c0.4,0.2,0.6,0.4,0.8,0.8c0.1,0.4,0.1,0.7-0.1,1.1c-0.3,0.7-0.6,1.4-0.8,1.9
		s-0.5,1.1-0.8,1.8c-0.3,0.7-0.5,1.3-0.8,1.9c-0.2,0.6-0.5,1.1-0.7,1.6c-0.2,0.4-0.3,0.7-0.4,0.8c-0.1,0.1-0.1,0.2-0.2,0.4
		c-0.1,0.1-0.1,0.2-0.2,0.3c0.1,0.1,0.1,0.2,0.2,0.3C53.3,14.1,53.4,14.2,53.5,14.3z"/>
	<path class="st1" d="M62.4,23.9c-0.3,0.3-0.6,0.4-1,0.4c-0.4,0-0.7-0.1-1-0.4c-0.3-0.3-0.4-0.6-0.4-1V4.5c0-0.4,0.1-0.7,0.4-1
		s0.6-0.4,1-0.4c0.4,0,0.7,0.1,1,0.4s0.4,0.6,0.4,1v18.4C62.8,23.3,62.6,23.6,62.4,23.9z"/>
	<path class="st1" d="M76,6.4c0.3,0.7,0.5,1.4,0.5,2.2v14.3c0,0.4-0.1,0.7-0.4,1c-0.3,0.3-0.6,0.4-1,0.4s-0.7-0.1-1-0.4
		c-0.3-0.3-0.4-0.6-0.4-1V8.6c0-0.6-0.2-1.1-0.5-1.5c-0.3-0.4-0.7-0.8-1.2-1c-0.4-0.2-0.7-0.2-1.1-0.2c-0.5,0-1,0.2-1.6,0.5
		c-0.4,0.3-0.8,0.7-1,1.2c-0.1,0.2-0.1,0.3-0.2,0.5c0,0.2-0.1,0.4-0.1,0.5v14.3c0,0.4-0.1,0.7-0.4,1c-0.3,0.3-0.6,0.4-1,0.4
		c-0.4,0-0.7-0.1-1-0.4c-0.3-0.3-0.4-0.6-0.4-1V8.6c0-0.5,0.1-1.1,0.2-1.6c0.2-0.5,0.4-1,0.7-1.4c0.6-1,1.4-1.6,2.5-2.1
		C69.3,3.1,70,3,70.7,3c1.1,0,2.2,0.3,3.1,1C74.9,4.6,75.6,5.4,76,6.4z"/>
	<path class="st1" d="M81.8,23.3c-0.4-0.3-0.8-0.7-1.2-1.1c-0.4-0.4-0.6-0.9-0.8-1.4c-0.3-0.7-0.4-1.4-0.4-2.2V8.6
		c0-0.5,0.1-1.1,0.2-1.6s0.4-1,0.7-1.4c0.6-1,1.4-1.6,2.5-2.1C83.5,3.1,84.3,3,85,3c1.1,0,2.2,0.3,3.1,1c0.9,0.6,1.6,1.4,2,2.4
		c0.3,0.7,0.5,1.4,0.5,2.2v10.1c0,1.1-0.3,2.2-1,3.1c-0.3,0.4-0.7,0.8-1.1,1.2c-0.4,0.4-0.9,0.6-1.4,0.8c-0.7,0.3-1.4,0.4-2.2,0.4
		C83.8,24.3,82.8,24,81.8,23.3z M82.2,18.7c0,0.6,0.2,1.1,0.5,1.6c0.3,0.4,0.7,0.8,1.2,1c0.3,0.1,0.7,0.2,1.1,0.2
		c0.6,0,1.1-0.2,1.6-0.5c0.4-0.3,0.8-0.7,1-1.2c0.1-0.3,0.2-0.7,0.2-1.1v-10c0-0.6-0.2-1.1-0.5-1.5c-0.3-0.4-0.7-0.8-1.2-1
		c-0.4-0.2-0.7-0.2-1.1-0.2c-0.5,0-1,0.2-1.6,0.5c-0.4,0.3-0.8,0.7-1,1.2c-0.1,0.2-0.1,0.3-0.2,0.5c0,0.2-0.1,0.4-0.1,0.5L82.2,18.7
		L82.2,18.7z"/>
	<path class="st1" d="M96.4,22.9c0,0.4-0.1,0.7-0.4,1c-0.3,0.3-0.6,0.4-1,0.4c-0.4,0-0.7-0.1-1-0.4c-0.3-0.3-0.4-0.6-0.4-1V4.5
		c0-0.4,0.1-0.7,0.4-1c0.2-0.2,0.6-0.4,1-0.4h3.3c1.4,0,2.7,0.4,3.8,1.1c1.1,0.7,1.9,1.8,2.4,3c0.4,0.8,0.5,1.8,0.5,2.6
		c0,1.3-0.4,2.6-1.1,3.8c-0.8,1.1-1.8,1.9-3,2.4c-0.8,0.4-1.7,0.5-2.6,0.5h-1.3c-0.1,0-0.2,0.1-0.4,0.1c-0.1,0.1-0.2,0.2-0.2,0.4
		V22.9z M96.4,13.1c0,0.1,0.1,0.2,0.1,0.4c0.1,0.1,0.2,0.1,0.4,0.1h1.3c0.8,0,1.5-0.2,2.2-0.7c0.7-0.4,1.1-1,1.4-1.7
		c0.2-0.4,0.3-1,0.3-1.5c0-0.8-0.2-1.5-0.7-2.2c-0.4-0.6-1-1.1-1.7-1.4c-0.5-0.2-1-0.3-1.5-0.3h-1.3c-0.2,0-0.3,0.1-0.4,0.1
		c-0.1,0.1-0.1,0.2-0.1,0.4V13.1z"/>
	<path class="st1" d="M111,6.3c-0.4,0.2-0.7,0.6-0.8,1C110,7.5,110,7.8,110,8.1c0,0.4,0.1,0.7,0.2,1c0.1,0.3,0.3,0.7,0.6,1.1
		c0.2,0.3,0.5,0.7,0.9,1.1c0.4,0.4,0.8,0.8,1.4,1.3c0.2,0.2,0.5,0.4,0.8,0.7c0.3,0.2,0.6,0.5,0.9,0.8c0.3,0.3,0.6,0.6,0.8,0.9
		c0.2,0.3,0.4,0.5,0.6,0.8c0.3,0.5,0.5,0.9,0.7,1.3c0.2,0.7,0.4,1.4,0.4,2.1c0,1-0.3,2-0.9,2.8c-0.5,0.8-1.3,1.4-2.2,1.9
		c-0.7,0.2-1.3,0.4-2,0.4c-1,0-2-0.3-2.9-0.9c-0.8-0.5-1.4-1.3-1.9-2.2c-0.2-0.6-0.4-1.3-0.4-2c0-0.4,0.1-0.7,0.4-1
		c0.3-0.3,0.6-0.4,1-0.4c0.4,0,0.7,0.1,1,0.4c0.3,0.3,0.4,0.6,0.4,1s0.1,0.8,0.4,1.3c0.2,0.4,0.6,0.7,1,0.8c0.3,0.1,0.6,0.2,0.9,0.2
		c0.5,0,0.9-0.1,1.3-0.4c0.4-0.3,0.7-0.6,0.8-1c0.1-0.3,0.2-0.6,0.2-0.9c0-0.4-0.1-0.7-0.2-1c-0.1-0.3-0.3-0.7-0.6-1
		c-0.2-0.3-0.5-0.7-1-1.1c-0.4-0.4-0.8-0.8-1.4-1.3c-0.4-0.3-0.7-0.7-1.1-1c-0.4-0.4-0.7-0.7-1.1-1.1c-0.8-0.8-1.3-1.6-1.6-2.5
		c-0.2-0.7-0.4-1.4-0.4-2.1c0-0.5,0.1-1,0.2-1.5s0.4-1,0.7-1.4c0.6-0.8,1.4-1.4,2.3-1.8c0.6-0.2,1.3-0.4,2-0.4
		c1.1,0,2.1,0.3,2.9,0.8c0.8,0.5,1.4,1.3,1.9,2.2c0.2,0.6,0.4,1.3,0.4,2c0,0.4-0.1,0.7-0.4,1c-0.3,0.3-0.6,0.4-1,0.4
		c-0.4,0-0.7-0.1-1-0.4c-0.3-0.3-0.4-0.6-0.4-1c0-0.4-0.1-0.8-0.4-1.3c-0.2-0.4-0.6-0.7-1-0.8c-0.2-0.1-0.5-0.2-0.8-0.2
		C111.8,5.9,111.4,6,111,6.3z"/>
	<path class="st1" d="M43.7,18.2c0-0.4-0.1-0.7-0.4-1s-0.6-0.4-1-0.4s-0.7,0.1-1,0.4s-0.4,0.6-0.4,1v0.1l0,0v0.5
		c0,0.4-0.1,0.7-0.2,1.1c-0.2,0.5-0.5,0.9-1,1.2c-0.4,0.3-1,0.5-1.6,0.5c-0.4,0-0.7-0.1-1.1-0.2c-0.5-0.2-0.9-0.5-1.2-1
		c-0.3-0.4-0.5-1-0.5-1.6v-4.3H43c0,0,0.7,0,0.7-0.7c0,0,0-0.3,0-0.6l0,0V8.8c0-0.7-0.2-1.4-0.5-2.2c-0.4-1-1.1-1.8-2-2.4
		C40.3,3.3,39.3,3,38.1,3c-0.8,0-1.5,0.1-2.2,0.4c-1,0.4-1.9,1.1-2.5,2.1c-0.3,0.4-0.5,0.9-0.7,1.4S32.5,8,32.5,8.6v10.1
		c0,0.8,0.1,1.5,0.4,2.2c0.2,0.5,0.5,1,0.8,1.4c0.4,0.4,0.7,0.8,1.2,1.1c1,0.7,2,1,3.1,1c0.8,0,1.5-0.1,2.2-0.4
		c0.5-0.2,1-0.5,1.4-0.8c0.4-0.4,0.8-0.7,1.1-1.2c0.7-1,1-2,1-3.1L43.7,18.2z M35.4,8.6c0-0.2,0-0.4,0.1-0.5c0-0.2,0.1-0.4,0.2-0.5
		c0.2-0.5,0.5-0.9,1-1.2c0.5-0.3,1-0.5,1.6-0.5c0.4,0,0.7,0.1,1.1,0.2c0.5,0.2,0.9,0.5,1.2,1C40.8,7.5,41,8,41,8.6v3h-5.5L35.4,8.6
		L35.4,8.6z"/>
	<path class="st1" d="M119.6,21.2c0.7,0,1.1,0.4,1.1,1.2v0.7c0,0.8-0.5,1.2-1.1,1.2c-0.7,0-1.2-0.4-1.2-1.2v-0.7
		C118.4,21.6,118.9,21.2,119.6,21.2z M119.6,24c0.5,0,0.9-0.3,0.9-1v-0.7c0-0.7-0.4-1-0.9-1s-0.9,0.3-0.9,1v0.7
		C118.7,23.7,119.1,24,119.6,24z M120.1,23.5C120.1,23.6,120.1,23.6,120.1,23.5l-0.2,0.1c-0.1,0-0.1,0-0.1-0.1v-0.4
		c0-0.2-0.1-0.2-0.2-0.2h-0.2v0.6c0,0.1,0,0.1-0.1,0.1h-0.1c-0.1,0-0.1,0-0.1-0.1V22c0-0.1,0-0.1,0.1-0.1h0.5c0.2,0,0.4,0.1,0.4,0.4
		v0.1c0,0.2-0.1,0.3-0.2,0.4c0.1,0.1,0.2,0.2,0.2,0.4V23.5z M119.4,22.2v0.5h0.2c0.1,0,0.2-0.1,0.2-0.2v-0.1c0-0.1-0.1-0.2-0.2-0.2
		H119.4z"/>
	<path class="st1" d="M20.6,20.3l-6.1-6.1l3.4,1.4h0.1c0.1,0,0.1-0.1,0.2-0.1c0.1-0.1,0-0.2-0.1-0.2l-3.9-1.6L18,12
		c0.1-0.1,0.1-0.2,0.1-0.2c-0.1-0.1-0.2-0.1-0.2-0.1L14.5,13c3.1-3.1,6.1-6.1,6.1-6.1c0.1-0.1,0.1-0.2,0-0.3c-0.1-0.1-0.2-0.1-0.3,0
		c0,0-3,3-6.2,6.2l1.4-3.5c0.1-0.1,0-0.2-0.1-0.2c-0.1-0.1-0.2,0-0.2,0.1l-1.3,3.4V4c0-0.1-0.1-0.2-0.2-0.2c-0.1,0-0.2,0.1-0.2,0.2
		v8.6c-0.5-1.1-1-2.4-1.3-3.3C12.1,9.2,12,9.2,12,9.2c-0.1,0.1-0.1,0.2-0.1,0.2c0.4,1,0.9,2.2,1.4,3.4L7,6.7c-0.1-0.1-0.2-0.1-0.3,0
		C6.6,6.8,6.6,6.9,6.7,7l6.1,6.2l-3.4-1.4c-0.1-0.1-0.2,0-0.2,0.1c-0.1,0.1,0,0.2,0.1,0.2l3.3,1.4H4.1c-0.1,0-0.2,0.1-0.2,0.2
		c0,0.1,0.1,0.2,0.2,0.2h8.7l-3.4,1.4c-0.1,0.1-0.1,0.2-0.1,0.2c0.1,0.1,0.1,0.1,0.2,0.1h0.1l3.4-1.4c-2.2,2.2-4.6,4.5-6.1,6
		c-0.1,0.1-0.1,0.2,0,0.3c0.1,0.1,0.1,0.1,0.1,0.1c0.1,0,0.1,0,0.1-0.1l0,0c1.5-1.5,3.9-3.9,6-6L11.7,18c-0.1,0.1,0,0.2,0.1,0.2h0.1
		c0.1,0,0.1-0.1,0.2-0.1l1.4-3.4v8.6c0,0.1,0.1,0.2,0.2,0.2c0.1,0,0.2-0.1,0.2-0.2v-8.7c0.7,1.9,1.4,3.4,1.4,3.4
		c0,0.1,0.1,0.1,0.2,0.1h0.1c0.1-0.1,0.1-0.2,0.1-0.2c0,0-0.6-1.6-1.4-3.4l6,6.1c0.1,0.1,0.1,0.1,0.1,0.1s0.1,0,0.1-0.1
		C20.7,20.5,20.7,20.4,20.6,20.3z"/>
	<circle class="st1" cx="5.1" cy="22.2" r="1.6"/>
	<circle class="st1" cx="7.1" cy="16.4" r="1.6"/>
	<circle class="st1" cx="22.2" cy="5.1" r="1.6"/>
	<circle class="st1" cx="20.2" cy="10.9" r="1.6"/>
	<circle class="st1" cx="22.2" cy="22.2" r="1.6"/>
	<circle class="st1" cx="16.4" cy="20.2" r="1.6"/>
	<circle class="st1" cx="5.2" cy="5.1" r="1.6"/>
	<circle class="st1" cx="10.9" cy="7.1" r="1.6"/>
	<circle class="st1" cx="13.7" cy="25.7" r="1.6"/>
	<circle class="st1" cx="11" cy="20.2" r="1.6"/>
	<circle class="st1" cx="13.7" cy="1.6" r="1.6"/>
	<circle class="st1" cx="16.4" cy="7.1" r="1.6"/>
	<circle class="st1" cx="20.2" cy="16.4" r="1.6"/>
	<circle class="st1" cx="1.6" cy="13.7" r="1.6"/>
	<circle class="st1" cx="7.1" cy="10.9" r="1.6"/>
</g>
</svg>
