<svg width="284" height="64" xmlns="http://www.w3.org/2000/svg" xmlns:xlink="http://www.w3.org/1999/xlink" xml:space="preserve" overflow="hidden"><defs><clipPath id="clip0"><rect x="0" y="0" width="284" height="64"/></clipPath><clipPath id="clip1"><rect x="0" y="0" width="284" height="63"/></clipPath><clipPath id="clip2"><rect x="0" y="0" width="284" height="63"/></clipPath><clipPath id="clip3"><rect x="0" y="0" width="284" height="63"/></clipPath></defs><g clip-path="url(#clip0)"><g clip-path="url(#clip1)"><g clip-path="url(#clip2)"><g clip-path="url(#clip3)"><path d="M17.9795 0 0 31.145 2.9931 36.3358 20.9726 5.19083 38.9731 5.19083 56.9526 36.3358 59.9457 31.145 41.9662 0 17.9795 0Z" fill="#93D500" fill-rule="nonzero" fill-opacity="1" transform="matrix(1.01683 0 0 1 0 0.355036)"/><path d="M17.9795 41.5266 23.9866 41.5266 35.959 20.7633 47.9524 41.5266 53.9595 41.5266 35.959 10.3817 17.9795 41.5266Z" fill="#244B5A" fill-rule="nonzero" fill-opacity="1" transform="matrix(1.01683 0 0 1 0 0.355036)"/><path d="M23.9866 10.3817 5.9862 41.5266 17.9795 62.2899 53.9595 62.2899 56.9526 57.0991 20.9726 57.0991 11.9933 41.5266 29.9728 10.3817 23.9866 10.3817Z" fill="#93D500" fill-rule="nonzero" fill-opacity="1" transform="matrix(1.01683 0 0 1 0 0.355036)"/><path d="M47.9524 0 65.9319 31.145 56.9526 46.7174 20.9726 46.7174 23.9866 51.9083 59.9457 51.9083 71.939 31.145 53.9595 0 47.9524 0Z" fill="#93D500" fill-rule="nonzero" fill-opacity="1" transform="matrix(1.01683 0 0 1 0 0.355036)"/><path d="M234.697 12.3282 232.98 12.3282 230.803 18.6493 232.227 18.6493 232.687 17.2051 234.969 17.2051 235.429 18.6493 236.852 18.6493 234.676 12.3282ZM233.043 16.1585 233.817 13.7724 233.859 13.7724 234.634 16.1585 233.022 16.1585Z" fill="#93D500" fill-rule="nonzero" fill-opacity="1" transform="matrix(1.01683 0 0 1 0 0.355036)"/><path d="M238.234 18.5028C238.464 18.6493 238.757 18.7121 239.071 18.7121 239.427 18.7121 239.72 18.6284 239.971 18.4609 240.222 18.2935 240.39 18.0632 240.494 17.7911L240.536 17.7911 240.536 18.6493 241.792 18.6493 241.792 13.919 240.473 13.919 240.473 16.6399C240.473 16.8493 240.432 17.0376 240.348 17.1632 240.264 17.3097 240.159 17.4144 240.013 17.4981 239.866 17.5818 239.72 17.6028 239.573 17.6028 239.322 17.6028 239.134 17.519 238.987 17.3516 238.841 17.1842 238.757 16.9748 238.757 16.6818L238.757 13.898 237.438 13.898 237.438 16.9121C237.438 17.2888 237.501 17.6028 237.648 17.8749 237.773 18.147 237.962 18.3353 238.213 18.4819" fill="#93D500" fill-rule="nonzero" fill-opacity="1" transform="matrix(1.01683 0 0 1 0 0.355036)"/><path d="M243.153 17.3725C243.153 17.6865 243.215 17.9377 243.341 18.147 243.467 18.3563 243.655 18.5028 243.885 18.6074 244.115 18.7121 244.408 18.754 244.722 18.733 244.89 18.733 245.036 18.7121 245.162 18.6912 245.288 18.6702 245.371 18.6493 245.434 18.6284L245.225 17.6446C245.225 17.6446 245.141 17.6446 245.078 17.6656 245.015 17.6656 244.953 17.6656 244.89 17.6656 244.806 17.6656 244.722 17.6656 244.66 17.6237 244.597 17.6028 244.534 17.54 244.513 17.4772 244.492 17.4144 244.45 17.3097 244.45 17.2051L244.45 14.9027 245.35 14.9027 245.35 13.919 244.45 13.919 244.45 12.7887 243.132 12.7887 243.132 13.919 242.483 13.919 242.483 14.9027 243.132 14.9027 243.132 17.3725Z" fill="#93D500" fill-rule="nonzero" fill-opacity="1" transform="matrix(1.01683 0 0 1 0 0.355036)"/><path d="M250.143 15.0074C249.955 14.6306 249.683 14.3585 249.327 14.1492 248.971 13.9399 248.574 13.8352 248.092 13.8352 247.611 13.8352 247.192 13.9399 246.857 14.1492 246.501 14.3585 246.25 14.6306 246.041 15.0074 245.853 15.3841 245.769 15.8027 245.769 16.2841 245.769 16.7655 245.853 17.2051 246.041 17.5609 246.229 17.9377 246.501 18.2098 246.857 18.4191 247.213 18.6284 247.611 18.733 248.092 18.733 248.574 18.733 248.992 18.6284 249.327 18.4191 249.683 18.2098 249.934 17.9167 250.143 17.5609 250.332 17.1842 250.416 16.7655 250.416 16.2841 250.416 15.8027 250.332 15.3632 250.143 15.0074M248.971 17.0167C248.888 17.226 248.783 17.3935 248.636 17.519 248.49 17.6446 248.302 17.7074 248.092 17.7074 247.883 17.7074 247.695 17.6446 247.548 17.519 247.402 17.3935 247.276 17.226 247.213 17.0167 247.129 16.8074 247.108 16.5562 247.108 16.2841 247.108 16.012 247.15 15.7609 247.213 15.5516 247.276 15.3422 247.402 15.1748 247.548 15.0492 247.695 14.9236 247.883 14.8608 248.092 14.8608 248.302 14.8608 248.49 14.9236 248.636 15.0492 248.783 15.1748 248.888 15.3422 248.971 15.5516 249.034 15.7609 249.076 16.012 249.076 16.2841 249.076 16.5562 249.034 16.8074 248.971 17.0167" fill="#93D500" fill-rule="nonzero" fill-opacity="1" transform="matrix(1.01683 0 0 1 0 0.355036)"/><path d="M255.627 14.9446C255.46 14.5887 255.209 14.3166 254.916 14.1283 254.623 13.9608 254.309 13.8562 253.953 13.8562 253.681 13.8562 253.471 13.898 253.283 13.9817 253.116 14.0655 252.969 14.1911 252.844 14.3166 252.739 14.4422 252.655 14.5887 252.592 14.7143L252.53 14.7143 252.53 13.919 251.232 13.919 251.232 20.4284 252.551 20.4284 252.551 17.8958 252.592 17.8958C252.655 18.0214 252.739 18.1679 252.844 18.2935 252.948 18.4191 253.095 18.5237 253.283 18.6074 253.451 18.6912 253.681 18.733 253.932 18.733 254.288 18.733 254.623 18.6493 254.916 18.4609 255.209 18.2725 255.439 18.0005 255.606 17.6446 255.774 17.2888 255.858 16.8283 255.858 16.3051 255.858 15.7818 255.774 15.3213 255.606 14.9446M254.413 17.0167C254.33 17.226 254.225 17.3935 254.078 17.519 253.932 17.6446 253.744 17.6865 253.534 17.6865 253.325 17.6865 253.137 17.6237 252.99 17.519 252.844 17.3935 252.739 17.2469 252.655 17.0376 252.571 16.8283 252.53 16.5772 252.53 16.3051 252.53 16.033 252.571 15.7818 252.655 15.5725 252.739 15.3632 252.844 15.1957 252.99 15.0911 253.137 14.9864 253.325 14.9236 253.534 14.9236 253.744 14.9236 253.932 14.9864 254.078 15.0911 254.225 15.2167 254.351 15.3632 254.413 15.5725 254.497 15.7818 254.518 16.012 254.518 16.2841 254.518 16.5562 254.476 16.8074 254.392 17.0167" fill="#93D500" fill-rule="nonzero" fill-opacity="1" transform="matrix(1.01683 0 0 1 0 0.355036)"/><path d="M260.923 15.0074C260.734 14.6306 260.462 14.3585 260.106 14.1492 259.751 13.9399 259.353 13.8352 258.872 13.8352 258.39 13.8352 257.972 13.9399 257.637 14.1492 257.281 14.3585 257.03 14.6306 256.82 15.0074 256.632 15.3841 256.527 15.8027 256.527 16.2841 256.527 16.7655 256.632 17.2051 256.82 17.5609 257.009 17.9377 257.281 18.2098 257.637 18.4191 257.992 18.6284 258.39 18.733 258.872 18.733 259.353 18.733 259.772 18.6284 260.106 18.4191 260.462 18.2098 260.713 17.9167 260.923 17.5609 261.111 17.1842 261.195 16.7655 261.195 16.2841 261.195 15.8027 261.111 15.3632 260.923 15.0074M259.751 17.0167C259.688 17.226 259.562 17.3935 259.416 17.519 259.269 17.6446 259.081 17.7074 258.872 17.7074 258.662 17.7074 258.474 17.6446 258.327 17.519 258.181 17.3935 258.055 17.226 257.992 17.0167 257.93 16.8074 257.888 16.5562 257.888 16.2841 257.888 16.012 257.93 15.7609 257.992 15.5516 258.076 15.3422 258.181 15.1748 258.327 15.0492 258.474 14.9236 258.662 14.8608 258.872 14.8608 259.081 14.8608 259.269 14.9236 259.416 15.0492 259.562 15.1748 259.667 15.3422 259.751 15.5516 259.834 15.7609 259.855 16.012 259.855 16.2841 259.855 16.5562 259.813 16.8074 259.751 17.0167" fill="#93D500" fill-rule="nonzero" fill-opacity="1" transform="matrix(1.01683 0 0 1 0 0.355036)"/><path d="M262.702 13.312C262.89 13.312 263.058 13.2492 263.204 13.1236 263.351 12.998 263.414 12.8306 263.414 12.6631 263.414 12.4957 263.351 12.3282 263.204 12.2026 263.058 12.077 262.89 12.0143 262.702 12.0143 262.514 12.0143 262.346 12.077 262.2 12.2026 262.053 12.3282 261.99 12.4957 261.99 12.6631 261.99 12.8306 262.053 12.998 262.2 13.1236 262.346 13.2492 262.514 13.312 262.702 13.312" fill="#93D500" fill-rule="nonzero" fill-opacity="1" transform="matrix(1.01683 0 0 1 0 0.355036)"/><path d="M262.032 13.919 263.351 13.919 263.351 18.6493 262.032 18.6493Z" fill="#93D500" fill-rule="nonzero" fill-opacity="1" transform="matrix(1.01683 0 0 1 0 0.355036)"/><path d="M268.709 16.619 268.709 16.2632C268.709 15.8655 268.646 15.5097 268.542 15.1957 268.437 14.9027 268.269 14.6515 268.06 14.4422 267.851 14.2538 267.621 14.0864 267.349 14.0027 267.076 13.898 266.783 13.8562 266.469 13.8562 266.009 13.8562 265.59 13.9608 265.255 14.1701 264.921 14.3794 264.648 14.6725 264.46 15.0283 264.272 15.405 264.167 15.8237 264.167 16.3051 264.167 16.7865 264.272 17.2469 264.46 17.6028 264.648 17.9586 264.921 18.2516 265.276 18.44 265.632 18.6284 266.051 18.733 266.532 18.733 266.93 18.733 267.265 18.6702 267.558 18.5446 267.851 18.4191 268.102 18.2516 268.29 18.0423 268.479 17.833 268.604 17.5609 268.667 17.2888L267.453 17.2051C267.411 17.3307 267.349 17.4144 267.265 17.4981 267.181 17.5818 267.076 17.6446 266.951 17.6865 266.825 17.7283 266.7 17.7493 266.553 17.7493 266.344 17.7493 266.135 17.7074 265.988 17.6028 265.821 17.519 265.695 17.3725 265.611 17.2051 265.528 17.0376 265.486 16.8283 265.486 16.5981 265.486 16.5981 268.709 16.5981 268.709 16.5981ZM265.611 15.3422C265.695 15.1957 265.821 15.0701 265.967 14.9655 266.114 14.8818 266.302 14.819 266.49 14.819 266.679 14.819 266.846 14.8608 266.993 14.9446 267.139 15.0283 267.244 15.1329 267.328 15.2795 267.411 15.426 267.453 15.5934 267.453 15.7818L265.465 15.7818C265.465 15.6143 265.507 15.4678 265.59 15.3213" fill="#93D500" fill-rule="nonzero" fill-opacity="1" transform="matrix(1.01683 0 0 1 0 0.355036)"/><path d="M269.735 17.3725C269.735 17.6865 269.797 17.9377 269.923 18.147 270.049 18.3563 270.237 18.5028 270.467 18.6074 270.697 18.7121 270.99 18.754 271.304 18.733 271.472 18.733 271.618 18.7121 271.744 18.6912 271.87 18.6702 271.953 18.6493 272.016 18.6284L271.807 17.6446C271.807 17.6446 271.723 17.6446 271.66 17.6656 271.597 17.6656 271.535 17.6656 271.472 17.6656 271.388 17.6656 271.304 17.6656 271.242 17.6237 271.179 17.6028 271.116 17.54 271.095 17.4772 271.074 17.4144 271.032 17.3097 271.032 17.2051L271.032 14.9027 271.932 14.9027 271.932 13.919 271.032 13.919 271.032 12.7887 269.714 12.7887 269.714 13.919 269.065 13.919 269.065 14.9027 269.714 14.9027 269.714 17.3725Z" fill="#93D500" fill-rule="nonzero" fill-opacity="1" transform="matrix(1.01683 0 0 1 0 0.355036)"/><path d="M273.377 11.9724C273.188 11.9724 273.021 12.0352 272.874 12.1608 272.728 12.2864 272.665 12.4538 272.665 12.6212 272.665 12.7887 272.728 12.9561 272.874 13.0817 273.021 13.2073 273.188 13.2701 273.377 13.2701 273.565 13.2701 273.732 13.2073 273.879 13.0817 274.025 12.9561 274.088 12.7887 274.088 12.6212 274.088 12.4538 274.025 12.2864 273.879 12.1608 273.732 12.0352 273.565 11.9724 273.377 11.9724" fill="#93D500" fill-rule="nonzero" fill-opacity="1" transform="matrix(1.01683 0 0 1 0 0.355036)"/><path d="M272.707 13.919 274.025 13.919 274.025 18.6493 272.707 18.6493Z" fill="#93D500" fill-rule="nonzero" fill-opacity="1" transform="matrix(1.01683 0 0 1 0 0.355036)"/><path d="M277.898 17.3516C277.814 17.4772 277.709 17.5609 277.605 17.6237 277.479 17.6865 277.353 17.7074 277.207 17.7074 276.998 17.7074 276.83 17.6446 276.684 17.54 276.537 17.4353 276.412 17.2679 276.328 17.0586 276.244 16.8493 276.202 16.5981 276.202 16.2841 276.202 15.9702 276.244 15.7399 276.328 15.5306 276.412 15.3213 276.537 15.1539 276.684 15.0492 276.83 14.9446 277.019 14.8818 277.207 14.8818 277.437 14.8818 277.646 14.9446 277.793 15.0911 277.939 15.2376 278.044 15.426 278.065 15.6562L279.3 15.6562C279.3 15.3004 279.174 14.9655 279.007 14.6934 278.819 14.4213 278.588 14.212 278.274 14.0655 277.96 13.919 277.605 13.8352 277.186 13.8352 276.705 13.8352 276.286 13.9399 275.951 14.1492 275.616 14.3585 275.344 14.6515 275.156 15.0074 274.967 15.3841 274.884 15.8027 274.884 16.2841 274.884 16.7655 274.967 17.1842 275.156 17.5609 275.344 17.9377 275.616 18.2098 275.951 18.4191 276.307 18.6284 276.726 18.733 277.207 18.733 277.626 18.733 278.002 18.6493 278.295 18.5028 278.609 18.3563 278.84 18.126 279.028 17.8539 279.195 17.5818 279.3 17.2679 279.321 16.8911L278.086 16.8911C278.065 17.0586 278.002 17.2051 277.939 17.3097" fill="#93D500" fill-rule="nonzero" fill-opacity="1" transform="matrix(1.01683 0 0 1 0 0.355036)"/><path d="M233.148 24.0913C233.399 23.9239 233.671 23.8401 234.006 23.8401 234.194 23.8401 234.362 23.8611 234.508 23.9239 234.655 23.9866 234.801 24.0494 234.927 24.1541 235.052 24.2587 235.136 24.3634 235.22 24.5099 235.304 24.6564 235.345 24.8029 235.366 24.9704L236.727 24.9704C236.685 24.6146 236.58 24.2797 236.434 23.9866 236.287 23.6936 236.078 23.4634 235.848 23.275 235.597 23.0866 235.324 22.9192 235.011 22.8355 234.697 22.7308 234.362 22.6889 233.985 22.6889 233.441 22.6889 232.938 22.8145 232.478 23.0657 232.038 23.3169 231.683 23.6936 231.431 24.175 231.18 24.6564 231.034 25.2425 231.034 25.9332 231.034 26.6239 231.159 27.21 231.41 27.6914 231.662 28.1728 232.017 28.5496 232.457 28.8007 232.896 29.0519 233.399 29.1775 233.964 29.1775 234.362 29.1775 234.738 29.1147 235.052 28.9891 235.366 28.8635 235.659 28.6961 235.89 28.4868 236.12 28.2775 236.308 28.0263 236.455 27.7751 236.601 27.503 236.685 27.2309 236.706 26.9379L235.345 26.9379C235.324 27.1053 235.262 27.2518 235.178 27.3774 235.094 27.503 234.99 27.6286 234.885 27.7123 234.759 27.796 234.634 27.8798 234.466 27.9216 234.32 27.9635 234.152 27.9844 233.964 27.9844 233.65 27.9844 233.357 27.9007 233.127 27.7542 232.876 27.6077 232.687 27.3565 232.562 27.0635 232.436 26.7495 232.352 26.3728 232.352 25.9332 232.352 25.4937 232.415 25.1169 232.562 24.8239 232.687 24.5099 232.876 24.2797 233.127 24.1122" fill="#93D500" fill-rule="nonzero" fill-opacity="1" transform="matrix(1.01683 0 0 1 0 0.355036)"/><path d="M241.834 25.4309C241.646 25.0541 241.373 24.782 241.018 24.5727 240.662 24.3634 240.264 24.2587 239.783 24.2587 239.301 24.2587 238.883 24.3634 238.548 24.5727 238.192 24.782 237.941 25.0541 237.732 25.4309 237.543 25.8076 237.459 26.2262 237.459 26.7076 237.459 27.1891 237.543 27.6286 237.732 27.9844 237.92 28.3612 238.192 28.6333 238.548 28.8426 238.904 29.0519 239.301 29.1565 239.783 29.1565 240.264 29.1565 240.683 29.0519 241.018 28.8426 241.373 28.6333 241.625 28.3402 241.834 27.9844 242.022 27.6286 242.127 27.1891 242.127 26.7076 242.127 26.2262 242.022 25.7867 241.834 25.4309M240.662 27.4402C240.578 27.6495 240.473 27.817 240.327 27.9426 240.18 28.0681 239.992 28.1309 239.783 28.1309 239.573 28.1309 239.385 28.0681 239.239 27.9426 239.092 27.817 238.966 27.6495 238.904 27.4402 238.82 27.2309 238.799 26.9797 238.799 26.7076 238.799 26.4355 238.841 26.1844 238.904 25.9751 238.966 25.7658 239.092 25.5983 239.239 25.4727 239.385 25.3471 239.573 25.2844 239.783 25.2844 239.992 25.2844 240.18 25.3471 240.327 25.4727 240.473 25.5983 240.578 25.7658 240.662 25.9751 240.725 26.1844 240.766 26.4355 240.766 26.7076 240.766 26.9797 240.725 27.2309 240.662 27.4402" fill="#93D500" fill-rule="nonzero" fill-opacity="1" transform="matrix(1.01683 0 0 1 0 0.355036)"/><path d="M246.104 24.3425 246.104 25.1378 246.041 25.1378C245.978 25.0123 245.895 24.8867 245.79 24.7611 245.685 24.6355 245.539 24.5099 245.35 24.4262 245.183 24.3425 244.953 24.3006 244.681 24.3006 244.325 24.3006 244.011 24.3843 243.718 24.5727 243.425 24.7611 243.194 25.0123 243.027 25.389 242.86 25.7448 242.755 26.2053 242.755 26.7286 242.755 27.2518 242.839 27.6914 243.006 28.0263 243.174 28.3612 243.404 28.6333 243.697 28.7798 243.99 28.9472 244.304 29.031 244.66 29.031 244.911 29.031 245.12 28.9891 245.308 28.9263 245.497 28.8635 245.643 28.7589 245.748 28.6333 245.874 28.5077 245.957 28.3821 245.999 28.2565L246.062 28.2565 246.062 29.1147C246.062 29.4496 245.978 29.6798 245.79 29.8054 245.601 29.9519 245.371 30.0147 245.078 30.0147 244.89 30.0147 244.722 29.9938 244.597 29.931 244.471 29.8891 244.367 29.8054 244.283 29.7426 244.199 29.6798 244.136 29.5752 244.115 29.4705L242.901 29.6379C242.964 29.8891 243.069 30.1194 243.257 30.3077 243.425 30.517 243.676 30.6636 243.99 30.7891 244.283 30.8938 244.66 30.9566 245.078 30.9566 245.539 30.9566 245.936 30.8938 246.271 30.7473 246.627 30.6008 246.899 30.4124 247.088 30.1403 247.276 29.8682 247.381 29.5333 247.381 29.1356L247.381 24.3425 246.083 24.3425ZM245.999 27.4193C245.915 27.6077 245.811 27.7751 245.664 27.8798 245.518 27.9844 245.329 28.0472 245.12 28.0472 244.911 28.0472 244.722 27.9844 244.576 27.8798 244.429 27.7751 244.325 27.6077 244.241 27.4193 244.157 27.21 244.115 26.9797 244.115 26.7076 244.115 26.4355 244.157 26.2053 244.22 25.996 244.304 25.7867 244.408 25.6192 244.555 25.5146 244.701 25.389 244.89 25.3471 245.099 25.3471 245.308 25.3471 245.497 25.4099 245.643 25.5146 245.79 25.6192 245.895 25.7867 245.978 25.996 246.062 26.2053 246.104 26.4355 246.104 26.7286 246.104 27.0216 246.062 27.2518 245.978 27.4402" fill="#93D500" fill-rule="nonzero" fill-opacity="1" transform="matrix(1.01683 0 0 1 0 0.355036)"/><path d="M249.746 25.1797 249.683 25.1797 249.683 24.3425 248.427 24.3425 248.427 29.0728 249.746 29.0728 249.746 26.3309C249.746 26.1216 249.788 25.9541 249.871 25.8076 249.955 25.6611 250.06 25.5565 250.185 25.4727 250.311 25.389 250.478 25.3681 250.646 25.3681 250.918 25.3681 251.106 25.4518 251.274 25.6192 251.42 25.7867 251.504 26.0169 251.504 26.289L251.504 29.0728 252.823 29.0728 252.823 26.0588C252.823 25.682 252.76 25.3681 252.613 25.1169 252.488 24.8448 252.278 24.6355 252.048 24.5099 251.797 24.3634 251.525 24.3006 251.19 24.3006 250.834 24.3006 250.541 24.3843 250.29 24.5518 250.039 24.7192 249.871 24.9285 249.767 25.2006" fill="#93D500" fill-rule="nonzero" fill-opacity="1" transform="matrix(1.01683 0 0 1 0 0.355036)"/><path d="M253.806 24.3425 255.125 24.3425 255.125 29.0728 253.806 29.0728Z" fill="#93D500" fill-rule="nonzero" fill-opacity="1" transform="matrix(1.01683 0 0 1 0 0.355036)"/><path d="M254.978 22.5843C254.832 22.4587 254.664 22.3959 254.476 22.3959 254.288 22.3959 254.12 22.4587 253.974 22.5843 253.827 22.7099 253.764 22.8773 253.764 23.0448 253.764 23.2122 253.827 23.3797 253.974 23.5052 254.12 23.6308 254.288 23.6936 254.476 23.6936 254.664 23.6936 254.832 23.6308 254.978 23.5052 255.125 23.3797 255.188 23.2122 255.188 23.0448 255.188 22.8773 255.125 22.7099 254.978 22.5843" fill="#93D500" fill-rule="nonzero" fill-opacity="1" transform="matrix(1.01683 0 0 1 0 0.355036)"/><path d="M255.795 25.3262 256.444 25.3262 256.444 27.796C256.444 28.11 256.506 28.3612 256.632 28.5705 256.758 28.7798 256.946 28.9263 257.176 29.031 257.406 29.1356 257.699 29.1775 258.013 29.1565 258.181 29.1565 258.327 29.1356 258.453 29.1147 258.579 29.0937 258.662 29.0728 258.725 29.0519L258.516 28.0681C258.516 28.0681 258.432 28.0681 258.369 28.0891 258.306 28.0891 258.244 28.0891 258.181 28.0891 258.097 28.0891 258.013 28.0891 257.951 28.0472 257.888 28.0263 257.825 27.9635 257.804 27.9007 257.783 27.8379 257.741 27.7332 257.741 27.6286L257.741 25.3262 258.641 25.3262 258.641 24.3425 257.741 24.3425 257.741 23.2122 256.423 23.2122 256.423 24.3425 255.774 24.3425 255.774 25.3262Z" fill="#93D500" fill-rule="nonzero" fill-opacity="1" transform="matrix(1.01683 0 0 1 0 0.355036)"/><path d="M260.588 22.5843C260.441 22.4587 260.274 22.3959 260.086 22.3959 259.897 22.3959 259.73 22.4587 259.583 22.5843 259.437 22.7099 259.374 22.8773 259.374 23.0448 259.374 23.2122 259.437 23.3797 259.583 23.5052 259.73 23.6308 259.897 23.6936 260.086 23.6936 260.274 23.6936 260.441 23.6308 260.588 23.5052 260.734 23.3797 260.797 23.2122 260.797 23.0448 260.797 22.8773 260.734 22.7099 260.588 22.5843" fill="#93D500" fill-rule="nonzero" fill-opacity="1" transform="matrix(1.01683 0 0 1 0 0.355036)"/><path d="M259.416 24.3425 260.734 24.3425 260.734 29.0728 259.416 29.0728Z" fill="#93D500" fill-rule="nonzero" fill-opacity="1" transform="matrix(1.01683 0 0 1 0 0.355036)"/><path d="M264.481 29.0728 266.135 24.3425 264.753 24.3425 263.769 27.7332 263.728 27.7332 262.744 24.3425 261.341 24.3425 263.016 29.0728 264.481 29.0728Z" fill="#93D500" fill-rule="nonzero" fill-opacity="1" transform="matrix(1.01683 0 0 1 0 0.355036)"/><path d="M270.907 27.0425 270.907 26.6867C270.907 26.289 270.844 25.9332 270.739 25.6192 270.635 25.3262 270.467 25.075 270.258 24.8657 270.049 24.6774 269.818 24.5099 269.546 24.4262 269.274 24.3215 268.981 24.2797 268.667 24.2797 268.207 24.2797 267.809 24.3843 267.453 24.5936 267.118 24.8029 266.846 25.096 266.658 25.4518 266.469 25.8286 266.386 26.2472 266.386 26.7286 266.386 27.21 266.469 27.6705 266.658 28.0263 266.846 28.3821 267.118 28.6751 267.474 28.8635 267.83 29.0728 268.249 29.1565 268.73 29.1565 269.128 29.1565 269.463 29.0937 269.776 28.9682 270.07 28.8426 270.321 28.6751 270.509 28.4658 270.697 28.2565 270.823 27.9844 270.886 27.7123L269.672 27.6286C269.63 27.7542 269.567 27.8379 269.483 27.9216 269.4 28.0054 269.295 28.0681 269.17 28.11 269.044 28.1519 268.918 28.1728 268.772 28.1728 268.542 28.1728 268.353 28.1309 268.207 28.0263 268.039 27.9426 267.935 27.796 267.83 27.6286 267.746 27.4612 267.704 27.2518 267.704 27.0216 267.704 27.0216 270.928 27.0216 270.928 27.0216ZM267.809 25.7658C267.893 25.6192 268.018 25.4937 268.165 25.389 268.311 25.3053 268.5 25.2425 268.688 25.2425 268.876 25.2425 269.044 25.2844 269.19 25.3681 269.337 25.4518 269.463 25.5565 269.525 25.703 269.609 25.8495 269.651 26.0169 269.651 26.2053L267.663 26.2053C267.663 26.0379 267.704 25.8704 267.788 25.7448" fill="#93D500" fill-rule="nonzero" fill-opacity="1" transform="matrix(1.01683 0 0 1 0 0.355036)"/><path d="M235.408 34.2846 235.408 33.1752 231.138 33.1752 231.138 39.4963 235.408 39.4963 235.408 38.4079 232.478 38.4079 232.478 36.88 235.178 36.88 235.178 35.7916 232.478 35.7916 232.478 34.2846 235.408 34.2846Z" fill="#93D500" fill-rule="nonzero" fill-opacity="1" transform="matrix(1.01683 0 0 1 0 0.355036)"/><path d="M239.385 33.1752 239.385 35.5404 239.343 35.5404C239.28 35.4148 239.197 35.2893 239.092 35.1637 238.987 35.0381 238.841 34.9125 238.652 34.8288 238.485 34.7451 238.255 34.7032 237.983 34.7032 237.627 34.7032 237.313 34.7869 237.02 34.9753 236.727 35.1427 236.497 35.4148 236.329 35.7916 236.162 36.1474 236.057 36.6079 236.057 37.1521 236.057 37.6963 236.141 38.1149 236.308 38.4917 236.476 38.8475 236.706 39.1196 236.999 39.308 237.292 39.4963 237.606 39.5801 237.983 39.5801 238.234 39.5801 238.464 39.5382 238.632 39.4545 238.799 39.3708 238.946 39.2661 239.071 39.1405 239.176 39.0149 239.259 38.8893 239.322 38.7428L239.385 38.7428 239.385 39.4963 240.683 39.4963 240.683 33.1752 239.364 33.1752ZM239.301 37.8637C239.218 38.073 239.113 38.2405 238.966 38.3451 238.82 38.4707 238.632 38.5126 238.422 38.5126 238.213 38.5126 238.025 38.4498 237.878 38.3451 237.732 38.2196 237.627 38.073 237.543 37.8428 237.459 37.6335 237.438 37.3823 237.438 37.1102 237.438 36.8381 237.48 36.6079 237.543 36.3986 237.627 36.1893 237.732 36.0218 237.878 35.9172 238.025 35.7916 238.213 35.7497 238.422 35.7497 238.632 35.7497 238.82 35.8125 238.966 35.9172 239.113 36.0218 239.239 36.1893 239.301 36.3986 239.385 36.6079 239.427 36.8591 239.427 37.1312 239.427 37.4033 239.385 37.6544 239.301 37.8637" fill="#93D500" fill-rule="nonzero" fill-opacity="1" transform="matrix(1.01683 0 0 1 0 0.355036)"/><path d="M244.869 34.766 244.869 35.5614 244.827 35.5614C244.764 35.4358 244.681 35.3102 244.576 35.1846 244.471 35.059 244.325 34.9334 244.136 34.8497 243.969 34.766 243.739 34.7241 243.467 34.7241 243.111 34.7241 242.797 34.8078 242.504 34.9962 242.211 35.1846 241.98 35.4567 241.792 35.8125 241.625 36.1683 241.52 36.6288 241.52 37.1521 241.52 37.6754 241.604 38.1149 241.771 38.4498 241.939 38.7847 242.169 39.0568 242.462 39.2033 242.755 39.3708 243.069 39.4545 243.425 39.4545 243.676 39.4545 243.885 39.4126 244.074 39.3498 244.262 39.287 244.408 39.1824 244.513 39.0568 244.639 38.9312 244.722 38.8056 244.785 38.68L244.848 38.68 244.848 39.5382C244.848 39.8731 244.764 40.1033 244.576 40.2289 244.387 40.3754 244.157 40.4382 243.864 40.4382 243.676 40.4382 243.508 40.4173 243.383 40.3545 243.257 40.3126 243.153 40.2289 243.069 40.1661 242.985 40.0824 242.922 39.9987 242.901 39.894L241.687 40.0615C241.75 40.3126 241.855 40.5429 242.043 40.7312 242.211 40.9196 242.462 41.0871 242.776 41.2127 243.069 41.3382 243.446 41.3801 243.864 41.3801 244.325 41.3801 244.722 41.3173 245.057 41.1708 245.413 41.0243 245.685 40.8359 245.874 40.5638 246.062 40.2917 246.167 39.9568 246.167 39.5591L246.167 34.766 244.869 34.766ZM244.764 37.8428C244.681 38.0521 244.576 38.1986 244.429 38.3033 244.283 38.4079 244.094 38.4707 243.885 38.4707 243.676 38.4707 243.487 38.4079 243.341 38.3033 243.194 38.1986 243.09 38.0312 243.006 37.8428 242.922 37.6544 242.88 37.4033 242.88 37.1312 242.88 36.8591 242.922 36.6288 242.985 36.4195 243.069 36.2102 243.174 36.0428 243.32 35.9381 243.467 35.8125 243.655 35.7707 243.864 35.7707 244.074 35.7707 244.262 35.8335 244.408 35.9381 244.555 36.0428 244.66 36.2102 244.743 36.4195 244.827 36.6288 244.869 36.8591 244.869 37.1521 244.869 37.4451 244.827 37.6754 244.743 37.8637" fill="#93D500" fill-rule="nonzero" fill-opacity="1" transform="matrix(1.01683 0 0 1 0 0.355036)"/><path d="M251.546 37.1102C251.546 36.7125 251.483 36.3567 251.378 36.0637 251.274 35.7707 251.106 35.5195 250.897 35.3102 250.688 35.1218 250.457 34.9544 250.185 34.8706 249.913 34.766 249.62 34.7241 249.306 34.7241 248.846 34.7241 248.427 34.8288 248.092 35.0381 247.736 35.2474 247.485 35.5404 247.297 35.8962 247.108 36.273 247.004 36.6916 247.004 37.173 247.004 37.6544 247.108 38.1149 247.297 38.4707 247.485 38.8475 247.757 39.1196 248.113 39.308 248.469 39.4963 248.888 39.601 249.369 39.601 249.746 39.601 250.102 39.5382 250.395 39.4335 250.688 39.308 250.939 39.1405 251.127 38.9312 251.316 38.7219 251.441 38.4498 251.504 38.1777L250.29 38.094C250.248 38.2196 250.185 38.3242 250.102 38.387 250.018 38.4707 249.913 38.5335 249.788 38.5754 249.662 38.6172 249.536 38.6382 249.39 38.6382 249.16 38.6382 248.971 38.5963 248.825 38.4917 248.657 38.4079 248.532 38.2614 248.448 38.094 248.364 37.9265 248.322 37.7172 248.322 37.487L251.546 37.487 251.546 37.1312ZM248.322 36.6498C248.322 36.4823 248.364 36.3149 248.448 36.1893 248.532 36.0428 248.657 35.9172 248.804 35.8125 248.95 35.7288 249.139 35.666 249.327 35.666 249.516 35.666 249.683 35.7079 249.829 35.7916 249.976 35.8753 250.081 35.98 250.164 36.1265 250.248 36.273 250.29 36.4404 250.29 36.6288L248.302 36.6288Z" fill="#93D500" fill-rule="nonzero" fill-opacity="1" transform="matrix(1.01683 0 0 1 0 0.355036)"/><path d="M252.446 36.3777 255.334 36.3777 255.334 37.4242 252.446 37.4242Z" fill="#93D500" fill-rule="nonzero" fill-opacity="1" transform="matrix(1.01683 0 0 1 0 0.355036)"/><path d="M259.688 39.3498C260.002 39.2033 260.232 38.9731 260.42 38.701 260.588 38.4289 260.693 38.1149 260.713 37.7382L259.479 37.7382C259.458 37.9056 259.395 38.0521 259.332 38.1568 259.248 38.2824 259.144 38.3661 259.039 38.4289 258.913 38.4917 258.788 38.5126 258.641 38.5126 258.432 38.5126 258.265 38.4498 258.118 38.3451 257.972 38.2405 257.846 38.073 257.762 37.8637 257.679 37.6544 257.637 37.4033 257.637 37.0893 257.637 36.7753 257.679 36.5451 257.762 36.3358 257.846 36.1265 257.972 35.959 258.118 35.8544 258.265 35.7497 258.453 35.6869 258.641 35.6869 258.872 35.6869 259.081 35.7497 259.227 35.8962 259.374 36.0428 259.479 36.2311 259.5 36.4614L260.734 36.4614C260.734 36.1056 260.609 35.7707 260.441 35.4986 260.253 35.2265 260.023 35.0172 259.709 34.8706 259.395 34.7241 259.039 34.6404 258.62 34.6404 258.139 34.6404 257.72 34.7451 257.385 34.9544 257.03 35.1637 256.779 35.4567 256.59 35.8125 256.402 36.1893 256.318 36.6079 256.318 37.0893 256.318 37.5707 256.402 37.9893 256.59 38.3661 256.779 38.7428 257.051 39.0149 257.385 39.2242 257.741 39.4335 258.16 39.5382 258.641 39.5382 259.06 39.5382 259.437 39.4545 259.73 39.308" fill="#93D500" fill-rule="nonzero" fill-opacity="1" transform="matrix(1.01683 0 0 1 0 0.355036)"/><path d="M261.551 33.1752 261.551 38.2405C261.551 38.701 261.676 39.0149 261.907 39.2242 262.137 39.4335 262.514 39.5382 263.016 39.5173 263.183 39.5173 263.309 39.5173 263.414 39.4754 263.518 39.4545 263.602 39.4335 263.665 39.4126L263.455 38.4498C263.455 38.4498 263.393 38.4498 263.372 38.4707 263.33 38.4707 263.288 38.4707 263.225 38.4707 263.1 38.4707 263.016 38.4289 262.953 38.3661 262.89 38.3033 262.869 38.1986 262.869 38.0312L262.869 33.1334 261.551 33.1334Z" fill="#93D500" fill-rule="nonzero" fill-opacity="1" transform="matrix(1.01683 0 0 1 0 0.355036)"/><path d="M268.311 35.8544C268.123 35.4776 267.851 35.2055 267.495 34.9962 267.139 34.7869 266.742 34.6823 266.26 34.6823 265.779 34.6823 265.36 34.7869 265.025 34.9962 264.669 35.2055 264.418 35.4776 264.209 35.8544 264.021 36.2311 263.937 36.6498 263.937 37.1312 263.937 37.6126 264.021 38.0521 264.209 38.4079 264.397 38.7847 264.669 39.0568 265.025 39.2661 265.381 39.4754 265.779 39.5801 266.26 39.5801 266.742 39.5801 267.16 39.4754 267.495 39.2661 267.851 39.0568 268.102 38.7847 268.311 38.4079 268.5 38.0312 268.583 37.6126 268.583 37.1312 268.583 36.6498 268.5 36.2102 268.311 35.8544M267.139 37.8637C267.056 38.073 266.951 38.2405 266.804 38.3661 266.658 38.4917 266.469 38.5545 266.26 38.5545 266.051 38.5545 265.862 38.4917 265.716 38.3661 265.569 38.2405 265.444 38.073 265.381 37.8637 265.318 37.6544 265.276 37.4033 265.276 37.1312 265.276 36.8591 265.318 36.6079 265.381 36.3986 265.465 36.1893 265.569 36.0218 265.716 35.8962 265.862 35.7707 266.051 35.7079 266.26 35.7079 266.469 35.7079 266.658 35.7707 266.804 35.8962 266.951 36.0218 267.056 36.1893 267.139 36.3986 267.202 36.6079 267.244 36.8591 267.244 37.1312 267.244 37.4033 267.202 37.6544 267.139 37.8637" fill="#93D500" fill-rule="nonzero" fill-opacity="1" transform="matrix(1.01683 0 0 1 0 0.355036)"/><path d="M272.456 37.487C272.456 37.6963 272.414 37.8847 272.33 38.0103 272.246 38.1568 272.142 38.2614 271.995 38.3451 271.849 38.4079 271.702 38.4498 271.556 38.4498 271.304 38.4498 271.116 38.3661 270.97 38.1986 270.823 38.0312 270.739 37.8219 270.739 37.5288L270.739 34.7451 269.421 34.7451 269.421 37.7591C269.421 38.1358 269.483 38.4498 269.63 38.7219 269.756 38.994 269.944 39.1824 270.195 39.3289 270.446 39.4754 270.718 39.5382 271.032 39.5382 271.388 39.5382 271.681 39.4545 271.932 39.287 272.184 39.1196 272.351 38.8893 272.456 38.6172L272.497 38.6172 272.497 39.4754 273.753 39.4754 273.753 34.7451 272.435 34.7451 272.435 37.466Z" fill="#93D500" fill-rule="nonzero" fill-opacity="1" transform="matrix(1.01683 0 0 1 0 0.355036)"/><path d="M277.96 33.1752 277.96 35.5404 277.919 35.5404C277.856 35.4148 277.772 35.2893 277.667 35.1637 277.563 35.0381 277.416 34.9125 277.228 34.8288 277.06 34.7451 276.83 34.7032 276.558 34.7032 276.202 34.7032 275.888 34.7869 275.595 34.9753 275.302 35.1427 275.072 35.4148 274.905 35.7916 274.737 36.1474 274.632 36.6079 274.632 37.1521 274.632 37.6963 274.716 38.1149 274.884 38.4917 275.051 38.8475 275.281 39.1196 275.574 39.308 275.867 39.4963 276.181 39.5801 276.558 39.5801 276.809 39.5801 277.039 39.5382 277.207 39.4545 277.374 39.3708 277.521 39.2661 277.646 39.1405 277.751 39.0149 277.835 38.8893 277.919 38.7428L277.981 38.7428 277.981 39.4963 279.279 39.4963 279.279 33.1752 277.96 33.1752ZM277.877 37.8637C277.793 38.073 277.688 38.2405 277.542 38.3451 277.395 38.4707 277.207 38.5126 276.998 38.5126 276.788 38.5126 276.6 38.4498 276.453 38.3451 276.307 38.2196 276.181 38.073 276.119 37.8428 276.035 37.6335 276.014 37.3823 276.014 37.1102 276.014 36.8381 276.056 36.6079 276.119 36.3986 276.202 36.1893 276.307 36.0218 276.453 35.9172 276.6 35.7916 276.788 35.7497 276.998 35.7497 277.207 35.7497 277.395 35.8125 277.542 35.9172 277.688 36.0218 277.814 36.1893 277.877 36.3986 277.96 36.6079 278.002 36.8591 278.002 37.1312 278.002 37.4033 277.96 37.6544 277.877 37.8637" fill="#93D500" fill-rule="nonzero" fill-opacity="1" transform="matrix(1.01683 0 0 1 0 0.355036)"/><path d="M235.408 46.8849C235.241 46.7384 235.031 46.6128 234.801 46.5081 234.571 46.4035 234.32 46.3198 234.048 46.257L233.483 46.1105C233.336 46.0895 233.21 46.0477 233.085 46.0058 232.959 45.9639 232.855 45.9011 232.771 45.8384 232.687 45.7756 232.603 45.7128 232.562 45.629 232.499 45.5453 232.478 45.4407 232.499 45.336 232.499 45.2104 232.541 45.0849 232.624 44.9802 232.708 44.8755 232.813 44.7918 232.959 44.729 233.106 44.6662 233.294 44.6453 233.503 44.6453 233.817 44.6453 234.069 44.7081 234.257 44.8546 234.445 45.0011 234.55 45.1895 234.571 45.4407L235.848 45.4407C235.848 45.0639 235.743 44.729 235.555 44.4569 235.366 44.1639 235.094 43.9546 234.738 43.7871 234.383 43.6197 233.985 43.536 233.503 43.536 233.022 43.536 232.624 43.6197 232.269 43.7871 231.913 43.9546 231.62 44.1639 231.41 44.4569 231.201 44.75 231.096 45.0849 231.096 45.4616 231.096 45.9221 231.243 46.2988 231.557 46.5709 231.871 46.843 232.29 47.0523 232.813 47.1779L233.503 47.3454C233.734 47.4082 233.922 47.471 234.09 47.5337 234.257 47.5965 234.362 47.6803 234.445 47.7849 234.529 47.8896 234.571 47.9942 234.571 48.1407 234.571 48.2873 234.529 48.4338 234.424 48.5384 234.341 48.664 234.194 48.7477 234.027 48.8105 233.859 48.8733 233.671 48.9152 233.441 48.9152 233.21 48.9152 233.001 48.8733 232.813 48.8105 232.624 48.7477 232.478 48.6431 232.373 48.4966 232.269 48.35 232.206 48.1826 232.185 47.9733L230.887 47.9733C230.887 48.4338 231.013 48.8105 231.222 49.1245 231.431 49.4384 231.724 49.6687 232.101 49.8152 232.478 49.9617 232.917 50.0454 233.441 50.0454 233.964 50.0454 234.404 49.9617 234.759 49.8152 235.115 49.6687 235.408 49.4384 235.597 49.1663 235.785 48.8733 235.89 48.5594 235.89 48.1617 235.89 47.8896 235.848 47.6593 235.743 47.471 235.659 47.2616 235.513 47.0942 235.345 46.9477" fill="#93D500" fill-rule="nonzero" fill-opacity="1" transform="matrix(1.01683 0 0 1 0 0.355036)"/><path d="M241.122 47.5337C241.122 47.1361 241.06 46.7802 240.955 46.4872 240.85 46.1942 240.683 45.943 240.473 45.7337 240.264 45.5453 240.034 45.3779 239.762 45.2942 239.49 45.1895 239.197 45.1476 238.883 45.1476 238.422 45.1476 238.004 45.2523 237.669 45.4616 237.334 45.6709 237.062 45.9639 236.873 46.3198 236.685 46.6965 236.58 47.1151 236.58 47.5965 236.58 48.0779 236.685 48.5384 236.873 48.8942 237.062 49.271 237.334 49.5431 237.69 49.7315 238.045 49.9199 238.464 50.0245 238.946 50.0245 239.343 50.0245 239.678 49.9617 239.971 49.8571 240.264 49.7315 240.515 49.564 240.704 49.3547 240.892 49.1454 241.018 48.8733 241.08 48.6012L239.866 48.5175C239.825 48.6431 239.762 48.7477 239.678 48.8105 239.594 48.8942 239.49 48.957 239.364 48.9989 239.239 49.0408 239.113 49.0617 238.966 49.0617 238.757 49.0617 238.569 49.0198 238.401 48.9152 238.234 48.8315 238.108 48.6849 238.025 48.5175 237.941 48.35 237.899 48.1407 237.899 47.9105L241.122 47.9105 241.122 47.5547ZM237.899 47.0733C237.899 46.9058 237.941 46.7384 238.025 46.6128 238.108 46.4663 238.234 46.3407 238.38 46.236 238.527 46.1523 238.715 46.0895 238.904 46.0895 239.092 46.0895 239.259 46.1314 239.406 46.2151 239.552 46.2988 239.657 46.4035 239.741 46.55 239.825 46.6965 239.866 46.864 239.866 47.0523L237.878 47.0523Z" fill="#93D500" fill-rule="nonzero" fill-opacity="1" transform="matrix(1.01683 0 0 1 0 0.355036)"/><path d="M244.429 45.1058C244.157 45.1058 243.927 45.1895 243.718 45.336 243.508 45.4825 243.362 45.7128 243.278 46.0058L243.236 46.0058 243.236 45.1895 241.96 45.1895 241.96 49.9199 243.278 49.9199 243.278 47.2407C243.278 47.0523 243.32 46.8849 243.404 46.7384 243.487 46.5919 243.613 46.4663 243.76 46.3826 243.906 46.2988 244.074 46.257 244.283 46.257 244.367 46.257 244.471 46.257 244.576 46.2779 244.681 46.2779 244.764 46.2988 244.827 46.3198L244.827 45.1476C244.827 45.1476 244.701 45.1267 244.618 45.1058 244.534 45.1058 244.471 45.1058 244.408 45.1058" fill="#93D500" fill-rule="nonzero" fill-opacity="1" transform="matrix(1.01683 0 0 1 0 0.355036)"/><path d="M247.736 48.5803 247.695 48.5803 246.711 45.1895 245.329 45.1895 246.983 49.9199 248.469 49.9199 250.123 45.1895 248.72 45.1895 247.736 48.5803Z" fill="#93D500" fill-rule="nonzero" fill-opacity="1" transform="matrix(1.01683 0 0 1 0 0.355036)"/><path d="M250.73 45.1895 252.048 45.1895 252.048 49.9199 250.73 49.9199Z" fill="#93D500" fill-rule="nonzero" fill-opacity="1" transform="matrix(1.01683 0 0 1 0 0.355036)"/><path d="M251.399 43.2429C251.211 43.2429 251.043 43.3057 250.897 43.4313 250.75 43.5569 250.688 43.7243 250.688 43.8918 250.688 44.0592 250.75 44.2267 250.897 44.3523 251.043 44.4779 251.211 44.5406 251.399 44.5406 251.588 44.5406 251.755 44.4779 251.902 44.3523 252.048 44.2267 252.111 44.0592 252.111 43.8918 252.111 43.7243 252.048 43.5569 251.902 43.4313 251.755 43.3057 251.588 43.2429 251.399 43.2429" fill="#93D500" fill-rule="nonzero" fill-opacity="1" transform="matrix(1.01683 0 0 1 0 0.355036)"/><path d="M254.685 46.3198C254.832 46.2151 255.02 46.1523 255.209 46.1523 255.439 46.1523 255.648 46.2151 255.795 46.3616 255.941 46.5081 256.046 46.6965 256.067 46.9268L257.302 46.9268C257.302 46.5709 257.176 46.236 257.009 45.9639 256.82 45.6918 256.59 45.4825 256.276 45.336 255.962 45.1895 255.606 45.1058 255.188 45.1058 254.706 45.1058 254.288 45.2104 253.953 45.4197 253.597 45.629 253.346 45.9221 253.157 46.2779 252.969 46.6547 252.885 47.0733 252.885 47.5547 252.885 48.0361 252.969 48.4547 253.157 48.8315 253.346 49.2082 253.618 49.4803 253.953 49.6896 254.309 49.8989 254.727 50.0036 255.209 50.0036 255.627 50.0036 256.004 49.9199 256.297 49.7733 256.611 49.6268 256.841 49.3966 257.03 49.1245 257.197 48.8524 257.302 48.5384 257.323 48.1617L256.088 48.1617C256.067 48.3291 256.004 48.4756 255.941 48.5803 255.858 48.7059 255.753 48.7896 255.648 48.8524 255.523 48.9152 255.397 48.9361 255.251 48.9361 255.041 48.9361 254.874 48.8733 254.727 48.7687 254.581 48.664 254.455 48.4966 254.371 48.2873 254.288 48.0779 254.246 47.8268 254.246 47.5128 254.246 47.1989 254.288 46.9686 254.371 46.7593 254.455 46.55 254.581 46.3826 254.727 46.2779" fill="#93D500" fill-rule="nonzero" fill-opacity="1" transform="matrix(1.01683 0 0 1 0 0.355036)"/><path d="M262.451 47.5337C262.451 47.1361 262.388 46.7802 262.283 46.4872 262.179 46.1942 262.011 45.943 261.802 45.7337 261.593 45.5453 261.362 45.3779 261.09 45.2942 260.818 45.1895 260.525 45.1476 260.211 45.1476 259.751 45.1476 259.353 45.2523 258.997 45.4616 258.662 45.6709 258.39 45.9639 258.202 46.3198 258.013 46.6965 257.93 47.1151 257.93 47.5965 257.93 48.0779 258.013 48.5384 258.202 48.8942 258.39 49.271 258.662 49.5431 259.018 49.7315 259.374 49.9199 259.793 50.0245 260.274 50.0245 260.672 50.0245 261.007 49.9617 261.32 49.8571 261.613 49.7315 261.865 49.564 262.053 49.3547 262.241 49.1454 262.367 48.8733 262.43 48.6012L261.216 48.5175C261.174 48.6431 261.111 48.7477 261.027 48.8105 260.944 48.8942 260.839 48.957 260.713 48.9989 260.588 49.0408 260.462 49.0617 260.316 49.0617 260.106 49.0617 259.918 49.0198 259.751 48.9152 259.583 48.8315 259.479 48.6849 259.374 48.5175 259.29 48.35 259.248 48.1407 259.248 47.9105L262.472 47.9105 262.472 47.5547ZM259.227 47.0733C259.227 46.9058 259.269 46.7384 259.353 46.6128 259.437 46.4663 259.562 46.3407 259.709 46.236 259.855 46.1523 260.044 46.0895 260.232 46.0895 260.42 46.0895 260.588 46.1314 260.734 46.2151 260.881 46.2988 261.007 46.4035 261.069 46.55 261.153 46.6965 261.195 46.864 261.195 47.0523L259.206 47.0523Z" fill="#93D500" fill-rule="nonzero" fill-opacity="1" transform="matrix(1.01683 0 0 1 0 0.355036)"/><path d="M265.925 47.1779 265.067 47.0105C264.858 46.9686 264.69 46.9058 264.607 46.8221 264.523 46.7384 264.481 46.6547 264.481 46.5291 264.481 46.3826 264.544 46.2779 264.69 46.1942 264.837 46.1105 265.004 46.0686 265.214 46.0686 265.36 46.0686 265.507 46.0895 265.611 46.1523 265.716 46.1942 265.821 46.2779 265.883 46.3616 265.946 46.4453 265.988 46.5291 266.009 46.6337L267.202 46.55C267.139 46.1105 266.951 45.7756 266.595 45.5244 266.26 45.2732 265.779 45.1476 265.172 45.1476 264.774 45.1476 264.418 45.2104 264.104 45.336 263.811 45.4616 263.56 45.629 263.414 45.8384 263.246 46.0477 263.162 46.3198 263.162 46.6337 263.162 46.9895 263.267 47.2826 263.497 47.5128 263.728 47.743 264.062 47.9105 264.523 47.9942L265.339 48.1617C265.548 48.2035 265.695 48.2663 265.8 48.3291 265.904 48.4128 265.946 48.4966 265.946 48.6221 265.946 48.7687 265.883 48.8733 265.737 48.978 265.59 49.0617 265.402 49.1035 265.172 49.1035 264.941 49.1035 264.753 49.0617 264.586 48.957 264.439 48.8524 264.335 48.7059 264.293 48.5175L262.995 48.5803C263.058 49.0408 263.267 49.3966 263.644 49.6478 264.021 49.9199 264.523 50.0454 265.151 50.0454 265.569 50.0454 265.925 49.9826 266.239 49.8571 266.553 49.7315 266.804 49.5431 266.993 49.3129 267.181 49.0826 267.265 48.8105 267.265 48.4966 267.265 48.1617 267.16 47.8896 266.93 47.6803 266.7 47.471 266.365 47.3244 265.904 47.2198" fill="#93D500" fill-rule="nonzero" fill-opacity="1" transform="matrix(1.01683 0 0 1 0 0.355036)"/><path d="M131.968 20.2819C133.413 19.3191 135.108 18.8377 137.055 18.8377 138.143 18.8377 139.127 18.9842 140.069 19.2982 140.99 19.6121 141.806 20.0517 142.518 20.6168 143.229 21.2029 143.815 21.8936 144.255 22.7099 144.715 23.5262 145.008 24.4471 145.155 25.4937L153.213 25.4937C152.962 23.3169 152.376 21.3703 151.455 19.6749 150.534 17.9795 149.362 16.5562 147.918 15.3841 146.473 14.212 144.82 13.312 142.936 12.705 141.073 12.098 139.043 11.784 136.866 11.784 133.559 11.784 130.587 12.5375 127.929 14.0445 125.292 15.5516 123.177 17.7493 121.65 20.6377 120.101 23.5262 119.326 27.0216 119.326 31.124 119.326 35.2265 120.08 38.701 121.608 41.5894 123.136 44.4779 125.208 46.6756 127.866 48.1826 130.503 49.7105 133.517 50.4641 136.866 50.4641 139.273 50.4641 141.45 50.1082 143.376 49.3757 145.301 48.6431 146.955 47.6593 148.336 46.4035 149.718 45.1476 150.827 43.7243 151.664 42.1127 152.501 40.5219 153.004 38.8475 153.213 37.1312L145.155 37.0893C144.966 38.094 144.652 38.994 144.171 39.7684 143.69 40.5429 143.104 41.2127 142.392 41.7569 141.68 42.3011 140.864 42.7197 139.964 42.9918 139.043 43.2639 138.059 43.4104 136.992 43.4104 135.087 43.4104 133.413 42.9499 131.968 42.008 130.524 41.0871 129.394 39.7056 128.599 37.8637 127.803 36.0428 127.385 33.7822 127.385 31.1031 127.385 28.424 127.782 26.2681 128.578 24.4471 129.373 22.6052 130.503 21.2238 131.947 20.261" fill="#244B5A" fill-rule="nonzero" fill-opacity="1" transform="matrix(1.01683 0 0 1 0 0.355036)"/><path d="M165.772 34.4102 181.888 34.4102 181.888 27.8588 165.772 27.8588 165.772 18.8795 183.186 18.8795 183.186 12.3073 157.818 12.3073 157.818 49.9617 183.27 49.9617 183.27 43.4104 165.772 43.4104 165.772 34.4102Z" fill="#244B5A" fill-rule="nonzero" fill-opacity="1" transform="matrix(1.01683 0 0 1 0 0.355036)"/><path d="M215.105 35.0381C214.54 33.8241 213.766 32.7776 212.761 31.8775 211.756 30.9775 210.563 30.224 209.203 29.617 207.821 29.01 206.314 28.5077 204.682 28.1519L201.291 27.3356C200.475 27.1472 199.7 26.9379 198.968 26.6658 198.235 26.3937 197.607 26.0797 197.063 25.7239 196.519 25.3681 196.079 24.9285 195.765 24.4262 195.451 23.9239 195.305 23.3378 195.326 22.668 195.326 21.8517 195.556 21.1401 196.037 20.4912 196.519 19.8633 197.189 19.3609 198.089 18.9842 198.989 18.6284 200.077 18.44 201.375 18.44 203.279 18.44 204.807 18.8586 205.917 19.6749 207.026 20.4912 207.654 21.6424 207.801 23.1285L215.44 23.1285C215.398 20.8889 214.812 18.9214 213.64 17.2051 212.468 15.5097 210.856 14.1701 208.763 13.2073 206.67 12.2445 204.221 11.7631 201.438 11.7631 198.654 11.7631 196.247 12.2445 194.091 13.2073 191.935 14.1701 190.24 15.4888 189.005 17.2051 187.77 18.9214 187.163 20.9098 187.184 23.1703 187.184 25.9541 188.084 28.1728 189.926 29.8054 191.768 31.438 194.279 32.652 197.44 33.4264L201.542 34.452C202.924 34.7869 204.075 35.1427 205.017 35.5614 205.959 35.959 206.691 36.4614 207.194 37.0265 207.696 37.6126 207.947 38.3033 207.947 39.1614 207.947 40.0615 207.675 40.8778 207.11 41.5685 206.566 42.2592 205.791 42.8034 204.786 43.2011 203.782 43.5988 202.61 43.7871 201.27 43.7871 199.931 43.7871 198.675 43.5778 197.586 43.1592 196.498 42.7406 195.64 42.1127 194.991 41.2754 194.342 40.4382 193.986 39.3917 193.903 38.1149L186.2 38.1149C186.263 40.815 186.912 43.0964 188.167 44.9174 189.423 46.7593 191.182 48.1407 193.421 49.0617 195.661 49.9826 198.319 50.4641 201.354 50.4641 204.389 50.4641 207.047 50.0036 209.224 49.0826 211.401 48.1617 213.075 46.843 214.226 45.1686 215.377 43.4732 215.964 41.4848 215.984 39.1824 215.984 37.6126 215.691 36.2311 215.126 35.0172" fill="#244B5A" fill-rule="nonzero" fill-opacity="1" transform="matrix(1.01683 0 0 1 0 0.355036)"/><path d="M99.5885 12.3073 77.8624 49.9199 86.7789 49.9199 90.3999 43.6616 108.756 43.6616 112.377 49.9199 121.294 49.9199 99.5885 12.3073ZM94.021 37.3823 99.5885 27.7542 105.156 37.3823 94.0419 37.3823Z" fill="#244B5A" fill-rule="nonzero" fill-opacity="1" transform="matrix(1.01683 0 0 1 0 0.355036)"/></g></g></g></g></svg>