<?xml version="1.0" encoding="utf-8"?>
<!-- Generator: Adobe Illustrator 21.1.0, SVG Export Plug-In . SVG Version: 6.00 Build 0)  -->
<svg version="1.1" id="图层_1" xmlns="http://www.w3.org/2000/svg" xmlns:xlink="http://www.w3.org/1999/xlink" x="0px" y="0px"
	 width="200px" height="100px" viewBox="0 0 200 100" style="enable-background:new 0 0 200 100;" xml:space="preserve">
<style type="text/css">
	.st0{fill:#FFFFFF;}
	.st1{fill:#ED2B2B;}
	.st2{opacity:0.6;}
	.st3{fill:#000105;}
</style>
<g>
	<rect x="0" y="0" class="st0" width="100" height="100"/>
	<path class="st1" d="M0,0v71.6c0.5-0.8,1.1-1.5,1.9-2.1c0.9-0.6,1.9-1.1,3-1.4s2.3-0.5,3.5-0.5c2.6,0,5,0.5,7,1.4l-2.5,4.8
		c-0.6-0.3-1.2-0.6-2-0.7c-0.7-0.2-1.4-0.3-2.1-0.3c-0.6,0-1.1,0.1-1.6,0.4c-0.5,0.2-0.7,0.6-0.7,1.1c0,0.6,0.3,1,0.8,1.2
		c0.6,0.2,1.3,0.4,2.2,0.6l0.4,0.1c1.9,0.4,3.4,1.1,4.5,2.1c0.9,0.8,1.4,1.9,1.6,3.2v-13h7.5v20.1L33,78.1l-8.6-9.7H34l3.8,4.4
		l3.8-4.4h9.7l-8.7,9.7l7.7,8.3l2-3.8c0.8,0.6,1.8,1.1,2.9,1.5c1.1,0.4,2.1,0.6,3,0.6c0.6,0,1.1-0.1,1.6-0.4s0.7-0.7,0.7-1.2
		c0-0.6-0.3-1-0.8-1.2c-0.5-0.3-1.4-0.5-2.5-0.8c-0.6-0.1-1.1-0.2-1.4-0.3c-0.7-0.2-1.3-0.4-1.9-0.7c-0.5-0.2-1-0.6-1.4-1
		s-0.8-0.9-1-1.6s-0.4-1.4-0.4-2.4c0-1.2,0.2-2.3,0.7-3.3s1.2-1.7,2.1-2.3c0.9-0.6,1.9-1.1,3-1.4s2.3-0.5,3.5-0.5c2.6,0,5,0.5,7,1.4
		l-2.5,4.8c-0.6-0.3-1.2-0.6-2-0.7s-1.4-0.3-2.1-0.3c-0.6,0-1.1,0.1-1.6,0.4c-0.5,0.2-0.7,0.6-0.7,1.1c0,0.6,0.3,1,0.8,1.2
		c0.6,0.2,1.3,0.4,2.1,0.6l0.4,0.1c1.9,0.4,3.4,1.1,4.5,2.1c0.5,0.5,0.9,1,1.2,1.7c0-0.3,0-0.6,0-0.8c0-1.5,0.3-2.9,0.8-4.3
		s1.3-2.6,2.2-3.6c1-1.1,2.1-1.9,3.4-2.5s2.7-0.9,4.2-0.9c1.3,0,2.6,0.3,3.7,0.8c1.2,0.5,2,1.3,2.7,2.3h0.1v-2.4h7.5v15.5
		c0.2-0.7,0.6-1.3,1.1-1.8c0.9-0.9,2.1-1.4,3.4-1.4s2.4,0.4,3.3,1.3V0H0L0,0z M19.7,56.1c1.2,0,2.1,0.4,3,1.2s1.2,1.8,1.2,3
		s-0.4,2.1-1.2,3c-0.8,0.8-1.8,1.2-3,1.2c-1.1,0-2.2-0.4-3-1.2c-0.8-0.8-1.2-1.8-1.2-3s0.4-2.1,1.2-3C17.6,56.5,18.5,56.1,19.7,56.1
		L19.7,56.1z M80.1,74.2c-1.5,0-2.7,0.5-3.5,1.4c-0.9,0.9-1.3,2-1.3,3.4s0.4,2.5,1.3,3.4s2.1,1.3,3.5,1.3c1.5,0,2.7-0.4,3.5-1.3
		c0.9-0.9,1.3-2,1.3-3.4s-0.4-2.5-1.3-3.4S81.5,74.2,80.1,74.2L80.1,74.2z M0,78.5v3.9c0.1,0.1,0.2,0.2,0.2,0.2
		C1,83.2,2,83.7,3.1,84.1s2.1,0.6,3,0.6c0.6,0,1.1-0.1,1.6-0.4s0.7-0.7,0.7-1.2c0-0.6-0.3-1-0.8-1.2c-0.5-0.3-1.4-0.5-2.5-0.8
		C4.5,81,4,80.9,3.7,80.8c-0.7-0.2-1.3-0.4-1.9-0.7c-0.5-0.2-1-0.6-1.4-1C0.3,79,0.2,78.8,0,78.5L0,78.5z M67.9,82.5
		c0,1.3-0.3,2.4-0.8,3.4c-0.6,1-1.3,1.8-2.3,2.4c-0.9,0.6-2,1.1-3.2,1.4s-2.4,0.5-3.7,0.5c-1.5,0-3-0.2-4.5-0.6
		c-0.2-0.1-0.3-0.1-0.5-0.2l0.1,0.1h-9.9l-5.4-6.3l-5.4,6.3H16v-6.2c-0.1,0.9-0.4,1.8-0.8,2.5c-0.6,1-1.3,1.8-2.3,2.4
		c-0.9,0.6-2,1.1-3.2,1.4S7.3,90.1,6,90.1c-1.5,0-3-0.2-4.4-0.6c-0.6,0-1.1-0.2-1.6-0.4V100h84.6V87.6c-0.7,0.9-1.7,1.6-2.9,2
		c-1.2,0.5-2.4,0.7-3.7,0.7c-1.5,0-3-0.3-4.3-0.9S71.3,88,70.3,87c-0.9-1-1.7-2.2-2.2-3.6C68.1,83.1,68,82.8,67.9,82.5L67.9,82.5z
		 M92.1,87.2V100h7.9V89.1c-0.9,0.9-2,1.3-3.3,1.3c-1.4,0-2.5-0.5-3.4-1.4C92.7,88.5,92.4,87.8,92.1,87.2L92.1,87.2z"/>
</g>
<g>
	<g class="st2">
		<path class="st3" d="M119.9,76.8l-0.6-1.7h-3.5l-0.6,1.7h-1.4l3-8.4h1.6l3,8.4H119.9z M116.1,74.1h2.7l-1.4-3.9L116.1,74.1z"/>
		<path class="st3" d="M124,70.2v1c0.4-0.8,1.1-1.2,2.1-1.2c0.7,0,1.4,0.2,1.8,0.7c0.5,0.5,0.7,1.2,0.7,2.1v3.9h-1.4v-3.7
			c0-0.6-0.1-1-0.4-1.4c-0.3-0.3-0.7-0.5-1.2-0.5c-0.5,0-0.9,0.2-1.2,0.5c-0.3,0.3-0.4,0.8-0.4,1.4v3.7h-1.4v-6.6H124z"/>
		<path class="st3" d="M138.6,68.5v1.1h-3.2v2.5h2.9v1.1h-2.9v2.6h3.2v1.1H134v-8.4H138.6z"/>
		<path class="st3" d="M141.6,76.8h-1.4V68h1.4v5.2l2.4-2.9h1.9l-3,3.3l3,3.3h-1.8l-2.4-2.8V76.8z"/>
		<path class="st3" d="M148.5,68.5c0,0.2-0.1,0.5-0.3,0.6s-0.4,0.3-0.6,0.3s-0.5-0.1-0.6-0.3s-0.3-0.4-0.3-0.6s0.1-0.5,0.3-0.6
			s0.4-0.3,0.6-0.3s0.5,0.1,0.6,0.3S148.5,68.2,148.5,68.5z M146.9,76.8v-6.6h1.4v6.6H146.9z"/>
		<path class="st3" d="M151.4,70.2v1c0.4-0.8,1.1-1.2,2.1-1.2c0.7,0,1.4,0.2,1.8,0.7c0.5,0.5,0.7,1.2,0.7,2.1v3.9h-1.4v-3.7
			c0-0.6-0.1-1-0.4-1.4c-0.3-0.3-0.7-0.5-1.2-0.5c-0.5,0-0.9,0.2-1.2,0.5c-0.3,0.3-0.4,0.8-0.4,1.4v3.7h-1.4v-6.6H151.4z"/>
		<path class="st3" d="M160.7,76.9c-1,0-1.8-0.3-2.4-0.9s-0.9-1.5-0.9-2.5c0-1,0.3-1.8,1-2.5c0.6-0.6,1.4-0.9,2.4-0.9
			s1.8,0.3,2.4,0.9c0.6,0.6,1,1.4,1,2.5c0,1-0.3,1.8-1,2.5S161.7,76.9,160.7,76.9z M162.2,75.2c0.4-0.4,0.6-1,0.6-1.7
			c0-0.7-0.2-1.3-0.6-1.7c-0.4-0.4-0.9-0.6-1.4-0.6c-0.6,0-1,0.2-1.4,0.6c-0.4,0.4-0.6,1-0.6,1.7c0,0.7,0.2,1.3,0.6,1.7
			c0.4,0.4,0.8,0.6,1.4,0.6S161.8,75.6,162.2,75.2z"/>
		<path class="st3" d="M169.2,70.1c0.9,0,1.6,0.3,2.2,0.9c0.6,0.6,0.9,1.4,0.9,2.4s-0.3,1.8-0.9,2.5c-0.6,0.6-1.3,1-2.2,1
			c-0.5,0-1-0.1-1.4-0.4c-0.4-0.2-0.7-0.6-0.9-1V80h-1.4v-9.8h1.4v1.2c0.2-0.4,0.5-0.7,0.9-0.9C168.2,70.2,168.7,70.1,169.2,70.1z
			 M170.3,75.1c0.4-0.4,0.6-1,0.6-1.6s-0.2-1.2-0.6-1.6c-0.4-0.4-0.9-0.6-1.4-0.6s-1,0.2-1.4,0.6c-0.4,0.4-0.6,0.9-0.6,1.6
			c0,0.7,0.2,1.2,0.6,1.6c0.4,0.4,0.9,0.6,1.4,0.6S169.9,75.6,170.3,75.1z"/>
		<path class="st3" d="M173.4,72.1c0-0.6,0.2-1,0.7-1.4c0.5-0.4,1.1-0.6,1.9-0.6c0.8,0,1.4,0.2,1.8,0.6c0.5,0.4,0.7,0.9,0.7,1.6
			h-1.4c0-0.3-0.1-0.6-0.3-0.8c-0.2-0.2-0.5-0.3-0.9-0.3c-0.4,0-0.7,0.1-0.9,0.2s-0.3,0.4-0.3,0.6s0.1,0.5,0.4,0.6
			c0.3,0.2,0.6,0.3,1,0.3c0.4,0.1,0.8,0.2,1.1,0.3c0.4,0.1,0.7,0.3,1,0.6c0.3,0.3,0.4,0.6,0.4,1.1c0,0.6-0.2,1-0.7,1.4
			c-0.5,0.4-1.1,0.5-1.9,0.5s-1.4-0.2-1.8-0.6c-0.5-0.4-0.7-0.9-0.8-1.6h1.4c0,0.3,0.1,0.6,0.4,0.8c0.2,0.2,0.5,0.3,0.9,0.3
			s0.7-0.1,0.9-0.2s0.3-0.4,0.3-0.7s-0.1-0.5-0.4-0.6c-0.3-0.2-0.6-0.3-1-0.3s-0.8-0.2-1.1-0.3c-0.4-0.1-0.7-0.3-1-0.5
			C173.5,72.9,173.4,72.6,173.4,72.1z"/>
		<path class="st3" d="M115,88.7c-0.8-0.8-1.2-1.8-1.2-3.1s0.4-2.3,1.2-3.1c0.8-0.8,1.8-1.2,3-1.2c0.9,0,1.7,0.2,2.4,0.7
			c0.7,0.4,1.2,1.1,1.5,1.9h-1.6c-0.4-0.8-1.2-1.3-2.2-1.3c-0.8,0-1.5,0.3-2.1,0.8s-0.8,1.3-0.8,2.2s0.3,1.6,0.8,2.2
			c0.5,0.6,1.2,0.8,2.1,0.8c1,0,1.8-0.4,2.2-1.3h1.6c-0.3,0.8-0.8,1.4-1.5,1.8c-0.7,0.4-1.5,0.6-2.4,0.6
			C116.8,89.9,115.8,89.5,115,88.7z"/>
		<path class="st3" d="M126.4,89.9c-1,0-1.8-0.3-2.4-0.9s-0.9-1.5-0.9-2.5c0-1,0.3-1.8,1-2.5c0.6-0.6,1.4-0.9,2.4-0.9
			s1.8,0.3,2.4,0.9c0.6,0.6,1,1.4,1,2.5c0,1-0.3,1.8-1,2.5S127.3,89.9,126.4,89.9z M127.8,88.2c0.4-0.4,0.6-1,0.6-1.7
			c0-0.7-0.2-1.3-0.6-1.7c-0.4-0.4-0.9-0.6-1.4-0.6c-0.6,0-1,0.2-1.4,0.6c-0.4,0.4-0.6,1-0.6,1.7c0,0.7,0.2,1.3,0.6,1.7
			c0.4,0.4,0.8,0.6,1.4,0.6S127.4,88.6,127.8,88.2z"/>
		<path class="st3" d="M132.5,83.2v1c0.4-0.8,1.1-1.2,2.1-1.2c0.5,0,1,0.1,1.4,0.4c0.4,0.2,0.7,0.6,0.9,1c0.2-0.4,0.6-0.8,1-1
			s0.9-0.4,1.4-0.4c0.8,0,1.4,0.2,1.9,0.7s0.7,1.2,0.7,2.1v3.9h-1.4v-3.7c0-0.6-0.1-1-0.4-1.4c-0.3-0.3-0.7-0.5-1.2-0.5
			s-0.9,0.2-1.2,0.5c-0.3,0.3-0.4,0.8-0.4,1.4v3.7h-1.4v-3.7c0-0.6-0.1-1-0.4-1.4c-0.3-0.3-0.7-0.5-1.2-0.5s-0.9,0.2-1.2,0.5
			c-0.3,0.3-0.5,0.8-0.5,1.4v3.7h-1.4v-6.6H132.5z"/>
		<path class="st3" d="M147.3,83.1c0.9,0,1.6,0.3,2.2,0.9c0.6,0.6,0.9,1.4,0.9,2.4s-0.3,1.8-0.9,2.5c-0.6,0.6-1.3,1-2.2,1
			c-0.5,0-1-0.1-1.4-0.4c-0.4-0.2-0.7-0.6-0.9-1V93h-1.4v-9.8h1.4v1.2c0.2-0.4,0.5-0.7,0.9-0.9C146.3,83.2,146.8,83.1,147.3,83.1z
			 M148.4,88.1c0.4-0.4,0.6-1,0.6-1.6s-0.2-1.2-0.6-1.6c-0.4-0.4-0.9-0.6-1.4-0.6s-1,0.2-1.4,0.6c-0.4,0.4-0.6,0.9-0.6,1.6
			c0,0.7,0.2,1.2,0.6,1.6c0.4,0.4,0.9,0.6,1.4,0.6S148,88.6,148.4,88.1z"/>
		<path class="st3" d="M152.2,89c-0.6-0.6-0.9-1.5-0.9-2.5s0.3-1.8,0.9-2.4c0.6-0.6,1.3-0.9,2.2-0.9c0.5,0,1,0.1,1.4,0.4
			c0.4,0.2,0.7,0.5,0.9,0.9v-1.2h1.4v6.6h-1.4v-1.2c-0.2,0.4-0.5,0.7-0.9,1c-0.4,0.2-0.8,0.4-1.4,0.4
			C153.5,89.9,152.8,89.6,152.2,89z M156.1,88.2c0.4-0.4,0.6-0.9,0.6-1.6c0-0.7-0.2-1.2-0.6-1.6c-0.4-0.4-0.9-0.6-1.4-0.6
			s-1,0.2-1.4,0.6c-0.4,0.4-0.6,0.9-0.6,1.6s0.2,1.2,0.6,1.6c0.4,0.4,0.9,0.6,1.4,0.6S155.7,88.6,156.1,88.2z"/>
		<path class="st3" d="M161.3,83.2v1c0.4-0.8,1.1-1.2,2.1-1.2c0.7,0,1.4,0.2,1.8,0.7c0.5,0.5,0.7,1.2,0.7,2.1v3.9h-1.4v-3.7
			c0-0.6-0.1-1-0.4-1.4c-0.3-0.3-0.7-0.5-1.2-0.5c-0.5,0-0.9,0.2-1.2,0.5c-0.3,0.3-0.4,0.8-0.4,1.4v3.7h-1.4v-6.6H161.3z"/>
		<path class="st3" d="M169.5,89.7l-2.6-6.5h1.5l1.9,5l1.9-5h1.4l-4.1,9.7h-1.4L169.5,89.7z"/>
	</g>
	<path class="st1" d="M182.6,82.3c1.2,0,2.1,0.4,3,1.2c0.9,0.8,1.2,1.8,1.2,3c0,1.2-0.4,2.1-1.2,3c-0.8,0.8-1.8,1.2-3,1.2
		c-1.1,0-2.2-0.4-3-1.2c-0.8-0.8-1.2-1.8-1.2-3c0-1.2,0.4-2.1,1.2-3C180.5,82.7,181.4,82.3,182.6,82.3L182.6,82.3z"/>
</g>
</svg>
